SplineFontDB: 3.0
FontName: FamiliadaMono
FullName: Familiada Mono
FamilyName: Familiada
Weight: Book
Copyright: Copyright darunio123456789 2010. Monospaced version by Hanns Holger Rutz 2014.
Version: 1.0
ItalicAngle: 0
UnderlinePosition: 127
UnderlineWidth: 51
Ascent: 819
Descent: 205
sfntRevision: 0x00010000
LayerCount: 2
Layer: 0 1 "Back"  1
Layer: 1 1 "Fore"  0
XUID: [1021 387 137759985 11570550]
FSType: 4
OS2Version: 2
OS2_WeightWidthSlopeOnly: 0
OS2_UseTypoMetrics: 1
CreationTime: 1280906440
ModificationTime: 1395170133
PfmFamily: 81
TTFWeight: 400
TTFWidth: 5
LineGap: 0
VLineGap: 0
Panose: 0 0 4 0 0 0 0 0 0 0
OS2TypoAscent: 896
OS2TypoAOffset: 0
OS2TypoDescent: 0
OS2TypoDOffset: 0
OS2TypoLinegap: 0
OS2WinAscent: 896
OS2WinAOffset: 0
OS2WinDescent: 0
OS2WinDOffset: 0
HheadAscent: 896
HheadAOffset: 0
HheadDescent: 0
HheadDOffset: 0
OS2SubXSize: 512
OS2SubYSize: 512
OS2SubXOff: 0
OS2SubYOff: 0
OS2SupXSize: 512
OS2SupYSize: 512
OS2SupXOff: 0
OS2SupYOff: 512
OS2StrikeYSize: 51
OS2StrikeYPos: 204
OS2Vendor: 'FSTR'
OS2CodePages: 00000001.00000000
OS2UnicodeRanges: 80000007.00000000.00000000.00000000
MarkAttachClasses: 1
DEI: 91125
ShortTable: maxp 16
  1
  0
  119
  595
  35
  0
  0
  2
  0
  0
  0
  0
  0
  0
  0
  0
EndShort
LangName: 1033 "" "" "" "Familiada Mono" "" "Version 1.0" "" "FontStruct is a trademark of FSI FontShop International GmbH" "http://fontstruct.fontshop.com" "darunio123456789" "Monospaced version of Familiada" "http://www.fontshop.com" "http://fontstruct.fontshop.com/fontstructions/show/294195" "Creative Commons Attribution Share Alike" "http://creativecommons.org/licenses/by-sa/3.0/" "" "" "" "" "Five big quacking zephyrs jolt my wax bed" 
Encoding: UnicodeBmp
UnicodeInterp: none
NameList: Adobe Glyph List
DisplaySize: -48
AntiAlias: 1
FitToEm: 1
WinInfo: 0 16 6
BeginPrivate: 0
EndPrivate

StartChar: .notdef
Encoding: 65536 -1 0
Width: 0
Flags: W
LayerCount: 2
Fore
SplineSet
448 127 m 1,0,-1
 448 269 l 1,1,-1
 305 269 l 1,2,-1
 305 127 l 1,3,-1
 448 127 l 1,0,-1
590 293 m 1,4,-1
 590 436 l 1,5,-1
 305 436 l 1,6,-1
 305 293 l 1,7,-1
 590 293 l 1,4,-1
448 459 m 1,8,-1
 448 602 l 1,9,-1
 305 602 l 1,10,-1
 305 459 l 1,11,-1
 448 459 l 1,8,-1
590 626 m 1,12,-1
 590 767 l 1,13,-1
 448 767 l 2,14,15
 388 767 388 767 347 726 c 0,16,17
 305 684 305 684 305 626 c 1,18,-1
 590 626 l 1,12,-1
0 0 m 1,19,-1
 0 896 l 1,20,-1
 896 896 l 1,21,-1
 896 0 l 1,22,-1
 0 0 l 1,19,-1
EndSplineSet
Validated: 1
EndChar

StartChar: exclam
Encoding: 33 33 4
Width: 768
Flags: W
LayerCount: 2
Fore
SplineSet
448 0 m 1,0,1
 421 0 421 0 402 18 c 1,2,3
 384 37 384 37 384 64 c 0,4,5
 384 90 384 90 402 109 c 0,6,7
 421 128 421 128 448 128 c 0,8,9
 474 128 474 128 493 109 c 256,10,11
 512 90 512 90 512 64 c 0,12,13
 512 37 512 37 493 18 c 0,14,15
 474 0 474 0 448 0 c 1,16,-1
 448 0 l 1,0,1
448 256 m 1,17,18
 421 256 421 256 402 274 c 1,19,20
 384 293 384 293 384 320 c 0,21,22
 384 346 384 346 402 365 c 0,23,24
 421 384 421 384 448 384 c 0,25,26
 474 384 474 384 493 365 c 256,27,28
 512 346 512 346 512 320 c 0,29,30
 512 293 512 293 493 274 c 0,31,32
 474 256 474 256 448 256 c 1,33,-1
 448 256 l 1,17,18
448 384 m 1,34,35
 421 384 421 384 402 402 c 1,36,37
 384 421 384 421 384 448 c 0,38,39
 384 474 384 474 402 493 c 0,40,41
 421 512 421 512 448 512 c 0,42,43
 474 512 474 512 493 493 c 256,44,45
 512 474 512 474 512 448 c 0,46,47
 512 421 512 421 493 402 c 0,48,49
 474 384 474 384 448 384 c 1,50,-1
 448 384 l 1,34,35
448 512 m 1,51,52
 421 512 421 512 402 530 c 1,53,54
 384 549 384 549 384 576 c 0,55,56
 384 602 384 602 402 621 c 0,57,58
 421 640 421 640 448 640 c 0,59,60
 474 640 474 640 493 621 c 256,61,62
 512 602 512 602 512 576 c 0,63,64
 512 549 512 549 493 530 c 0,65,66
 474 512 474 512 448 512 c 1,67,-1
 448 512 l 1,51,52
448 640 m 1,68,69
 421 640 421 640 402 658 c 1,70,71
 384 677 384 677 384 704 c 0,72,73
 384 730 384 730 402 749 c 0,74,75
 421 768 421 768 448 768 c 0,76,77
 474 768 474 768 493 749 c 256,78,79
 512 730 512 730 512 704 c 0,80,81
 512 677 512 677 493 658 c 0,82,83
 474 640 474 640 448 640 c 1,84,-1
 448 640 l 1,68,69
448 768 m 1,85,86
 421 768 421 768 402 786 c 1,87,88
 384 805 384 805 384 832 c 0,89,90
 384 858 384 858 402 877 c 0,91,92
 421 896 421 896 448 896 c 0,93,94
 474 896 474 896 493 877 c 256,95,96
 512 858 512 858 512 832 c 0,97,98
 512 805 512 805 493 786 c 0,99,100
 474 768 474 768 448 768 c 1,101,-1
 448 768 l 1,85,86
EndSplineSet
Validated: 5
EndChar

StartChar: quotedbl
Encoding: 34 34 5
Width: 768
Flags: W
LayerCount: 2
Fore
SplineSet
256 640 m 5,0,1
 229 640 229 640 210 658 c 5,2,3
 192 677 192 677 192 704 c 4,4,5
 192 730 192 730 210 749 c 4,6,7
 229 768 229 768 256 768 c 4,8,9
 282 768 282 768 301 749 c 260,10,11
 320 730 320 730 320 704 c 4,12,13
 320 677 320 677 301 658 c 4,14,15
 282 640 282 640 256 640 c 5,16,-1
 256 640 l 5,0,1
512 640 m 5,17,18
 485 640 485 640 466 658 c 5,19,20
 448 677 448 677 448 704 c 4,21,22
 448 730 448 730 466 749 c 4,23,24
 485 768 485 768 512 768 c 4,25,26
 538 768 538 768 557 749 c 260,27,28
 576 730 576 730 576 704 c 4,29,30
 576 677 576 677 557 658 c 4,31,32
 538 640 538 640 512 640 c 5,33,-1
 512 640 l 5,17,18
256 768 m 5,34,35
 229 768 229 768 210 786 c 5,36,37
 192 805 192 805 192 832 c 4,38,39
 192 858 192 858 210 877 c 4,40,41
 229 896 229 896 256 896 c 4,42,43
 282 896 282 896 301 877 c 260,44,45
 320 858 320 858 320 832 c 4,46,47
 320 805 320 805 301 786 c 4,48,49
 282 768 282 768 256 768 c 5,50,-1
 256 768 l 5,34,35
512 768 m 5,51,52
 485 768 485 768 466 786 c 5,53,54
 448 805 448 805 448 832 c 4,55,56
 448 858 448 858 466 877 c 4,57,58
 485 896 485 896 512 896 c 4,59,60
 538 896 538 896 557 877 c 260,61,62
 576 858 576 858 576 832 c 4,63,64
 576 805 576 805 557 786 c 4,65,66
 538 768 538 768 512 768 c 5,67,-1
 512 768 l 5,51,52
EndSplineSet
Validated: 5
EndChar

StartChar: numbersign
Encoding: 35 35 6
Width: 768
Flags: W
LayerCount: 2
Fore
SplineSet
64 0 m 1,0,1
 37 0 37 0 18 18 c 1,2,3
 0 37 0 37 0 64 c 0,4,5
 0 90 0 90 18 109 c 0,6,7
 37 128 37 128 64 128 c 0,8,9
 90 128 90 128 109 109 c 256,10,11
 128 90 128 90 128 64 c 0,12,13
 128 37 128 37 109 18 c 0,14,15
 90 0 90 0 64 0 c 1,16,-1
 64 0 l 1,0,1
192 0 m 1,17,18
 165 0 165 0 146 18 c 1,19,20
 128 37 128 37 128 64 c 0,21,22
 128 90 128 90 146 109 c 0,23,24
 165 128 165 128 192 128 c 0,25,26
 218 128 218 128 237 109 c 256,27,28
 256 90 256 90 256 64 c 0,29,30
 256 37 256 37 237 18 c 0,31,32
 218 0 218 0 192 0 c 1,33,-1
 192 0 l 1,17,18
320 0 m 1,34,35
 293 0 293 0 274 18 c 1,36,37
 256 37 256 37 256 64 c 0,38,39
 256 90 256 90 274 109 c 0,40,41
 293 128 293 128 320 128 c 0,42,43
 346 128 346 128 365 109 c 256,44,45
 384 90 384 90 384 64 c 0,46,47
 384 37 384 37 365 18 c 0,48,49
 346 0 346 0 320 0 c 1,50,-1
 320 0 l 1,34,35
448 0 m 1,51,52
 421 0 421 0 402 18 c 1,53,54
 384 37 384 37 384 64 c 0,55,56
 384 90 384 90 402 109 c 0,57,58
 421 128 421 128 448 128 c 0,59,60
 474 128 474 128 493 109 c 256,61,62
 512 90 512 90 512 64 c 0,63,64
 512 37 512 37 493 18 c 0,65,66
 474 0 474 0 448 0 c 1,67,-1
 448 0 l 1,51,52
576 0 m 1,68,69
 549 0 549 0 530 18 c 1,70,71
 512 37 512 37 512 64 c 0,72,73
 512 90 512 90 530 109 c 0,74,75
 549 128 549 128 576 128 c 0,76,77
 602 128 602 128 621 109 c 256,78,79
 640 90 640 90 640 64 c 0,80,81
 640 37 640 37 621 18 c 0,82,83
 602 0 602 0 576 0 c 1,84,-1
 576 0 l 1,68,69
64 128 m 1,85,86
 37 128 37 128 18 146 c 1,87,88
 0 165 0 165 0 192 c 0,89,90
 0 218 0 218 18 237 c 0,91,92
 37 256 37 256 64 256 c 0,93,94
 90 256 90 256 109 237 c 256,95,96
 128 218 128 218 128 192 c 0,97,98
 128 165 128 165 109 146 c 0,99,100
 90 128 90 128 64 128 c 1,101,-1
 64 128 l 1,85,86
192 128 m 1,102,103
 165 128 165 128 146 146 c 1,104,105
 128 165 128 165 128 192 c 0,106,107
 128 218 128 218 146 237 c 0,108,109
 165 256 165 256 192 256 c 0,110,111
 218 256 218 256 237 237 c 256,112,113
 256 218 256 218 256 192 c 0,114,115
 256 165 256 165 237 146 c 0,116,117
 218 128 218 128 192 128 c 1,118,-1
 192 128 l 1,102,103
320 128 m 1,119,120
 293 128 293 128 274 146 c 1,121,122
 256 165 256 165 256 192 c 0,123,124
 256 218 256 218 274 237 c 0,125,126
 293 256 293 256 320 256 c 0,127,128
 346 256 346 256 365 237 c 256,129,130
 384 218 384 218 384 192 c 0,131,132
 384 165 384 165 365 146 c 0,133,134
 346 128 346 128 320 128 c 1,135,-1
 320 128 l 1,119,120
448 128 m 1,136,137
 421 128 421 128 402 146 c 1,138,139
 384 165 384 165 384 192 c 0,140,141
 384 218 384 218 402 237 c 0,142,143
 421 256 421 256 448 256 c 0,144,145
 474 256 474 256 493 237 c 256,146,147
 512 218 512 218 512 192 c 0,148,149
 512 165 512 165 493 146 c 0,150,151
 474 128 474 128 448 128 c 1,152,-1
 448 128 l 1,136,137
576 128 m 1,153,154
 549 128 549 128 530 146 c 1,155,156
 512 165 512 165 512 192 c 0,157,158
 512 218 512 218 530 237 c 0,159,160
 549 256 549 256 576 256 c 0,161,162
 602 256 602 256 621 237 c 256,163,164
 640 218 640 218 640 192 c 0,165,166
 640 165 640 165 621 146 c 0,167,168
 602 128 602 128 576 128 c 1,169,-1
 576 128 l 1,153,154
64 256 m 1,170,171
 37 256 37 256 18 274 c 1,172,173
 0 293 0 293 0 320 c 0,174,175
 0 346 0 346 18 365 c 0,176,177
 37 384 37 384 64 384 c 0,178,179
 90 384 90 384 109 365 c 256,180,181
 128 346 128 346 128 320 c 0,182,183
 128 293 128 293 109 274 c 0,184,185
 90 256 90 256 64 256 c 1,186,-1
 64 256 l 1,170,171
192 256 m 1,187,188
 165 256 165 256 146 274 c 1,189,190
 128 293 128 293 128 320 c 0,191,192
 128 346 128 346 146 365 c 0,193,194
 165 384 165 384 192 384 c 0,195,196
 218 384 218 384 237 365 c 256,197,198
 256 346 256 346 256 320 c 0,199,200
 256 293 256 293 237 274 c 0,201,202
 218 256 218 256 192 256 c 1,203,-1
 192 256 l 1,187,188
320 256 m 1,204,205
 293 256 293 256 274 274 c 1,206,207
 256 293 256 293 256 320 c 0,208,209
 256 346 256 346 274 365 c 0,210,211
 293 384 293 384 320 384 c 0,212,213
 346 384 346 384 365 365 c 256,214,215
 384 346 384 346 384 320 c 0,216,217
 384 293 384 293 365 274 c 0,218,219
 346 256 346 256 320 256 c 1,220,-1
 320 256 l 1,204,205
448 256 m 1,221,222
 421 256 421 256 402 274 c 1,223,224
 384 293 384 293 384 320 c 0,225,226
 384 346 384 346 402 365 c 0,227,228
 421 384 421 384 448 384 c 0,229,230
 474 384 474 384 493 365 c 256,231,232
 512 346 512 346 512 320 c 0,233,234
 512 293 512 293 493 274 c 0,235,236
 474 256 474 256 448 256 c 1,237,-1
 448 256 l 1,221,222
576 256 m 1,238,239
 549 256 549 256 530 274 c 1,240,241
 512 293 512 293 512 320 c 0,242,243
 512 346 512 346 530 365 c 0,244,245
 549 384 549 384 576 384 c 0,246,247
 602 384 602 384 621 365 c 256,248,249
 640 346 640 346 640 320 c 0,250,251
 640 293 640 293 621 274 c 0,252,253
 602 256 602 256 576 256 c 1,254,-1
 576 256 l 1,238,239
64 384 m 1,255,256
 37 384 37 384 18 402 c 1,257,258
 0 421 0 421 0 448 c 0,259,260
 0 474 0 474 18 493 c 0,261,262
 37 512 37 512 64 512 c 0,263,264
 90 512 90 512 109 493 c 256,265,266
 128 474 128 474 128 448 c 0,267,268
 128 421 128 421 109 402 c 0,269,270
 90 384 90 384 64 384 c 1,271,-1
 64 384 l 1,255,256
192 384 m 1,272,273
 165 384 165 384 146 402 c 1,274,275
 128 421 128 421 128 448 c 0,276,277
 128 474 128 474 146 493 c 0,278,279
 165 512 165 512 192 512 c 0,280,281
 218 512 218 512 237 493 c 256,282,283
 256 474 256 474 256 448 c 0,284,285
 256 421 256 421 237 402 c 0,286,287
 218 384 218 384 192 384 c 1,288,-1
 192 384 l 1,272,273
320 384 m 1,289,290
 293 384 293 384 274 402 c 1,291,292
 256 421 256 421 256 448 c 0,293,294
 256 474 256 474 274 493 c 0,295,296
 293 512 293 512 320 512 c 0,297,298
 346 512 346 512 365 493 c 256,299,300
 384 474 384 474 384 448 c 0,301,302
 384 421 384 421 365 402 c 0,303,304
 346 384 346 384 320 384 c 1,305,-1
 320 384 l 1,289,290
448 384 m 1,306,307
 421 384 421 384 402 402 c 1,308,309
 384 421 384 421 384 448 c 0,310,311
 384 474 384 474 402 493 c 0,312,313
 421 512 421 512 448 512 c 0,314,315
 474 512 474 512 493 493 c 256,316,317
 512 474 512 474 512 448 c 0,318,319
 512 421 512 421 493 402 c 0,320,321
 474 384 474 384 448 384 c 1,322,-1
 448 384 l 1,306,307
576 384 m 1,323,324
 549 384 549 384 530 402 c 1,325,326
 512 421 512 421 512 448 c 0,327,328
 512 474 512 474 530 493 c 0,329,330
 549 512 549 512 576 512 c 0,331,332
 602 512 602 512 621 493 c 256,333,334
 640 474 640 474 640 448 c 0,335,336
 640 421 640 421 621 402 c 0,337,338
 602 384 602 384 576 384 c 1,339,-1
 576 384 l 1,323,324
64 512 m 1,340,341
 37 512 37 512 18 530 c 1,342,343
 0 549 0 549 0 576 c 0,344,345
 0 602 0 602 18 621 c 0,346,347
 37 640 37 640 64 640 c 0,348,349
 90 640 90 640 109 621 c 256,350,351
 128 602 128 602 128 576 c 0,352,353
 128 549 128 549 109 530 c 0,354,355
 90 512 90 512 64 512 c 1,356,-1
 64 512 l 1,340,341
192 512 m 1,357,358
 165 512 165 512 146 530 c 1,359,360
 128 549 128 549 128 576 c 0,361,362
 128 602 128 602 146 621 c 0,363,364
 165 640 165 640 192 640 c 0,365,366
 218 640 218 640 237 621 c 256,367,368
 256 602 256 602 256 576 c 0,369,370
 256 549 256 549 237 530 c 0,371,372
 218 512 218 512 192 512 c 1,373,-1
 192 512 l 1,357,358
320 512 m 1,374,375
 293 512 293 512 274 530 c 1,376,377
 256 549 256 549 256 576 c 0,378,379
 256 602 256 602 274 621 c 0,380,381
 293 640 293 640 320 640 c 0,382,383
 346 640 346 640 365 621 c 256,384,385
 384 602 384 602 384 576 c 0,386,387
 384 549 384 549 365 530 c 0,388,389
 346 512 346 512 320 512 c 1,390,-1
 320 512 l 1,374,375
448 512 m 1,391,392
 421 512 421 512 402 530 c 1,393,394
 384 549 384 549 384 576 c 0,395,396
 384 602 384 602 402 621 c 0,397,398
 421 640 421 640 448 640 c 0,399,400
 474 640 474 640 493 621 c 256,401,402
 512 602 512 602 512 576 c 0,403,404
 512 549 512 549 493 530 c 0,405,406
 474 512 474 512 448 512 c 1,407,-1
 448 512 l 1,391,392
576 512 m 1,408,409
 549 512 549 512 530 530 c 1,410,411
 512 549 512 549 512 576 c 0,412,413
 512 602 512 602 530 621 c 0,414,415
 549 640 549 640 576 640 c 0,416,417
 602 640 602 640 621 621 c 256,418,419
 640 602 640 602 640 576 c 0,420,421
 640 549 640 549 621 530 c 0,422,423
 602 512 602 512 576 512 c 1,424,-1
 576 512 l 1,408,409
64 640 m 1,425,426
 37 640 37 640 18 658 c 1,427,428
 0 677 0 677 0 704 c 0,429,430
 0 730 0 730 18 749 c 0,431,432
 37 768 37 768 64 768 c 0,433,434
 90 768 90 768 109 749 c 256,435,436
 128 730 128 730 128 704 c 0,437,438
 128 677 128 677 109 658 c 0,439,440
 90 640 90 640 64 640 c 1,441,-1
 64 640 l 1,425,426
192 640 m 1,442,443
 165 640 165 640 146 658 c 1,444,445
 128 677 128 677 128 704 c 0,446,447
 128 730 128 730 146 749 c 0,448,449
 165 768 165 768 192 768 c 0,450,451
 218 768 218 768 237 749 c 256,452,453
 256 730 256 730 256 704 c 0,454,455
 256 677 256 677 237 658 c 0,456,457
 218 640 218 640 192 640 c 1,458,-1
 192 640 l 1,442,443
320 640 m 1,459,460
 293 640 293 640 274 658 c 1,461,462
 256 677 256 677 256 704 c 0,463,464
 256 730 256 730 274 749 c 0,465,466
 293 768 293 768 320 768 c 0,467,468
 346 768 346 768 365 749 c 256,469,470
 384 730 384 730 384 704 c 0,471,472
 384 677 384 677 365 658 c 0,473,474
 346 640 346 640 320 640 c 1,475,-1
 320 640 l 1,459,460
448 640 m 1,476,477
 421 640 421 640 402 658 c 1,478,479
 384 677 384 677 384 704 c 0,480,481
 384 730 384 730 402 749 c 0,482,483
 421 768 421 768 448 768 c 0,484,485
 474 768 474 768 493 749 c 256,486,487
 512 730 512 730 512 704 c 0,488,489
 512 677 512 677 493 658 c 0,490,491
 474 640 474 640 448 640 c 1,492,-1
 448 640 l 1,476,477
576 640 m 1,493,494
 549 640 549 640 530 658 c 1,495,496
 512 677 512 677 512 704 c 0,497,498
 512 730 512 730 530 749 c 0,499,500
 549 768 549 768 576 768 c 0,501,502
 602 768 602 768 621 749 c 256,503,504
 640 730 640 730 640 704 c 0,505,506
 640 677 640 677 621 658 c 0,507,508
 602 640 602 640 576 640 c 1,509,-1
 576 640 l 1,493,494
64 768 m 1,510,511
 37 768 37 768 18 786 c 1,512,513
 0 805 0 805 0 832 c 0,514,515
 0 858 0 858 18 877 c 0,516,517
 37 896 37 896 64 896 c 0,518,519
 90 896 90 896 109 877 c 256,520,521
 128 858 128 858 128 832 c 0,522,523
 128 805 128 805 109 786 c 0,524,525
 90 768 90 768 64 768 c 1,526,-1
 64 768 l 1,510,511
192 768 m 1,527,528
 165 768 165 768 146 786 c 1,529,530
 128 805 128 805 128 832 c 0,531,532
 128 858 128 858 146 877 c 0,533,534
 165 896 165 896 192 896 c 0,535,536
 218 896 218 896 237 877 c 256,537,538
 256 858 256 858 256 832 c 0,539,540
 256 805 256 805 237 786 c 0,541,542
 218 768 218 768 192 768 c 1,543,-1
 192 768 l 1,527,528
320 768 m 1,544,545
 293 768 293 768 274 786 c 1,546,547
 256 805 256 805 256 832 c 0,548,549
 256 858 256 858 274 877 c 0,550,551
 293 896 293 896 320 896 c 0,552,553
 346 896 346 896 365 877 c 256,554,555
 384 858 384 858 384 832 c 0,556,557
 384 805 384 805 365 786 c 0,558,559
 346 768 346 768 320 768 c 1,560,-1
 320 768 l 1,544,545
448 768 m 1,561,562
 421 768 421 768 402 786 c 1,563,564
 384 805 384 805 384 832 c 0,565,566
 384 858 384 858 402 877 c 0,567,568
 421 896 421 896 448 896 c 0,569,570
 474 896 474 896 493 877 c 256,571,572
 512 858 512 858 512 832 c 0,573,574
 512 805 512 805 493 786 c 0,575,576
 474 768 474 768 448 768 c 1,577,-1
 448 768 l 1,561,562
576 768 m 1,578,579
 549 768 549 768 530 786 c 1,580,581
 512 805 512 805 512 832 c 0,582,583
 512 858 512 858 530 877 c 0,584,585
 549 896 549 896 576 896 c 0,586,587
 602 896 602 896 621 877 c 256,588,589
 640 858 640 858 640 832 c 0,590,591
 640 805 640 805 621 786 c 0,592,593
 602 768 602 768 576 768 c 1,594,-1
 576 768 l 1,578,579
EndSplineSet
Validated: 5
EndChar

StartChar: dollar
Encoding: 36 36 7
Width: 768
Flags: W
LayerCount: 2
Fore
SplineSet
192 0 m 1,0,1
 165 0 165 0 146 18 c 1,2,3
 128 37 128 37 128 64 c 0,4,5
 128 90 128 90 146 109 c 0,6,7
 165 128 165 128 192 128 c 0,8,9
 218 128 218 128 237 109 c 256,10,11
 256 90 256 90 256 64 c 0,12,13
 256 37 256 37 237 18 c 0,14,15
 218 0 218 0 192 0 c 1,16,-1
 192 0 l 1,0,1
320 0 m 1,17,18
 293 0 293 0 274 18 c 1,19,20
 256 37 256 37 256 64 c 0,21,22
 256 90 256 90 274 109 c 0,23,24
 293 128 293 128 320 128 c 0,25,26
 346 128 346 128 365 109 c 256,27,28
 384 90 384 90 384 64 c 0,29,30
 384 37 384 37 365 18 c 0,31,32
 346 0 346 0 320 0 c 1,33,-1
 320 0 l 1,17,18
448 0 m 1,34,35
 421 0 421 0 402 18 c 1,36,37
 384 37 384 37 384 64 c 0,38,39
 384 90 384 90 402 109 c 0,40,41
 421 128 421 128 448 128 c 0,42,43
 474 128 474 128 493 109 c 256,44,45
 512 90 512 90 512 64 c 0,46,47
 512 37 512 37 493 18 c 0,48,49
 474 0 474 0 448 0 c 1,50,-1
 448 0 l 1,34,35
64 128 m 1,51,52
 37 128 37 128 18 146 c 1,53,54
 0 165 0 165 0 192 c 0,55,56
 0 218 0 218 18 237 c 0,57,58
 37 256 37 256 64 256 c 0,59,60
 90 256 90 256 109 237 c 256,61,62
 128 218 128 218 128 192 c 0,63,64
 128 165 128 165 109 146 c 0,65,66
 90 128 90 128 64 128 c 1,67,-1
 64 128 l 1,51,52
320 128 m 1,68,69
 293 128 293 128 274 146 c 1,70,71
 256 165 256 165 256 192 c 0,72,73
 256 218 256 218 274 237 c 0,74,75
 293 256 293 256 320 256 c 0,76,77
 346 256 346 256 365 237 c 256,78,79
 384 218 384 218 384 192 c 0,80,81
 384 165 384 165 365 146 c 0,82,83
 346 128 346 128 320 128 c 1,84,-1
 320 128 l 1,68,69
576 128 m 1,85,86
 549 128 549 128 530 146 c 1,87,88
 512 165 512 165 512 192 c 0,89,90
 512 218 512 218 530 237 c 0,91,92
 549 256 549 256 576 256 c 0,93,94
 602 256 602 256 621 237 c 256,95,96
 640 218 640 218 640 192 c 0,97,98
 640 165 640 165 621 146 c 0,99,100
 602 128 602 128 576 128 c 1,101,-1
 576 128 l 1,85,86
320 256 m 1,102,103
 293 256 293 256 274 274 c 1,104,105
 256 293 256 293 256 320 c 0,106,107
 256 346 256 346 274 365 c 0,108,109
 293 384 293 384 320 384 c 0,110,111
 346 384 346 384 365 365 c 256,112,113
 384 346 384 346 384 320 c 0,114,115
 384 293 384 293 365 274 c 0,116,117
 346 256 346 256 320 256 c 1,118,-1
 320 256 l 1,102,103
576 256 m 1,119,120
 549 256 549 256 530 274 c 1,121,122
 512 293 512 293 512 320 c 0,123,124
 512 346 512 346 530 365 c 0,125,126
 549 384 549 384 576 384 c 0,127,128
 602 384 602 384 621 365 c 256,129,130
 640 346 640 346 640 320 c 0,131,132
 640 293 640 293 621 274 c 0,133,134
 602 256 602 256 576 256 c 1,135,-1
 576 256 l 1,119,120
192 384 m 1,136,137
 165 384 165 384 146 402 c 1,138,139
 128 421 128 421 128 448 c 0,140,141
 128 474 128 474 146 493 c 0,142,143
 165 512 165 512 192 512 c 0,144,145
 218 512 218 512 237 493 c 256,146,147
 256 474 256 474 256 448 c 0,148,149
 256 421 256 421 237 402 c 0,150,151
 218 384 218 384 192 384 c 1,152,-1
 192 384 l 1,136,137
320 384 m 1,153,154
 293 384 293 384 274 402 c 1,155,156
 256 421 256 421 256 448 c 0,157,158
 256 474 256 474 274 493 c 0,159,160
 293 512 293 512 320 512 c 0,161,162
 346 512 346 512 365 493 c 256,163,164
 384 474 384 474 384 448 c 0,165,166
 384 421 384 421 365 402 c 0,167,168
 346 384 346 384 320 384 c 1,169,-1
 320 384 l 1,153,154
448 384 m 1,170,171
 421 384 421 384 402 402 c 1,172,173
 384 421 384 421 384 448 c 0,174,175
 384 474 384 474 402 493 c 0,176,177
 421 512 421 512 448 512 c 0,178,179
 474 512 474 512 493 493 c 256,180,181
 512 474 512 474 512 448 c 0,182,183
 512 421 512 421 493 402 c 0,184,185
 474 384 474 384 448 384 c 1,186,-1
 448 384 l 1,170,171
64 512 m 1,187,188
 37 512 37 512 18 530 c 1,189,190
 0 549 0 549 0 576 c 0,191,192
 0 602 0 602 18 621 c 0,193,194
 37 640 37 640 64 640 c 0,195,196
 90 640 90 640 109 621 c 256,197,198
 128 602 128 602 128 576 c 0,199,200
 128 549 128 549 109 530 c 0,201,202
 90 512 90 512 64 512 c 1,203,-1
 64 512 l 1,187,188
320 512 m 1,204,205
 293 512 293 512 274 530 c 1,206,207
 256 549 256 549 256 576 c 0,208,209
 256 602 256 602 274 621 c 0,210,211
 293 640 293 640 320 640 c 0,212,213
 346 640 346 640 365 621 c 256,214,215
 384 602 384 602 384 576 c 0,216,217
 384 549 384 549 365 530 c 0,218,219
 346 512 346 512 320 512 c 1,220,-1
 320 512 l 1,204,205
64 640 m 1,221,222
 37 640 37 640 18 658 c 1,223,224
 0 677 0 677 0 704 c 0,225,226
 0 730 0 730 18 749 c 0,227,228
 37 768 37 768 64 768 c 0,229,230
 90 768 90 768 109 749 c 256,231,232
 128 730 128 730 128 704 c 0,233,234
 128 677 128 677 109 658 c 0,235,236
 90 640 90 640 64 640 c 1,237,-1
 64 640 l 1,221,222
320 640 m 1,238,239
 293 640 293 640 274 658 c 1,240,241
 256 677 256 677 256 704 c 0,242,243
 256 730 256 730 274 749 c 0,244,245
 293 768 293 768 320 768 c 0,246,247
 346 768 346 768 365 749 c 256,248,249
 384 730 384 730 384 704 c 0,250,251
 384 677 384 677 365 658 c 0,252,253
 346 640 346 640 320 640 c 1,254,-1
 320 640 l 1,238,239
576 640 m 1,255,256
 549 640 549 640 530 658 c 1,257,258
 512 677 512 677 512 704 c 0,259,260
 512 730 512 730 530 749 c 0,261,262
 549 768 549 768 576 768 c 0,263,264
 602 768 602 768 621 749 c 256,265,266
 640 730 640 730 640 704 c 0,267,268
 640 677 640 677 621 658 c 0,269,270
 602 640 602 640 576 640 c 1,271,-1
 576 640 l 1,255,256
192 768 m 1,272,273
 165 768 165 768 146 786 c 1,274,275
 128 805 128 805 128 832 c 0,276,277
 128 858 128 858 146 877 c 0,278,279
 165 896 165 896 192 896 c 0,280,281
 218 896 218 896 237 877 c 256,282,283
 256 858 256 858 256 832 c 0,284,285
 256 805 256 805 237 786 c 0,286,287
 218 768 218 768 192 768 c 1,288,-1
 192 768 l 1,272,273
320 768 m 1,289,290
 293 768 293 768 274 786 c 1,291,292
 256 805 256 805 256 832 c 0,293,294
 256 858 256 858 274 877 c 0,295,296
 293 896 293 896 320 896 c 0,297,298
 346 896 346 896 365 877 c 256,299,300
 384 858 384 858 384 832 c 0,301,302
 384 805 384 805 365 786 c 0,303,304
 346 768 346 768 320 768 c 1,305,-1
 320 768 l 1,289,290
448 768 m 1,306,307
 421 768 421 768 402 786 c 1,308,309
 384 805 384 805 384 832 c 0,310,311
 384 858 384 858 402 877 c 0,312,313
 421 896 421 896 448 896 c 0,314,315
 474 896 474 896 493 877 c 256,316,317
 512 858 512 858 512 832 c 0,318,319
 512 805 512 805 493 786 c 0,320,321
 474 768 474 768 448 768 c 1,322,-1
 448 768 l 1,306,307
EndSplineSet
Validated: 5
EndChar

StartChar: percent
Encoding: 37 37 8
Width: 768
Flags: W
LayerCount: 2
Fore
SplineSet
64 0 m 1,0,1
 37 0 37 0 18 18 c 1,2,3
 0 37 0 37 0 64 c 0,4,5
 0 90 0 90 18 109 c 0,6,7
 37 128 37 128 64 128 c 0,8,9
 90 128 90 128 109 109 c 256,10,11
 128 90 128 90 128 64 c 0,12,13
 128 37 128 37 109 18 c 0,14,15
 90 0 90 0 64 0 c 1,16,-1
 64 0 l 1,0,1
448 0 m 1,17,18
 421 0 421 0 402 18 c 1,19,20
 384 37 384 37 384 64 c 0,21,22
 384 90 384 90 402 109 c 0,23,24
 421 128 421 128 448 128 c 0,25,26
 474 128 474 128 493 109 c 256,27,28
 512 90 512 90 512 64 c 0,29,30
 512 37 512 37 493 18 c 0,31,32
 474 0 474 0 448 0 c 1,33,-1
 448 0 l 1,17,18
576 0 m 1,34,35
 549 0 549 0 530 18 c 1,36,37
 512 37 512 37 512 64 c 0,38,39
 512 90 512 90 530 109 c 0,40,41
 549 128 549 128 576 128 c 0,42,43
 602 128 602 128 621 109 c 256,44,45
 640 90 640 90 640 64 c 0,46,47
 640 37 640 37 621 18 c 0,48,49
 602 0 602 0 576 0 c 1,50,-1
 576 0 l 1,34,35
64 128 m 1,51,52
 37 128 37 128 18 146 c 1,53,54
 0 165 0 165 0 192 c 0,55,56
 0 218 0 218 18 237 c 0,57,58
 37 256 37 256 64 256 c 0,59,60
 90 256 90 256 109 237 c 256,61,62
 128 218 128 218 128 192 c 0,63,64
 128 165 128 165 109 146 c 0,65,66
 90 128 90 128 64 128 c 1,67,-1
 64 128 l 1,51,52
448 128 m 1,68,69
 421 128 421 128 402 146 c 1,70,71
 384 165 384 165 384 192 c 0,72,73
 384 218 384 218 402 237 c 0,74,75
 421 256 421 256 448 256 c 0,76,77
 474 256 474 256 493 237 c 256,78,79
 512 218 512 218 512 192 c 0,80,81
 512 165 512 165 493 146 c 0,82,83
 474 128 474 128 448 128 c 1,84,-1
 448 128 l 1,68,69
576 128 m 1,85,86
 549 128 549 128 530 146 c 1,87,88
 512 165 512 165 512 192 c 0,89,90
 512 218 512 218 530 237 c 0,91,92
 549 256 549 256 576 256 c 0,93,94
 602 256 602 256 621 237 c 256,95,96
 640 218 640 218 640 192 c 0,97,98
 640 165 640 165 621 146 c 0,99,100
 602 128 602 128 576 128 c 1,101,-1
 576 128 l 1,85,86
192 256 m 1,102,103
 165 256 165 256 146 274 c 1,104,105
 128 293 128 293 128 320 c 0,106,107
 128 346 128 346 146 365 c 0,108,109
 165 384 165 384 192 384 c 0,110,111
 218 384 218 384 237 365 c 256,112,113
 256 346 256 346 256 320 c 0,114,115
 256 293 256 293 237 274 c 0,116,117
 218 256 218 256 192 256 c 1,118,-1
 192 256 l 1,102,103
320 384 m 1,119,120
 293 384 293 384 274 402 c 1,121,122
 256 421 256 421 256 448 c 0,123,124
 256 474 256 474 274 493 c 0,125,126
 293 512 293 512 320 512 c 0,127,128
 346 512 346 512 365 493 c 256,129,130
 384 474 384 474 384 448 c 0,131,132
 384 421 384 421 365 402 c 0,133,134
 346 384 346 384 320 384 c 1,135,-1
 320 384 l 1,119,120
448 512 m 1,136,137
 421 512 421 512 402 530 c 1,138,139
 384 549 384 549 384 576 c 0,140,141
 384 602 384 602 402 621 c 0,142,143
 421 640 421 640 448 640 c 0,144,145
 474 640 474 640 493 621 c 256,146,147
 512 602 512 602 512 576 c 0,148,149
 512 549 512 549 493 530 c 0,150,151
 474 512 474 512 448 512 c 1,152,-1
 448 512 l 1,136,137
64 640 m 1,153,154
 37 640 37 640 18 658 c 1,155,156
 0 677 0 677 0 704 c 0,157,158
 0 730 0 730 18 749 c 0,159,160
 37 768 37 768 64 768 c 0,161,162
 90 768 90 768 109 749 c 256,163,164
 128 730 128 730 128 704 c 0,165,166
 128 677 128 677 109 658 c 0,167,168
 90 640 90 640 64 640 c 1,169,-1
 64 640 l 1,153,154
192 640 m 1,170,171
 165 640 165 640 146 658 c 1,172,173
 128 677 128 677 128 704 c 0,174,175
 128 730 128 730 146 749 c 0,176,177
 165 768 165 768 192 768 c 0,178,179
 218 768 218 768 237 749 c 256,180,181
 256 730 256 730 256 704 c 0,182,183
 256 677 256 677 237 658 c 0,184,185
 218 640 218 640 192 640 c 1,186,-1
 192 640 l 1,170,171
576 640 m 1,187,188
 549 640 549 640 530 658 c 1,189,190
 512 677 512 677 512 704 c 0,191,192
 512 730 512 730 530 749 c 0,193,194
 549 768 549 768 576 768 c 0,195,196
 602 768 602 768 621 749 c 256,197,198
 640 730 640 730 640 704 c 0,199,200
 640 677 640 677 621 658 c 0,201,202
 602 640 602 640 576 640 c 1,203,-1
 576 640 l 1,187,188
64 768 m 1,204,205
 37 768 37 768 18 786 c 1,206,207
 0 805 0 805 0 832 c 0,208,209
 0 858 0 858 18 877 c 0,210,211
 37 896 37 896 64 896 c 0,212,213
 90 896 90 896 109 877 c 256,214,215
 128 858 128 858 128 832 c 0,216,217
 128 805 128 805 109 786 c 0,218,219
 90 768 90 768 64 768 c 1,220,-1
 64 768 l 1,204,205
192 768 m 1,221,222
 165 768 165 768 146 786 c 1,223,224
 128 805 128 805 128 832 c 0,225,226
 128 858 128 858 146 877 c 0,227,228
 165 896 165 896 192 896 c 0,229,230
 218 896 218 896 237 877 c 256,231,232
 256 858 256 858 256 832 c 0,233,234
 256 805 256 805 237 786 c 0,235,236
 218 768 218 768 192 768 c 1,237,-1
 192 768 l 1,221,222
576 768 m 1,238,239
 549 768 549 768 530 786 c 1,240,241
 512 805 512 805 512 832 c 0,242,243
 512 858 512 858 530 877 c 0,244,245
 549 896 549 896 576 896 c 0,246,247
 602 896 602 896 621 877 c 256,248,249
 640 858 640 858 640 832 c 0,250,251
 640 805 640 805 621 786 c 0,252,253
 602 768 602 768 576 768 c 1,254,-1
 576 768 l 1,238,239
EndSplineSet
Validated: 5
EndChar

StartChar: ampersand
Encoding: 38 38 9
Width: 768
Flags: W
LayerCount: 2
Fore
SplineSet
192 0 m 1,0,1
 165 0 165 0 146 18 c 1,2,3
 128 37 128 37 128 64 c 0,4,5
 128 90 128 90 146 109 c 0,6,7
 165 128 165 128 192 128 c 0,8,9
 218 128 218 128 237 109 c 256,10,11
 256 90 256 90 256 64 c 0,12,13
 256 37 256 37 237 18 c 0,14,15
 218 0 218 0 192 0 c 1,16,-1
 192 0 l 1,0,1
320 0 m 1,17,18
 293 0 293 0 274 18 c 1,19,20
 256 37 256 37 256 64 c 0,21,22
 256 90 256 90 274 109 c 0,23,24
 293 128 293 128 320 128 c 0,25,26
 346 128 346 128 365 109 c 256,27,28
 384 90 384 90 384 64 c 0,29,30
 384 37 384 37 365 18 c 0,31,32
 346 0 346 0 320 0 c 1,33,-1
 320 0 l 1,17,18
576 0 m 1,34,35
 549 0 549 0 530 18 c 1,36,37
 512 37 512 37 512 64 c 0,38,39
 512 90 512 90 530 109 c 0,40,41
 549 128 549 128 576 128 c 0,42,43
 602 128 602 128 621 109 c 256,44,45
 640 90 640 90 640 64 c 0,46,47
 640 37 640 37 621 18 c 0,48,49
 602 0 602 0 576 0 c 1,50,-1
 576 0 l 1,34,35
64 128 m 1,51,52
 37 128 37 128 18 146 c 1,53,54
 0 165 0 165 0 192 c 0,55,56
 0 218 0 218 18 237 c 0,57,58
 37 256 37 256 64 256 c 0,59,60
 90 256 90 256 109 237 c 256,61,62
 128 218 128 218 128 192 c 0,63,64
 128 165 128 165 109 146 c 0,65,66
 90 128 90 128 64 128 c 1,67,-1
 64 128 l 1,51,52
448 128 m 1,68,69
 421 128 421 128 402 146 c 1,70,71
 384 165 384 165 384 192 c 0,72,73
 384 218 384 218 402 237 c 0,74,75
 421 256 421 256 448 256 c 0,76,77
 474 256 474 256 493 237 c 256,78,79
 512 218 512 218 512 192 c 0,80,81
 512 165 512 165 493 146 c 0,82,83
 474 128 474 128 448 128 c 1,84,-1
 448 128 l 1,68,69
64 256 m 1,85,86
 37 256 37 256 18 274 c 1,87,88
 0 293 0 293 0 320 c 0,89,90
 0 346 0 346 18 365 c 0,91,92
 37 384 37 384 64 384 c 0,93,94
 90 384 90 384 109 365 c 256,95,96
 128 346 128 346 128 320 c 0,97,98
 128 293 128 293 109 274 c 0,99,100
 90 256 90 256 64 256 c 1,101,-1
 64 256 l 1,85,86
448 256 m 1,102,103
 421 256 421 256 402 274 c 1,104,105
 384 293 384 293 384 320 c 0,106,107
 384 346 384 346 402 365 c 0,108,109
 421 384 421 384 448 384 c 0,110,111
 474 384 474 384 493 365 c 256,112,113
 512 346 512 346 512 320 c 0,114,115
 512 293 512 293 493 274 c 0,116,117
 474 256 474 256 448 256 c 1,118,-1
 448 256 l 1,102,103
192 384 m 1,119,120
 165 384 165 384 146 402 c 1,121,122
 128 421 128 421 128 448 c 0,123,124
 128 474 128 474 146 493 c 0,125,126
 165 512 165 512 192 512 c 0,127,128
 218 512 218 512 237 493 c 256,129,130
 256 474 256 474 256 448 c 0,131,132
 256 421 256 421 237 402 c 0,133,134
 218 384 218 384 192 384 c 1,135,-1
 192 384 l 1,119,120
320 384 m 1,136,137
 293 384 293 384 274 402 c 1,138,139
 256 421 256 421 256 448 c 0,140,141
 256 474 256 474 274 493 c 0,142,143
 293 512 293 512 320 512 c 0,144,145
 346 512 346 512 365 493 c 256,146,147
 384 474 384 474 384 448 c 0,148,149
 384 421 384 421 365 402 c 0,150,151
 346 384 346 384 320 384 c 1,152,-1
 320 384 l 1,136,137
448 384 m 1,153,154
 421 384 421 384 402 402 c 1,155,156
 384 421 384 421 384 448 c 0,157,158
 384 474 384 474 402 493 c 0,159,160
 421 512 421 512 448 512 c 0,161,162
 474 512 474 512 493 493 c 256,163,164
 512 474 512 474 512 448 c 0,165,166
 512 421 512 421 493 402 c 0,167,168
 474 384 474 384 448 384 c 1,169,-1
 448 384 l 1,153,154
576 384 m 1,170,171
 549 384 549 384 530 402 c 1,172,173
 512 421 512 421 512 448 c 0,174,175
 512 474 512 474 530 493 c 0,176,177
 549 512 549 512 576 512 c 0,178,179
 602 512 602 512 621 493 c 256,180,181
 640 474 640 474 640 448 c 0,182,183
 640 421 640 421 621 402 c 0,184,185
 602 384 602 384 576 384 c 1,186,-1
 576 384 l 1,170,171
192 512 m 1,187,188
 165 512 165 512 146 530 c 1,189,190
 128 549 128 549 128 576 c 0,191,192
 128 602 128 602 146 621 c 0,193,194
 165 640 165 640 192 640 c 0,195,196
 218 640 218 640 237 621 c 256,197,198
 256 602 256 602 256 576 c 0,199,200
 256 549 256 549 237 530 c 0,201,202
 218 512 218 512 192 512 c 1,203,-1
 192 512 l 1,187,188
448 512 m 1,204,205
 421 512 421 512 402 530 c 1,206,207
 384 549 384 549 384 576 c 0,208,209
 384 602 384 602 402 621 c 0,210,211
 421 640 421 640 448 640 c 0,212,213
 474 640 474 640 493 621 c 256,214,215
 512 602 512 602 512 576 c 0,216,217
 512 549 512 549 493 530 c 0,218,219
 474 512 474 512 448 512 c 1,220,-1
 448 512 l 1,204,205
192 640 m 1,221,222
 165 640 165 640 146 658 c 1,223,224
 128 677 128 677 128 704 c 0,225,226
 128 730 128 730 146 749 c 0,227,228
 165 768 165 768 192 768 c 0,229,230
 218 768 218 768 237 749 c 256,231,232
 256 730 256 730 256 704 c 0,233,234
 256 677 256 677 237 658 c 0,235,236
 218 640 218 640 192 640 c 1,237,-1
 192 640 l 1,221,222
448 640 m 1,238,239
 421 640 421 640 402 658 c 1,240,241
 384 677 384 677 384 704 c 0,242,243
 384 730 384 730 402 749 c 0,244,245
 421 768 421 768 448 768 c 0,246,247
 474 768 474 768 493 749 c 256,248,249
 512 730 512 730 512 704 c 0,250,251
 512 677 512 677 493 658 c 0,252,253
 474 640 474 640 448 640 c 1,254,-1
 448 640 l 1,238,239
320 768 m 1,255,256
 293 768 293 768 274 786 c 1,257,258
 256 805 256 805 256 832 c 0,259,260
 256 858 256 858 274 877 c 0,261,262
 293 896 293 896 320 896 c 0,263,264
 346 896 346 896 365 877 c 256,265,266
 384 858 384 858 384 832 c 0,267,268
 384 805 384 805 365 786 c 0,269,270
 346 768 346 768 320 768 c 1,271,-1
 320 768 l 1,255,256
EndSplineSet
Validated: 5
EndChar

StartChar: quotesingle
Encoding: 39 39 10
Width: 768
Flags: W
LayerCount: 2
Fore
SplineSet
320 512 m 5,0,1
 293 512 293 512 274 530 c 5,2,3
 256 549 256 549 256 576 c 4,4,5
 256 602 256 602 274 621 c 4,6,7
 293 640 293 640 320 640 c 4,8,9
 346 640 346 640 365 621 c 260,10,11
 384 602 384 602 384 576 c 4,12,13
 384 549 384 549 365 530 c 4,14,15
 346 512 346 512 320 512 c 5,16,-1
 320 512 l 5,0,1
448 640 m 5,17,18
 421 640 421 640 402 658 c 5,19,20
 384 677 384 677 384 704 c 4,21,22
 384 730 384 730 402 749 c 4,23,24
 421 768 421 768 448 768 c 4,25,26
 474 768 474 768 493 749 c 260,27,28
 512 730 512 730 512 704 c 4,29,30
 512 677 512 677 493 658 c 4,31,32
 474 640 474 640 448 640 c 5,33,-1
 448 640 l 5,17,18
448 768 m 5,34,35
 421 768 421 768 402 786 c 5,36,37
 384 805 384 805 384 832 c 4,38,39
 384 858 384 858 402 877 c 4,40,41
 421 896 421 896 448 896 c 4,42,43
 474 896 474 896 493 877 c 260,44,45
 512 858 512 858 512 832 c 4,46,47
 512 805 512 805 493 786 c 4,48,49
 474 768 474 768 448 768 c 5,50,-1
 448 768 l 5,34,35
EndSplineSet
Validated: 5
EndChar

StartChar: parenleft
Encoding: 40 40 11
Width: 768
Flags: W
LayerCount: 2
Fore
SplineSet
448 0 m 1,0,1
 421 0 421 0 402 18 c 1,2,3
 384 37 384 37 384 64 c 0,4,5
 384 90 384 90 402 109 c 0,6,7
 421 128 421 128 448 128 c 0,8,9
 474 128 474 128 493 109 c 256,10,11
 512 90 512 90 512 64 c 0,12,13
 512 37 512 37 493 18 c 0,14,15
 474 0 474 0 448 0 c 1,16,-1
 448 0 l 1,0,1
320 128 m 1,17,18
 293 128 293 128 274 146 c 1,19,20
 256 165 256 165 256 192 c 0,21,22
 256 218 256 218 274 237 c 0,23,24
 293 256 293 256 320 256 c 0,25,26
 346 256 346 256 365 237 c 256,27,28
 384 218 384 218 384 192 c 0,29,30
 384 165 384 165 365 146 c 0,31,32
 346 128 346 128 320 128 c 1,33,-1
 320 128 l 1,17,18
320 256 m 1,34,35
 293 256 293 256 274 274 c 1,36,37
 256 293 256 293 256 320 c 0,38,39
 256 346 256 346 274 365 c 0,40,41
 293 384 293 384 320 384 c 0,42,43
 346 384 346 384 365 365 c 256,44,45
 384 346 384 346 384 320 c 0,46,47
 384 293 384 293 365 274 c 0,48,49
 346 256 346 256 320 256 c 1,50,-1
 320 256 l 1,34,35
320 384 m 1,51,52
 293 384 293 384 274 402 c 1,53,54
 256 421 256 421 256 448 c 0,55,56
 256 474 256 474 274 493 c 0,57,58
 293 512 293 512 320 512 c 0,59,60
 346 512 346 512 365 493 c 256,61,62
 384 474 384 474 384 448 c 0,63,64
 384 421 384 421 365 402 c 0,65,66
 346 384 346 384 320 384 c 1,67,-1
 320 384 l 1,51,52
320 512 m 1,68,69
 293 512 293 512 274 530 c 1,70,71
 256 549 256 549 256 576 c 0,72,73
 256 602 256 602 274 621 c 0,74,75
 293 640 293 640 320 640 c 0,76,77
 346 640 346 640 365 621 c 256,78,79
 384 602 384 602 384 576 c 0,80,81
 384 549 384 549 365 530 c 0,82,83
 346 512 346 512 320 512 c 1,84,-1
 320 512 l 1,68,69
320 640 m 1,85,86
 293 640 293 640 274 658 c 1,87,88
 256 677 256 677 256 704 c 0,89,90
 256 730 256 730 274 749 c 0,91,92
 293 768 293 768 320 768 c 0,93,94
 346 768 346 768 365 749 c 256,95,96
 384 730 384 730 384 704 c 0,97,98
 384 677 384 677 365 658 c 0,99,100
 346 640 346 640 320 640 c 1,101,-1
 320 640 l 1,85,86
448 768 m 1,102,103
 421 768 421 768 402 786 c 1,104,105
 384 805 384 805 384 832 c 0,106,107
 384 858 384 858 402 877 c 0,108,109
 421 896 421 896 448 896 c 0,110,111
 474 896 474 896 493 877 c 256,112,113
 512 858 512 858 512 832 c 0,114,115
 512 805 512 805 493 786 c 0,116,117
 474 768 474 768 448 768 c 1,118,-1
 448 768 l 1,102,103
EndSplineSet
Validated: 5
EndChar

StartChar: parenright
Encoding: 41 41 12
Width: 768
Flags: W
LayerCount: 2
Fore
SplineSet
384 0 m 1,0,1
 357 0 357 0 338 18 c 1,2,3
 320 37 320 37 320 64 c 0,4,5
 320 90 320 90 338 109 c 0,6,7
 357 128 357 128 384 128 c 0,8,9
 410 128 410 128 429 109 c 256,10,11
 448 90 448 90 448 64 c 0,12,13
 448 37 448 37 429 18 c 0,14,15
 410 0 410 0 384 0 c 1,16,-1
 384 0 l 1,0,1
512 128 m 1,17,18
 485 128 485 128 466 146 c 1,19,20
 448 165 448 165 448 192 c 0,21,22
 448 218 448 218 466 237 c 0,23,24
 485 256 485 256 512 256 c 0,25,26
 538 256 538 256 557 237 c 256,27,28
 576 218 576 218 576 192 c 0,29,30
 576 165 576 165 557 146 c 0,31,32
 538 128 538 128 512 128 c 1,33,-1
 512 128 l 1,17,18
512 256 m 1,34,35
 485 256 485 256 466 274 c 1,36,37
 448 293 448 293 448 320 c 0,38,39
 448 346 448 346 466 365 c 0,40,41
 485 384 485 384 512 384 c 0,42,43
 538 384 538 384 557 365 c 256,44,45
 576 346 576 346 576 320 c 0,46,47
 576 293 576 293 557 274 c 0,48,49
 538 256 538 256 512 256 c 1,50,-1
 512 256 l 1,34,35
512 384 m 1,51,52
 485 384 485 384 466 402 c 1,53,54
 448 421 448 421 448 448 c 0,55,56
 448 474 448 474 466 493 c 0,57,58
 485 512 485 512 512 512 c 0,59,60
 538 512 538 512 557 493 c 256,61,62
 576 474 576 474 576 448 c 0,63,64
 576 421 576 421 557 402 c 0,65,66
 538 384 538 384 512 384 c 1,67,-1
 512 384 l 1,51,52
512 512 m 1,68,69
 485 512 485 512 466 530 c 1,70,71
 448 549 448 549 448 576 c 0,72,73
 448 602 448 602 466 621 c 0,74,75
 485 640 485 640 512 640 c 0,76,77
 538 640 538 640 557 621 c 256,78,79
 576 602 576 602 576 576 c 0,80,81
 576 549 576 549 557 530 c 0,82,83
 538 512 538 512 512 512 c 1,84,-1
 512 512 l 1,68,69
512 640 m 1,85,86
 485 640 485 640 466 658 c 1,87,88
 448 677 448 677 448 704 c 0,89,90
 448 730 448 730 466 749 c 0,91,92
 485 768 485 768 512 768 c 0,93,94
 538 768 538 768 557 749 c 256,95,96
 576 730 576 730 576 704 c 0,97,98
 576 677 576 677 557 658 c 0,99,100
 538 640 538 640 512 640 c 1,101,-1
 512 640 l 1,85,86
384 768 m 1,102,103
 357 768 357 768 338 786 c 1,104,105
 320 805 320 805 320 832 c 0,106,107
 320 858 320 858 338 877 c 0,108,109
 357 896 357 896 384 896 c 0,110,111
 410 896 410 896 429 877 c 256,112,113
 448 858 448 858 448 832 c 0,114,115
 448 805 448 805 429 786 c 0,116,117
 410 768 410 768 384 768 c 1,118,-1
 384 768 l 1,102,103
EndSplineSet
Validated: 5
EndChar

StartChar: asterisk
Encoding: 42 42 13
Width: 768
Flags: W
LayerCount: 2
Fore
SplineSet
64 256 m 1,0,1
 37 256 37 256 18 274 c 1,2,3
 0 293 0 293 0 320 c 0,4,5
 0 346 0 346 18 365 c 0,6,7
 37 384 37 384 64 384 c 0,8,9
 90 384 90 384 109 365 c 256,10,11
 128 346 128 346 128 320 c 0,12,13
 128 293 128 293 109 274 c 0,14,15
 90 256 90 256 64 256 c 1,16,-1
 64 256 l 1,0,1
320 256 m 1,17,18
 293 256 293 256 274 274 c 1,19,20
 256 293 256 293 256 320 c 0,21,22
 256 346 256 346 274 365 c 0,23,24
 293 384 293 384 320 384 c 0,25,26
 346 384 346 384 365 365 c 256,27,28
 384 346 384 346 384 320 c 0,29,30
 384 293 384 293 365 274 c 0,31,32
 346 256 346 256 320 256 c 1,33,-1
 320 256 l 1,17,18
576 256 m 1,34,35
 549 256 549 256 530 274 c 1,36,37
 512 293 512 293 512 320 c 0,38,39
 512 346 512 346 530 365 c 0,40,41
 549 384 549 384 576 384 c 0,42,43
 602 384 602 384 621 365 c 256,44,45
 640 346 640 346 640 320 c 0,46,47
 640 293 640 293 621 274 c 0,48,49
 602 256 602 256 576 256 c 1,50,-1
 576 256 l 1,34,35
192 384 m 1,51,52
 165 384 165 384 146 402 c 1,53,54
 128 421 128 421 128 448 c 0,55,56
 128 474 128 474 146 493 c 0,57,58
 165 512 165 512 192 512 c 0,59,60
 218 512 218 512 237 493 c 256,61,62
 256 474 256 474 256 448 c 0,63,64
 256 421 256 421 237 402 c 0,65,66
 218 384 218 384 192 384 c 1,67,-1
 192 384 l 1,51,52
320 384 m 1,68,69
 293 384 293 384 274 402 c 1,70,71
 256 421 256 421 256 448 c 0,72,73
 256 474 256 474 274 493 c 0,74,75
 293 512 293 512 320 512 c 0,76,77
 346 512 346 512 365 493 c 256,78,79
 384 474 384 474 384 448 c 0,80,81
 384 421 384 421 365 402 c 0,82,83
 346 384 346 384 320 384 c 1,84,-1
 320 384 l 1,68,69
448 384 m 1,85,86
 421 384 421 384 402 402 c 1,87,88
 384 421 384 421 384 448 c 0,89,90
 384 474 384 474 402 493 c 0,91,92
 421 512 421 512 448 512 c 0,93,94
 474 512 474 512 493 493 c 256,95,96
 512 474 512 474 512 448 c 0,97,98
 512 421 512 421 493 402 c 0,99,100
 474 384 474 384 448 384 c 1,101,-1
 448 384 l 1,85,86
64 512 m 1,102,103
 37 512 37 512 18 530 c 1,104,105
 0 549 0 549 0 576 c 0,106,107
 0 602 0 602 18 621 c 0,108,109
 37 640 37 640 64 640 c 0,110,111
 90 640 90 640 109 621 c 256,112,113
 128 602 128 602 128 576 c 0,114,115
 128 549 128 549 109 530 c 0,116,117
 90 512 90 512 64 512 c 1,118,-1
 64 512 l 1,102,103
192 512 m 1,119,120
 165 512 165 512 146 530 c 1,121,122
 128 549 128 549 128 576 c 0,123,124
 128 602 128 602 146 621 c 0,125,126
 165 640 165 640 192 640 c 0,127,128
 218 640 218 640 237 621 c 256,129,130
 256 602 256 602 256 576 c 0,131,132
 256 549 256 549 237 530 c 0,133,134
 218 512 218 512 192 512 c 1,135,-1
 192 512 l 1,119,120
320 512 m 1,136,137
 293 512 293 512 274 530 c 1,138,139
 256 549 256 549 256 576 c 0,140,141
 256 602 256 602 274 621 c 0,142,143
 293 640 293 640 320 640 c 0,144,145
 346 640 346 640 365 621 c 256,146,147
 384 602 384 602 384 576 c 0,148,149
 384 549 384 549 365 530 c 0,150,151
 346 512 346 512 320 512 c 1,152,-1
 320 512 l 1,136,137
448 512 m 1,153,154
 421 512 421 512 402 530 c 1,155,156
 384 549 384 549 384 576 c 0,157,158
 384 602 384 602 402 621 c 0,159,160
 421 640 421 640 448 640 c 0,161,162
 474 640 474 640 493 621 c 256,163,164
 512 602 512 602 512 576 c 0,165,166
 512 549 512 549 493 530 c 0,167,168
 474 512 474 512 448 512 c 1,169,-1
 448 512 l 1,153,154
576 512 m 1,170,171
 549 512 549 512 530 530 c 1,172,173
 512 549 512 549 512 576 c 0,174,175
 512 602 512 602 530 621 c 0,176,177
 549 640 549 640 576 640 c 0,178,179
 602 640 602 640 621 621 c 256,180,181
 640 602 640 602 640 576 c 0,182,183
 640 549 640 549 621 530 c 0,184,185
 602 512 602 512 576 512 c 1,186,-1
 576 512 l 1,170,171
192 640 m 1,187,188
 165 640 165 640 146 658 c 1,189,190
 128 677 128 677 128 704 c 0,191,192
 128 730 128 730 146 749 c 0,193,194
 165 768 165 768 192 768 c 0,195,196
 218 768 218 768 237 749 c 256,197,198
 256 730 256 730 256 704 c 0,199,200
 256 677 256 677 237 658 c 0,201,202
 218 640 218 640 192 640 c 1,203,-1
 192 640 l 1,187,188
320 640 m 1,204,205
 293 640 293 640 274 658 c 1,206,207
 256 677 256 677 256 704 c 0,208,209
 256 730 256 730 274 749 c 0,210,211
 293 768 293 768 320 768 c 0,212,213
 346 768 346 768 365 749 c 256,214,215
 384 730 384 730 384 704 c 0,216,217
 384 677 384 677 365 658 c 0,218,219
 346 640 346 640 320 640 c 1,220,-1
 320 640 l 1,204,205
448 640 m 1,221,222
 421 640 421 640 402 658 c 1,223,224
 384 677 384 677 384 704 c 0,225,226
 384 730 384 730 402 749 c 0,227,228
 421 768 421 768 448 768 c 0,229,230
 474 768 474 768 493 749 c 256,231,232
 512 730 512 730 512 704 c 0,233,234
 512 677 512 677 493 658 c 0,235,236
 474 640 474 640 448 640 c 1,237,-1
 448 640 l 1,221,222
64 768 m 1,238,239
 37 768 37 768 18 786 c 1,240,241
 0 805 0 805 0 832 c 0,242,243
 0 858 0 858 18 877 c 0,244,245
 37 896 37 896 64 896 c 0,246,247
 90 896 90 896 109 877 c 256,248,249
 128 858 128 858 128 832 c 0,250,251
 128 805 128 805 109 786 c 0,252,253
 90 768 90 768 64 768 c 1,254,-1
 64 768 l 1,238,239
320 768 m 1,255,256
 293 768 293 768 274 786 c 1,257,258
 256 805 256 805 256 832 c 0,259,260
 256 858 256 858 274 877 c 0,261,262
 293 896 293 896 320 896 c 0,263,264
 346 896 346 896 365 877 c 256,265,266
 384 858 384 858 384 832 c 0,267,268
 384 805 384 805 365 786 c 0,269,270
 346 768 346 768 320 768 c 1,271,-1
 320 768 l 1,255,256
576 768 m 1,272,273
 549 768 549 768 530 786 c 1,274,275
 512 805 512 805 512 832 c 0,276,277
 512 858 512 858 530 877 c 0,278,279
 549 896 549 896 576 896 c 0,280,281
 602 896 602 896 621 877 c 256,282,283
 640 858 640 858 640 832 c 0,284,285
 640 805 640 805 621 786 c 0,286,287
 602 768 602 768 576 768 c 1,288,-1
 576 768 l 1,272,273
EndSplineSet
Validated: 5
EndChar

StartChar: plus
Encoding: 43 43 14
Width: 768
Flags: W
LayerCount: 2
Fore
SplineSet
320 128 m 1,0,1
 293 128 293 128 274 146 c 1,2,3
 256 165 256 165 256 192 c 0,4,5
 256 218 256 218 274 237 c 0,6,7
 293 256 293 256 320 256 c 0,8,9
 346 256 346 256 365 237 c 256,10,11
 384 218 384 218 384 192 c 0,12,13
 384 165 384 165 365 146 c 0,14,15
 346 128 346 128 320 128 c 1,16,-1
 320 128 l 1,0,1
320 256 m 1,17,18
 293 256 293 256 274 274 c 1,19,20
 256 293 256 293 256 320 c 0,21,22
 256 346 256 346 274 365 c 0,23,24
 293 384 293 384 320 384 c 0,25,26
 346 384 346 384 365 365 c 256,27,28
 384 346 384 346 384 320 c 0,29,30
 384 293 384 293 365 274 c 0,31,32
 346 256 346 256 320 256 c 1,33,-1
 320 256 l 1,17,18
64 384 m 1,34,35
 37 384 37 384 18 402 c 1,36,37
 0 421 0 421 0 448 c 0,38,39
 0 474 0 474 18 493 c 0,40,41
 37 512 37 512 64 512 c 0,42,43
 90 512 90 512 109 493 c 256,44,45
 128 474 128 474 128 448 c 0,46,47
 128 421 128 421 109 402 c 0,48,49
 90 384 90 384 64 384 c 1,50,-1
 64 384 l 1,34,35
192 384 m 1,51,52
 165 384 165 384 146 402 c 1,53,54
 128 421 128 421 128 448 c 0,55,56
 128 474 128 474 146 493 c 0,57,58
 165 512 165 512 192 512 c 0,59,60
 218 512 218 512 237 493 c 256,61,62
 256 474 256 474 256 448 c 0,63,64
 256 421 256 421 237 402 c 0,65,66
 218 384 218 384 192 384 c 1,67,-1
 192 384 l 1,51,52
320 384 m 1,68,69
 293 384 293 384 274 402 c 1,70,71
 256 421 256 421 256 448 c 0,72,73
 256 474 256 474 274 493 c 0,74,75
 293 512 293 512 320 512 c 0,76,77
 346 512 346 512 365 493 c 256,78,79
 384 474 384 474 384 448 c 0,80,81
 384 421 384 421 365 402 c 0,82,83
 346 384 346 384 320 384 c 1,84,-1
 320 384 l 1,68,69
448 384 m 1,85,86
 421 384 421 384 402 402 c 1,87,88
 384 421 384 421 384 448 c 0,89,90
 384 474 384 474 402 493 c 0,91,92
 421 512 421 512 448 512 c 0,93,94
 474 512 474 512 493 493 c 256,95,96
 512 474 512 474 512 448 c 0,97,98
 512 421 512 421 493 402 c 0,99,100
 474 384 474 384 448 384 c 1,101,-1
 448 384 l 1,85,86
576 384 m 1,102,103
 549 384 549 384 530 402 c 1,104,105
 512 421 512 421 512 448 c 0,106,107
 512 474 512 474 530 493 c 0,108,109
 549 512 549 512 576 512 c 0,110,111
 602 512 602 512 621 493 c 256,112,113
 640 474 640 474 640 448 c 0,114,115
 640 421 640 421 621 402 c 0,116,117
 602 384 602 384 576 384 c 1,118,-1
 576 384 l 1,102,103
320 512 m 1,119,120
 293 512 293 512 274 530 c 1,121,122
 256 549 256 549 256 576 c 0,123,124
 256 602 256 602 274 621 c 0,125,126
 293 640 293 640 320 640 c 0,127,128
 346 640 346 640 365 621 c 256,129,130
 384 602 384 602 384 576 c 0,131,132
 384 549 384 549 365 530 c 0,133,134
 346 512 346 512 320 512 c 1,135,-1
 320 512 l 1,119,120
320 640 m 1,136,137
 293 640 293 640 274 658 c 1,138,139
 256 677 256 677 256 704 c 0,140,141
 256 730 256 730 274 749 c 0,142,143
 293 768 293 768 320 768 c 0,144,145
 346 768 346 768 365 749 c 256,146,147
 384 730 384 730 384 704 c 0,148,149
 384 677 384 677 365 658 c 0,150,151
 346 640 346 640 320 640 c 1,152,-1
 320 640 l 1,136,137
EndSplineSet
Validated: 5
EndChar

StartChar: comma
Encoding: 44 44 15
Width: 768
Flags: W
LayerCount: 2
Fore
SplineSet
320 0 m 5,0,1
 293 0 293 0 274 18 c 5,2,3
 256 37 256 37 256 64 c 4,4,5
 256 90 256 90 274 109 c 4,6,7
 293 128 293 128 320 128 c 4,8,9
 346 128 346 128 365 109 c 260,10,11
 384 90 384 90 384 64 c 4,12,13
 384 37 384 37 365 18 c 4,14,15
 346 0 346 0 320 0 c 5,16,-1
 320 0 l 5,0,1
448 128 m 5,17,18
 421 128 421 128 402 146 c 5,19,20
 384 165 384 165 384 192 c 4,21,22
 384 218 384 218 402 237 c 4,23,24
 421 256 421 256 448 256 c 4,25,26
 474 256 474 256 493 237 c 260,27,28
 512 218 512 218 512 192 c 4,29,30
 512 165 512 165 493 146 c 4,31,32
 474 128 474 128 448 128 c 5,33,-1
 448 128 l 5,17,18
448 256 m 5,34,35
 421 256 421 256 402 274 c 5,36,37
 384 293 384 293 384 320 c 4,38,39
 384 346 384 346 402 365 c 4,40,41
 421 384 421 384 448 384 c 4,42,43
 474 384 474 384 493 365 c 260,44,45
 512 346 512 346 512 320 c 4,46,47
 512 293 512 293 493 274 c 4,48,49
 474 256 474 256 448 256 c 5,50,-1
 448 256 l 5,34,35
EndSplineSet
Validated: 5
EndChar

StartChar: hyphen
Encoding: 45 45 16
Width: 768
Flags: W
LayerCount: 2
Fore
SplineSet
64 384 m 1,0,1
 37 384 37 384 18 402 c 1,2,3
 0 421 0 421 0 448 c 0,4,5
 0 474 0 474 18 493 c 0,6,7
 37 512 37 512 64 512 c 0,8,9
 90 512 90 512 109 493 c 256,10,11
 128 474 128 474 128 448 c 0,12,13
 128 421 128 421 109 402 c 0,14,15
 90 384 90 384 64 384 c 1,16,-1
 64 384 l 1,0,1
192 384 m 1,17,18
 165 384 165 384 146 402 c 1,19,20
 128 421 128 421 128 448 c 0,21,22
 128 474 128 474 146 493 c 0,23,24
 165 512 165 512 192 512 c 0,25,26
 218 512 218 512 237 493 c 256,27,28
 256 474 256 474 256 448 c 0,29,30
 256 421 256 421 237 402 c 0,31,32
 218 384 218 384 192 384 c 1,33,-1
 192 384 l 1,17,18
320 384 m 1,34,35
 293 384 293 384 274 402 c 1,36,37
 256 421 256 421 256 448 c 0,38,39
 256 474 256 474 274 493 c 0,40,41
 293 512 293 512 320 512 c 0,42,43
 346 512 346 512 365 493 c 256,44,45
 384 474 384 474 384 448 c 0,46,47
 384 421 384 421 365 402 c 0,48,49
 346 384 346 384 320 384 c 1,50,-1
 320 384 l 1,34,35
448 384 m 1,51,52
 421 384 421 384 402 402 c 1,53,54
 384 421 384 421 384 448 c 0,55,56
 384 474 384 474 402 493 c 0,57,58
 421 512 421 512 448 512 c 0,59,60
 474 512 474 512 493 493 c 256,61,62
 512 474 512 474 512 448 c 0,63,64
 512 421 512 421 493 402 c 0,65,66
 474 384 474 384 448 384 c 1,67,-1
 448 384 l 1,51,52
576 384 m 1,68,69
 549 384 549 384 530 402 c 1,70,71
 512 421 512 421 512 448 c 0,72,73
 512 474 512 474 530 493 c 0,74,75
 549 512 549 512 576 512 c 0,76,77
 602 512 602 512 621 493 c 256,78,79
 640 474 640 474 640 448 c 0,80,81
 640 421 640 421 621 402 c 0,82,83
 602 384 602 384 576 384 c 1,84,-1
 576 384 l 1,68,69
EndSplineSet
Validated: 5
EndChar

StartChar: period
Encoding: 46 46 17
Width: 768
Flags: W
LayerCount: 2
Fore
SplineSet
320 0 m 5,0,1
 293 0 293 0 274 18 c 5,2,3
 256 37 256 37 256 64 c 4,4,5
 256 90 256 90 274 109 c 4,6,7
 293 128 293 128 320 128 c 4,8,9
 346 128 346 128 365 109 c 260,10,11
 384 90 384 90 384 64 c 4,12,13
 384 37 384 37 365 18 c 4,14,15
 346 0 346 0 320 0 c 5,16,-1
 320 0 l 5,0,1
448 0 m 5,17,18
 421 0 421 0 402 18 c 5,19,20
 384 37 384 37 384 64 c 4,21,22
 384 90 384 90 402 109 c 4,23,24
 421 128 421 128 448 128 c 4,25,26
 474 128 474 128 493 109 c 260,27,28
 512 90 512 90 512 64 c 4,29,30
 512 37 512 37 493 18 c 4,31,32
 474 0 474 0 448 0 c 5,33,-1
 448 0 l 5,17,18
320 128 m 5,34,35
 293 128 293 128 274 146 c 5,36,37
 256 165 256 165 256 192 c 4,38,39
 256 218 256 218 274 237 c 4,40,41
 293 256 293 256 320 256 c 4,42,43
 346 256 346 256 365 237 c 260,44,45
 384 218 384 218 384 192 c 4,46,47
 384 165 384 165 365 146 c 4,48,49
 346 128 346 128 320 128 c 5,50,-1
 320 128 l 5,34,35
448 128 m 5,51,52
 421 128 421 128 402 146 c 5,53,54
 384 165 384 165 384 192 c 4,55,56
 384 218 384 218 402 237 c 4,57,58
 421 256 421 256 448 256 c 4,59,60
 474 256 474 256 493 237 c 260,61,62
 512 218 512 218 512 192 c 4,63,64
 512 165 512 165 493 146 c 4,65,66
 474 128 474 128 448 128 c 5,67,-1
 448 128 l 5,51,52
EndSplineSet
Validated: 5
EndChar

StartChar: slash
Encoding: 47 47 18
Width: 768
Flags: W
LayerCount: 2
Fore
SplineSet
64 0 m 1,0,1
 37 0 37 0 18 18 c 1,2,3
 0 37 0 37 0 64 c 0,4,5
 0 90 0 90 18 109 c 0,6,7
 37 128 37 128 64 128 c 0,8,9
 90 128 90 128 109 109 c 256,10,11
 128 90 128 90 128 64 c 0,12,13
 128 37 128 37 109 18 c 0,14,15
 90 0 90 0 64 0 c 1,16,-1
 64 0 l 1,0,1
64 128 m 1,17,18
 37 128 37 128 18 146 c 1,19,20
 0 165 0 165 0 192 c 0,21,22
 0 218 0 218 18 237 c 0,23,24
 37 256 37 256 64 256 c 0,25,26
 90 256 90 256 109 237 c 256,27,28
 128 218 128 218 128 192 c 0,29,30
 128 165 128 165 109 146 c 0,31,32
 90 128 90 128 64 128 c 1,33,-1
 64 128 l 1,17,18
192 256 m 1,34,35
 165 256 165 256 146 274 c 1,36,37
 128 293 128 293 128 320 c 0,38,39
 128 346 128 346 146 365 c 0,40,41
 165 384 165 384 192 384 c 0,42,43
 218 384 218 384 237 365 c 256,44,45
 256 346 256 346 256 320 c 0,46,47
 256 293 256 293 237 274 c 0,48,49
 218 256 218 256 192 256 c 1,50,-1
 192 256 l 1,34,35
320 384 m 1,51,52
 293 384 293 384 274 402 c 1,53,54
 256 421 256 421 256 448 c 0,55,56
 256 474 256 474 274 493 c 0,57,58
 293 512 293 512 320 512 c 0,59,60
 346 512 346 512 365 493 c 256,61,62
 384 474 384 474 384 448 c 0,63,64
 384 421 384 421 365 402 c 0,65,66
 346 384 346 384 320 384 c 1,67,-1
 320 384 l 1,51,52
448 512 m 1,68,69
 421 512 421 512 402 530 c 1,70,71
 384 549 384 549 384 576 c 0,72,73
 384 602 384 602 402 621 c 0,74,75
 421 640 421 640 448 640 c 0,76,77
 474 640 474 640 493 621 c 256,78,79
 512 602 512 602 512 576 c 0,80,81
 512 549 512 549 493 530 c 0,82,83
 474 512 474 512 448 512 c 1,84,-1
 448 512 l 1,68,69
576 640 m 1,85,86
 549 640 549 640 530 658 c 1,87,88
 512 677 512 677 512 704 c 0,89,90
 512 730 512 730 530 749 c 0,91,92
 549 768 549 768 576 768 c 0,93,94
 602 768 602 768 621 749 c 256,95,96
 640 730 640 730 640 704 c 0,97,98
 640 677 640 677 621 658 c 0,99,100
 602 640 602 640 576 640 c 1,101,-1
 576 640 l 1,85,86
576 768 m 1,102,103
 549 768 549 768 530 786 c 1,104,105
 512 805 512 805 512 832 c 0,106,107
 512 858 512 858 530 877 c 0,108,109
 549 896 549 896 576 896 c 0,110,111
 602 896 602 896 621 877 c 256,112,113
 640 858 640 858 640 832 c 0,114,115
 640 805 640 805 621 786 c 0,116,117
 602 768 602 768 576 768 c 1,118,-1
 576 768 l 1,102,103
EndSplineSet
Validated: 5
EndChar

StartChar: zero
Encoding: 48 48 19
Width: 768
Flags: W
LayerCount: 2
Fore
SplineSet
192 0 m 1,0,1
 165 0 165 0 146 18 c 1,2,3
 128 37 128 37 128 64 c 0,4,5
 128 90 128 90 146 109 c 0,6,7
 165 128 165 128 192 128 c 0,8,9
 218 128 218 128 237 109 c 256,10,11
 256 90 256 90 256 64 c 0,12,13
 256 37 256 37 237 18 c 0,14,15
 218 0 218 0 192 0 c 1,16,-1
 192 0 l 1,0,1
320 0 m 1,17,18
 293 0 293 0 274 18 c 1,19,20
 256 37 256 37 256 64 c 0,21,22
 256 90 256 90 274 109 c 0,23,24
 293 128 293 128 320 128 c 0,25,26
 346 128 346 128 365 109 c 256,27,28
 384 90 384 90 384 64 c 0,29,30
 384 37 384 37 365 18 c 0,31,32
 346 0 346 0 320 0 c 1,33,-1
 320 0 l 1,17,18
448 0 m 1,34,35
 421 0 421 0 402 18 c 1,36,37
 384 37 384 37 384 64 c 0,38,39
 384 90 384 90 402 109 c 0,40,41
 421 128 421 128 448 128 c 0,42,43
 474 128 474 128 493 109 c 256,44,45
 512 90 512 90 512 64 c 0,46,47
 512 37 512 37 493 18 c 0,48,49
 474 0 474 0 448 0 c 1,50,-1
 448 0 l 1,34,35
64 128 m 1,51,52
 37 128 37 128 18 146 c 1,53,54
 0 165 0 165 0 192 c 0,55,56
 0 218 0 218 18 237 c 0,57,58
 37 256 37 256 64 256 c 0,59,60
 90 256 90 256 109 237 c 256,61,62
 128 218 128 218 128 192 c 0,63,64
 128 165 128 165 109 146 c 0,65,66
 90 128 90 128 64 128 c 1,67,-1
 64 128 l 1,51,52
576 128 m 1,68,69
 549 128 549 128 530 146 c 1,70,71
 512 165 512 165 512 192 c 0,72,73
 512 218 512 218 530 237 c 0,74,75
 549 256 549 256 576 256 c 0,76,77
 602 256 602 256 621 237 c 256,78,79
 640 218 640 218 640 192 c 0,80,81
 640 165 640 165 621 146 c 0,82,83
 602 128 602 128 576 128 c 1,84,-1
 576 128 l 1,68,69
64 256 m 1,85,86
 37 256 37 256 18 274 c 1,87,88
 0 293 0 293 0 320 c 0,89,90
 0 346 0 346 18 365 c 0,91,92
 37 384 37 384 64 384 c 0,93,94
 90 384 90 384 109 365 c 256,95,96
 128 346 128 346 128 320 c 0,97,98
 128 293 128 293 109 274 c 0,99,100
 90 256 90 256 64 256 c 1,101,-1
 64 256 l 1,85,86
576 256 m 1,102,103
 549 256 549 256 530 274 c 1,104,105
 512 293 512 293 512 320 c 0,106,107
 512 346 512 346 530 365 c 0,108,109
 549 384 549 384 576 384 c 0,110,111
 602 384 602 384 621 365 c 256,112,113
 640 346 640 346 640 320 c 0,114,115
 640 293 640 293 621 274 c 0,116,117
 602 256 602 256 576 256 c 1,118,-1
 576 256 l 1,102,103
64 384 m 1,119,120
 37 384 37 384 18 402 c 1,121,122
 0 421 0 421 0 448 c 0,123,124
 0 474 0 474 18 493 c 0,125,126
 37 512 37 512 64 512 c 0,127,128
 90 512 90 512 109 493 c 256,129,130
 128 474 128 474 128 448 c 0,131,132
 128 421 128 421 109 402 c 0,133,134
 90 384 90 384 64 384 c 1,135,-1
 64 384 l 1,119,120
576 384 m 1,136,137
 549 384 549 384 530 402 c 1,138,139
 512 421 512 421 512 448 c 0,140,141
 512 474 512 474 530 493 c 0,142,143
 549 512 549 512 576 512 c 0,144,145
 602 512 602 512 621 493 c 256,146,147
 640 474 640 474 640 448 c 0,148,149
 640 421 640 421 621 402 c 0,150,151
 602 384 602 384 576 384 c 1,152,-1
 576 384 l 1,136,137
64 512 m 1,153,154
 37 512 37 512 18 530 c 1,155,156
 0 549 0 549 0 576 c 0,157,158
 0 602 0 602 18 621 c 0,159,160
 37 640 37 640 64 640 c 0,161,162
 90 640 90 640 109 621 c 256,163,164
 128 602 128 602 128 576 c 0,165,166
 128 549 128 549 109 530 c 0,167,168
 90 512 90 512 64 512 c 1,169,-1
 64 512 l 1,153,154
576 512 m 1,170,171
 549 512 549 512 530 530 c 1,172,173
 512 549 512 549 512 576 c 0,174,175
 512 602 512 602 530 621 c 0,176,177
 549 640 549 640 576 640 c 0,178,179
 602 640 602 640 621 621 c 256,180,181
 640 602 640 602 640 576 c 0,182,183
 640 549 640 549 621 530 c 0,184,185
 602 512 602 512 576 512 c 1,186,-1
 576 512 l 1,170,171
64 640 m 1,187,188
 37 640 37 640 18 658 c 1,189,190
 0 677 0 677 0 704 c 0,191,192
 0 730 0 730 18 749 c 0,193,194
 37 768 37 768 64 768 c 0,195,196
 90 768 90 768 109 749 c 256,197,198
 128 730 128 730 128 704 c 0,199,200
 128 677 128 677 109 658 c 0,201,202
 90 640 90 640 64 640 c 1,203,-1
 64 640 l 1,187,188
576 640 m 1,204,205
 549 640 549 640 530 658 c 1,206,207
 512 677 512 677 512 704 c 0,208,209
 512 730 512 730 530 749 c 0,210,211
 549 768 549 768 576 768 c 0,212,213
 602 768 602 768 621 749 c 256,214,215
 640 730 640 730 640 704 c 0,216,217
 640 677 640 677 621 658 c 0,218,219
 602 640 602 640 576 640 c 1,220,-1
 576 640 l 1,204,205
192 768 m 1,221,222
 165 768 165 768 146 786 c 1,223,224
 128 805 128 805 128 832 c 0,225,226
 128 858 128 858 146 877 c 0,227,228
 165 896 165 896 192 896 c 0,229,230
 218 896 218 896 237 877 c 256,231,232
 256 858 256 858 256 832 c 0,233,234
 256 805 256 805 237 786 c 0,235,236
 218 768 218 768 192 768 c 1,237,-1
 192 768 l 1,221,222
320 768 m 1,238,239
 293 768 293 768 274 786 c 1,240,241
 256 805 256 805 256 832 c 0,242,243
 256 858 256 858 274 877 c 0,244,245
 293 896 293 896 320 896 c 0,246,247
 346 896 346 896 365 877 c 256,248,249
 384 858 384 858 384 832 c 0,250,251
 384 805 384 805 365 786 c 0,252,253
 346 768 346 768 320 768 c 1,254,-1
 320 768 l 1,238,239
448 768 m 1,255,256
 421 768 421 768 402 786 c 1,257,258
 384 805 384 805 384 832 c 0,259,260
 384 858 384 858 402 877 c 0,261,262
 421 896 421 896 448 896 c 0,263,264
 474 896 474 896 493 877 c 256,265,266
 512 858 512 858 512 832 c 0,267,268
 512 805 512 805 493 786 c 0,269,270
 474 768 474 768 448 768 c 1,271,-1
 448 768 l 1,255,256
EndSplineSet
Validated: 5
EndChar

StartChar: one
Encoding: 49 49 20
Width: 768
Flags: W
LayerCount: 2
Fore
SplineSet
256 0 m 5,0,1
 229 0 229 0 210 18 c 5,2,3
 192 37 192 37 192 64 c 4,4,5
 192 90 192 90 210 109 c 4,6,7
 229 128 229 128 256 128 c 4,8,9
 282 128 282 128 301 109 c 260,10,11
 320 90 320 90 320 64 c 4,12,13
 320 37 320 37 301 18 c 4,14,15
 282 0 282 0 256 0 c 5,16,-1
 256 0 l 5,0,1
384 0 m 5,17,18
 357 0 357 0 338 18 c 5,19,20
 320 37 320 37 320 64 c 4,21,22
 320 90 320 90 338 109 c 4,23,24
 357 128 357 128 384 128 c 4,25,26
 410 128 410 128 429 109 c 260,27,28
 448 90 448 90 448 64 c 4,29,30
 448 37 448 37 429 18 c 4,31,32
 410 0 410 0 384 0 c 5,33,-1
 384 0 l 5,17,18
512 0 m 5,34,35
 485 0 485 0 466 18 c 5,36,37
 448 37 448 37 448 64 c 4,38,39
 448 90 448 90 466 109 c 4,40,41
 485 128 485 128 512 128 c 4,42,43
 538 128 538 128 557 109 c 260,44,45
 576 90 576 90 576 64 c 4,46,47
 576 37 576 37 557 18 c 4,48,49
 538 0 538 0 512 0 c 5,50,-1
 512 0 l 5,34,35
384 128 m 5,51,52
 357 128 357 128 338 146 c 5,53,54
 320 165 320 165 320 192 c 4,55,56
 320 218 320 218 338 237 c 4,57,58
 357 256 357 256 384 256 c 4,59,60
 410 256 410 256 429 237 c 260,61,62
 448 218 448 218 448 192 c 4,63,64
 448 165 448 165 429 146 c 4,65,66
 410 128 410 128 384 128 c 5,67,-1
 384 128 l 5,51,52
384 256 m 5,68,69
 357 256 357 256 338 274 c 5,70,71
 320 293 320 293 320 320 c 4,72,73
 320 346 320 346 338 365 c 4,74,75
 357 384 357 384 384 384 c 4,76,77
 410 384 410 384 429 365 c 260,78,79
 448 346 448 346 448 320 c 4,80,81
 448 293 448 293 429 274 c 4,82,83
 410 256 410 256 384 256 c 5,84,-1
 384 256 l 5,68,69
384 384 m 5,85,86
 357 384 357 384 338 402 c 5,87,88
 320 421 320 421 320 448 c 4,89,90
 320 474 320 474 338 493 c 4,91,92
 357 512 357 512 384 512 c 4,93,94
 410 512 410 512 429 493 c 260,95,96
 448 474 448 474 448 448 c 4,97,98
 448 421 448 421 429 402 c 4,99,100
 410 384 410 384 384 384 c 5,101,-1
 384 384 l 5,85,86
384 512 m 5,102,103
 357 512 357 512 338 530 c 5,104,105
 320 549 320 549 320 576 c 4,106,107
 320 602 320 602 338 621 c 4,108,109
 357 640 357 640 384 640 c 4,110,111
 410 640 410 640 429 621 c 260,112,113
 448 602 448 602 448 576 c 4,114,115
 448 549 448 549 429 530 c 4,116,117
 410 512 410 512 384 512 c 5,118,-1
 384 512 l 5,102,103
256 640 m 5,119,120
 229 640 229 640 210 658 c 5,121,122
 192 677 192 677 192 704 c 4,123,124
 192 730 192 730 210 749 c 4,125,126
 229 768 229 768 256 768 c 4,127,128
 282 768 282 768 301 749 c 260,129,130
 320 730 320 730 320 704 c 4,131,132
 320 677 320 677 301 658 c 4,133,134
 282 640 282 640 256 640 c 5,135,-1
 256 640 l 5,119,120
384 640 m 5,136,137
 357 640 357 640 338 658 c 5,138,139
 320 677 320 677 320 704 c 4,140,141
 320 730 320 730 338 749 c 4,142,143
 357 768 357 768 384 768 c 4,144,145
 410 768 410 768 429 749 c 260,146,147
 448 730 448 730 448 704 c 4,148,149
 448 677 448 677 429 658 c 4,150,151
 410 640 410 640 384 640 c 5,152,-1
 384 640 l 5,136,137
384 768 m 5,153,154
 357 768 357 768 338 786 c 5,155,156
 320 805 320 805 320 832 c 4,157,158
 320 858 320 858 338 877 c 4,159,160
 357 896 357 896 384 896 c 4,161,162
 410 896 410 896 429 877 c 260,163,164
 448 858 448 858 448 832 c 4,165,166
 448 805 448 805 429 786 c 4,167,168
 410 768 410 768 384 768 c 5,169,-1
 384 768 l 5,153,154
EndSplineSet
Validated: 5
EndChar

StartChar: two
Encoding: 50 50 21
Width: 768
Flags: W
LayerCount: 2
Fore
SplineSet
64 0 m 1,0,1
 37 0 37 0 18 18 c 1,2,3
 0 37 0 37 0 64 c 0,4,5
 0 90 0 90 18 109 c 0,6,7
 37 128 37 128 64 128 c 0,8,9
 90 128 90 128 109 109 c 256,10,11
 128 90 128 90 128 64 c 0,12,13
 128 37 128 37 109 18 c 0,14,15
 90 0 90 0 64 0 c 1,16,-1
 64 0 l 1,0,1
192 0 m 1,17,18
 165 0 165 0 146 18 c 1,19,20
 128 37 128 37 128 64 c 0,21,22
 128 90 128 90 146 109 c 0,23,24
 165 128 165 128 192 128 c 0,25,26
 218 128 218 128 237 109 c 256,27,28
 256 90 256 90 256 64 c 0,29,30
 256 37 256 37 237 18 c 0,31,32
 218 0 218 0 192 0 c 1,33,-1
 192 0 l 1,17,18
320 0 m 1,34,35
 293 0 293 0 274 18 c 1,36,37
 256 37 256 37 256 64 c 0,38,39
 256 90 256 90 274 109 c 0,40,41
 293 128 293 128 320 128 c 0,42,43
 346 128 346 128 365 109 c 256,44,45
 384 90 384 90 384 64 c 0,46,47
 384 37 384 37 365 18 c 0,48,49
 346 0 346 0 320 0 c 1,50,-1
 320 0 l 1,34,35
448 0 m 1,51,52
 421 0 421 0 402 18 c 1,53,54
 384 37 384 37 384 64 c 0,55,56
 384 90 384 90 402 109 c 0,57,58
 421 128 421 128 448 128 c 0,59,60
 474 128 474 128 493 109 c 256,61,62
 512 90 512 90 512 64 c 0,63,64
 512 37 512 37 493 18 c 0,65,66
 474 0 474 0 448 0 c 1,67,-1
 448 0 l 1,51,52
576 0 m 1,68,69
 549 0 549 0 530 18 c 1,70,71
 512 37 512 37 512 64 c 0,72,73
 512 90 512 90 530 109 c 0,74,75
 549 128 549 128 576 128 c 0,76,77
 602 128 602 128 621 109 c 256,78,79
 640 90 640 90 640 64 c 0,80,81
 640 37 640 37 621 18 c 0,82,83
 602 0 602 0 576 0 c 1,84,-1
 576 0 l 1,68,69
192 128 m 1,85,86
 165 128 165 128 146 146 c 1,87,88
 128 165 128 165 128 192 c 0,89,90
 128 218 128 218 146 237 c 0,91,92
 165 256 165 256 192 256 c 0,93,94
 218 256 218 256 237 237 c 256,95,96
 256 218 256 218 256 192 c 0,97,98
 256 165 256 165 237 146 c 0,99,100
 218 128 218 128 192 128 c 1,101,-1
 192 128 l 1,85,86
320 256 m 1,102,103
 293 256 293 256 274 274 c 1,104,105
 256 293 256 293 256 320 c 0,106,107
 256 346 256 346 274 365 c 0,108,109
 293 384 293 384 320 384 c 0,110,111
 346 384 346 384 365 365 c 256,112,113
 384 346 384 346 384 320 c 0,114,115
 384 293 384 293 365 274 c 0,116,117
 346 256 346 256 320 256 c 1,118,-1
 320 256 l 1,102,103
448 384 m 1,119,120
 421 384 421 384 402 402 c 1,121,122
 384 421 384 421 384 448 c 0,123,124
 384 474 384 474 402 493 c 0,125,126
 421 512 421 512 448 512 c 0,127,128
 474 512 474 512 493 493 c 256,129,130
 512 474 512 474 512 448 c 0,131,132
 512 421 512 421 493 402 c 0,133,134
 474 384 474 384 448 384 c 1,135,-1
 448 384 l 1,119,120
576 512 m 1,136,137
 549 512 549 512 530 530 c 1,138,139
 512 549 512 549 512 576 c 0,140,141
 512 602 512 602 530 621 c 0,142,143
 549 640 549 640 576 640 c 0,144,145
 602 640 602 640 621 621 c 256,146,147
 640 602 640 602 640 576 c 0,148,149
 640 549 640 549 621 530 c 0,150,151
 602 512 602 512 576 512 c 1,152,-1
 576 512 l 1,136,137
64 640 m 1,153,154
 37 640 37 640 18 658 c 1,155,156
 0 677 0 677 0 704 c 0,157,158
 0 730 0 730 18 749 c 0,159,160
 37 768 37 768 64 768 c 0,161,162
 90 768 90 768 109 749 c 256,163,164
 128 730 128 730 128 704 c 0,165,166
 128 677 128 677 109 658 c 0,167,168
 90 640 90 640 64 640 c 1,169,-1
 64 640 l 1,153,154
576 640 m 1,170,171
 549 640 549 640 530 658 c 1,172,173
 512 677 512 677 512 704 c 0,174,175
 512 730 512 730 530 749 c 0,176,177
 549 768 549 768 576 768 c 0,178,179
 602 768 602 768 621 749 c 256,180,181
 640 730 640 730 640 704 c 0,182,183
 640 677 640 677 621 658 c 0,184,185
 602 640 602 640 576 640 c 1,186,-1
 576 640 l 1,170,171
192 768 m 1,187,188
 165 768 165 768 146 786 c 1,189,190
 128 805 128 805 128 832 c 0,191,192
 128 858 128 858 146 877 c 0,193,194
 165 896 165 896 192 896 c 0,195,196
 218 896 218 896 237 877 c 256,197,198
 256 858 256 858 256 832 c 0,199,200
 256 805 256 805 237 786 c 0,201,202
 218 768 218 768 192 768 c 1,203,-1
 192 768 l 1,187,188
320 768 m 1,204,205
 293 768 293 768 274 786 c 1,206,207
 256 805 256 805 256 832 c 0,208,209
 256 858 256 858 274 877 c 0,210,211
 293 896 293 896 320 896 c 0,212,213
 346 896 346 896 365 877 c 256,214,215
 384 858 384 858 384 832 c 0,216,217
 384 805 384 805 365 786 c 0,218,219
 346 768 346 768 320 768 c 1,220,-1
 320 768 l 1,204,205
448 768 m 1,221,222
 421 768 421 768 402 786 c 1,223,224
 384 805 384 805 384 832 c 0,225,226
 384 858 384 858 402 877 c 0,227,228
 421 896 421 896 448 896 c 0,229,230
 474 896 474 896 493 877 c 256,231,232
 512 858 512 858 512 832 c 0,233,234
 512 805 512 805 493 786 c 0,235,236
 474 768 474 768 448 768 c 1,237,-1
 448 768 l 1,221,222
EndSplineSet
Validated: 5
EndChar

StartChar: three
Encoding: 51 51 22
Width: 768
Flags: W
LayerCount: 2
Fore
SplineSet
192 0 m 1,0,1
 165 0 165 0 146 18 c 1,2,3
 128 37 128 37 128 64 c 0,4,5
 128 90 128 90 146 109 c 0,6,7
 165 128 165 128 192 128 c 0,8,9
 218 128 218 128 237 109 c 256,10,11
 256 90 256 90 256 64 c 0,12,13
 256 37 256 37 237 18 c 0,14,15
 218 0 218 0 192 0 c 1,16,-1
 192 0 l 1,0,1
320 0 m 1,17,18
 293 0 293 0 274 18 c 1,19,20
 256 37 256 37 256 64 c 0,21,22
 256 90 256 90 274 109 c 0,23,24
 293 128 293 128 320 128 c 0,25,26
 346 128 346 128 365 109 c 256,27,28
 384 90 384 90 384 64 c 0,29,30
 384 37 384 37 365 18 c 0,31,32
 346 0 346 0 320 0 c 1,33,-1
 320 0 l 1,17,18
448 0 m 1,34,35
 421 0 421 0 402 18 c 1,36,37
 384 37 384 37 384 64 c 0,38,39
 384 90 384 90 402 109 c 0,40,41
 421 128 421 128 448 128 c 0,42,43
 474 128 474 128 493 109 c 256,44,45
 512 90 512 90 512 64 c 0,46,47
 512 37 512 37 493 18 c 0,48,49
 474 0 474 0 448 0 c 1,50,-1
 448 0 l 1,34,35
64 128 m 1,51,52
 37 128 37 128 18 146 c 1,53,54
 0 165 0 165 0 192 c 0,55,56
 0 218 0 218 18 237 c 0,57,58
 37 256 37 256 64 256 c 0,59,60
 90 256 90 256 109 237 c 256,61,62
 128 218 128 218 128 192 c 0,63,64
 128 165 128 165 109 146 c 0,65,66
 90 128 90 128 64 128 c 1,67,-1
 64 128 l 1,51,52
576 128 m 1,68,69
 549 128 549 128 530 146 c 1,70,71
 512 165 512 165 512 192 c 0,72,73
 512 218 512 218 530 237 c 0,74,75
 549 256 549 256 576 256 c 0,76,77
 602 256 602 256 621 237 c 256,78,79
 640 218 640 218 640 192 c 0,80,81
 640 165 640 165 621 146 c 0,82,83
 602 128 602 128 576 128 c 1,84,-1
 576 128 l 1,68,69
576 256 m 1,85,86
 549 256 549 256 530 274 c 1,87,88
 512 293 512 293 512 320 c 0,89,90
 512 346 512 346 530 365 c 0,91,92
 549 384 549 384 576 384 c 0,93,94
 602 384 602 384 621 365 c 256,95,96
 640 346 640 346 640 320 c 0,97,98
 640 293 640 293 621 274 c 0,99,100
 602 256 602 256 576 256 c 1,101,-1
 576 256 l 1,85,86
320 384 m 1,102,103
 293 384 293 384 274 402 c 1,104,105
 256 421 256 421 256 448 c 0,106,107
 256 474 256 474 274 493 c 0,108,109
 293 512 293 512 320 512 c 0,110,111
 346 512 346 512 365 493 c 256,112,113
 384 474 384 474 384 448 c 0,114,115
 384 421 384 421 365 402 c 0,116,117
 346 384 346 384 320 384 c 1,118,-1
 320 384 l 1,102,103
448 384 m 1,119,120
 421 384 421 384 402 402 c 1,121,122
 384 421 384 421 384 448 c 0,123,124
 384 474 384 474 402 493 c 0,125,126
 421 512 421 512 448 512 c 0,127,128
 474 512 474 512 493 493 c 256,129,130
 512 474 512 474 512 448 c 0,131,132
 512 421 512 421 493 402 c 0,133,134
 474 384 474 384 448 384 c 1,135,-1
 448 384 l 1,119,120
448 512 m 1,136,137
 421 512 421 512 402 530 c 1,138,139
 384 549 384 549 384 576 c 0,140,141
 384 602 384 602 402 621 c 0,142,143
 421 640 421 640 448 640 c 0,144,145
 474 640 474 640 493 621 c 256,146,147
 512 602 512 602 512 576 c 0,148,149
 512 549 512 549 493 530 c 0,150,151
 474 512 474 512 448 512 c 1,152,-1
 448 512 l 1,136,137
576 640 m 1,153,154
 549 640 549 640 530 658 c 1,155,156
 512 677 512 677 512 704 c 0,157,158
 512 730 512 730 530 749 c 0,159,160
 549 768 549 768 576 768 c 0,161,162
 602 768 602 768 621 749 c 256,163,164
 640 730 640 730 640 704 c 0,165,166
 640 677 640 677 621 658 c 0,167,168
 602 640 602 640 576 640 c 1,169,-1
 576 640 l 1,153,154
64 768 m 1,170,171
 37 768 37 768 18 786 c 1,172,173
 0 805 0 805 0 832 c 0,174,175
 0 858 0 858 18 877 c 0,176,177
 37 896 37 896 64 896 c 0,178,179
 90 896 90 896 109 877 c 256,180,181
 128 858 128 858 128 832 c 0,182,183
 128 805 128 805 109 786 c 0,184,185
 90 768 90 768 64 768 c 1,186,-1
 64 768 l 1,170,171
192 768 m 1,187,188
 165 768 165 768 146 786 c 1,189,190
 128 805 128 805 128 832 c 0,191,192
 128 858 128 858 146 877 c 0,193,194
 165 896 165 896 192 896 c 0,195,196
 218 896 218 896 237 877 c 256,197,198
 256 858 256 858 256 832 c 0,199,200
 256 805 256 805 237 786 c 0,201,202
 218 768 218 768 192 768 c 1,203,-1
 192 768 l 1,187,188
320 768 m 1,204,205
 293 768 293 768 274 786 c 1,206,207
 256 805 256 805 256 832 c 0,208,209
 256 858 256 858 274 877 c 0,210,211
 293 896 293 896 320 896 c 0,212,213
 346 896 346 896 365 877 c 256,214,215
 384 858 384 858 384 832 c 0,216,217
 384 805 384 805 365 786 c 0,218,219
 346 768 346 768 320 768 c 1,220,-1
 320 768 l 1,204,205
448 768 m 1,221,222
 421 768 421 768 402 786 c 1,223,224
 384 805 384 805 384 832 c 0,225,226
 384 858 384 858 402 877 c 0,227,228
 421 896 421 896 448 896 c 0,229,230
 474 896 474 896 493 877 c 256,231,232
 512 858 512 858 512 832 c 0,233,234
 512 805 512 805 493 786 c 0,235,236
 474 768 474 768 448 768 c 1,237,-1
 448 768 l 1,221,222
576 768 m 1,238,239
 549 768 549 768 530 786 c 1,240,241
 512 805 512 805 512 832 c 0,242,243
 512 858 512 858 530 877 c 0,244,245
 549 896 549 896 576 896 c 0,246,247
 602 896 602 896 621 877 c 256,248,249
 640 858 640 858 640 832 c 0,250,251
 640 805 640 805 621 786 c 0,252,253
 602 768 602 768 576 768 c 1,254,-1
 576 768 l 1,238,239
EndSplineSet
Validated: 5
EndChar

StartChar: four
Encoding: 52 52 23
Width: 768
Flags: W
LayerCount: 2
Fore
SplineSet
448 0 m 1,0,1
 421 0 421 0 402 18 c 1,2,3
 384 37 384 37 384 64 c 0,4,5
 384 90 384 90 402 109 c 0,6,7
 421 128 421 128 448 128 c 0,8,9
 474 128 474 128 493 109 c 256,10,11
 512 90 512 90 512 64 c 0,12,13
 512 37 512 37 493 18 c 0,14,15
 474 0 474 0 448 0 c 1,16,-1
 448 0 l 1,0,1
448 128 m 1,17,18
 421 128 421 128 402 146 c 1,19,20
 384 165 384 165 384 192 c 0,21,22
 384 218 384 218 402 237 c 0,23,24
 421 256 421 256 448 256 c 0,25,26
 474 256 474 256 493 237 c 256,27,28
 512 218 512 218 512 192 c 0,29,30
 512 165 512 165 493 146 c 0,31,32
 474 128 474 128 448 128 c 1,33,-1
 448 128 l 1,17,18
64 256 m 1,34,35
 37 256 37 256 18 274 c 1,36,37
 0 293 0 293 0 320 c 0,38,39
 0 346 0 346 18 365 c 0,40,41
 37 384 37 384 64 384 c 0,42,43
 90 384 90 384 109 365 c 256,44,45
 128 346 128 346 128 320 c 0,46,47
 128 293 128 293 109 274 c 0,48,49
 90 256 90 256 64 256 c 1,50,-1
 64 256 l 1,34,35
192 256 m 1,51,52
 165 256 165 256 146 274 c 1,53,54
 128 293 128 293 128 320 c 0,55,56
 128 346 128 346 146 365 c 0,57,58
 165 384 165 384 192 384 c 0,59,60
 218 384 218 384 237 365 c 256,61,62
 256 346 256 346 256 320 c 0,63,64
 256 293 256 293 237 274 c 0,65,66
 218 256 218 256 192 256 c 1,67,-1
 192 256 l 1,51,52
320 256 m 1,68,69
 293 256 293 256 274 274 c 1,70,71
 256 293 256 293 256 320 c 0,72,73
 256 346 256 346 274 365 c 0,74,75
 293 384 293 384 320 384 c 0,76,77
 346 384 346 384 365 365 c 256,78,79
 384 346 384 346 384 320 c 0,80,81
 384 293 384 293 365 274 c 0,82,83
 346 256 346 256 320 256 c 1,84,-1
 320 256 l 1,68,69
448 256 m 1,85,86
 421 256 421 256 402 274 c 1,87,88
 384 293 384 293 384 320 c 0,89,90
 384 346 384 346 402 365 c 0,91,92
 421 384 421 384 448 384 c 0,93,94
 474 384 474 384 493 365 c 256,95,96
 512 346 512 346 512 320 c 0,97,98
 512 293 512 293 493 274 c 0,99,100
 474 256 474 256 448 256 c 1,101,-1
 448 256 l 1,85,86
576 256 m 1,102,103
 549 256 549 256 530 274 c 1,104,105
 512 293 512 293 512 320 c 0,106,107
 512 346 512 346 530 365 c 0,108,109
 549 384 549 384 576 384 c 0,110,111
 602 384 602 384 621 365 c 256,112,113
 640 346 640 346 640 320 c 0,114,115
 640 293 640 293 621 274 c 0,116,117
 602 256 602 256 576 256 c 1,118,-1
 576 256 l 1,102,103
64 384 m 1,119,120
 37 384 37 384 18 402 c 1,121,122
 0 421 0 421 0 448 c 0,123,124
 0 474 0 474 18 493 c 0,125,126
 37 512 37 512 64 512 c 0,127,128
 90 512 90 512 109 493 c 256,129,130
 128 474 128 474 128 448 c 0,131,132
 128 421 128 421 109 402 c 0,133,134
 90 384 90 384 64 384 c 1,135,-1
 64 384 l 1,119,120
448 384 m 1,136,137
 421 384 421 384 402 402 c 1,138,139
 384 421 384 421 384 448 c 0,140,141
 384 474 384 474 402 493 c 0,142,143
 421 512 421 512 448 512 c 0,144,145
 474 512 474 512 493 493 c 256,146,147
 512 474 512 474 512 448 c 0,148,149
 512 421 512 421 493 402 c 0,150,151
 474 384 474 384 448 384 c 1,152,-1
 448 384 l 1,136,137
192 512 m 1,153,154
 165 512 165 512 146 530 c 1,155,156
 128 549 128 549 128 576 c 0,157,158
 128 602 128 602 146 621 c 0,159,160
 165 640 165 640 192 640 c 0,161,162
 218 640 218 640 237 621 c 256,163,164
 256 602 256 602 256 576 c 0,165,166
 256 549 256 549 237 530 c 0,167,168
 218 512 218 512 192 512 c 1,169,-1
 192 512 l 1,153,154
448 512 m 1,170,171
 421 512 421 512 402 530 c 1,172,173
 384 549 384 549 384 576 c 0,174,175
 384 602 384 602 402 621 c 0,176,177
 421 640 421 640 448 640 c 0,178,179
 474 640 474 640 493 621 c 256,180,181
 512 602 512 602 512 576 c 0,182,183
 512 549 512 549 493 530 c 0,184,185
 474 512 474 512 448 512 c 1,186,-1
 448 512 l 1,170,171
320 640 m 1,187,188
 293 640 293 640 274 658 c 1,189,190
 256 677 256 677 256 704 c 0,191,192
 256 730 256 730 274 749 c 0,193,194
 293 768 293 768 320 768 c 0,195,196
 346 768 346 768 365 749 c 256,197,198
 384 730 384 730 384 704 c 0,199,200
 384 677 384 677 365 658 c 0,201,202
 346 640 346 640 320 640 c 1,203,-1
 320 640 l 1,187,188
448 640 m 1,204,205
 421 640 421 640 402 658 c 1,206,207
 384 677 384 677 384 704 c 0,208,209
 384 730 384 730 402 749 c 0,210,211
 421 768 421 768 448 768 c 0,212,213
 474 768 474 768 493 749 c 256,214,215
 512 730 512 730 512 704 c 0,216,217
 512 677 512 677 493 658 c 0,218,219
 474 640 474 640 448 640 c 1,220,-1
 448 640 l 1,204,205
448 768 m 1,221,222
 421 768 421 768 402 786 c 1,223,224
 384 805 384 805 384 832 c 0,225,226
 384 858 384 858 402 877 c 0,227,228
 421 896 421 896 448 896 c 0,229,230
 474 896 474 896 493 877 c 256,231,232
 512 858 512 858 512 832 c 0,233,234
 512 805 512 805 493 786 c 0,235,236
 474 768 474 768 448 768 c 1,237,-1
 448 768 l 1,221,222
EndSplineSet
Validated: 5
EndChar

StartChar: five
Encoding: 53 53 24
Width: 768
Flags: W
LayerCount: 2
Fore
SplineSet
192 0 m 1,0,1
 165 0 165 0 146 18 c 1,2,3
 128 37 128 37 128 64 c 0,4,5
 128 90 128 90 146 109 c 0,6,7
 165 128 165 128 192 128 c 0,8,9
 218 128 218 128 237 109 c 256,10,11
 256 90 256 90 256 64 c 0,12,13
 256 37 256 37 237 18 c 0,14,15
 218 0 218 0 192 0 c 1,16,-1
 192 0 l 1,0,1
320 0 m 1,17,18
 293 0 293 0 274 18 c 1,19,20
 256 37 256 37 256 64 c 0,21,22
 256 90 256 90 274 109 c 0,23,24
 293 128 293 128 320 128 c 0,25,26
 346 128 346 128 365 109 c 256,27,28
 384 90 384 90 384 64 c 0,29,30
 384 37 384 37 365 18 c 0,31,32
 346 0 346 0 320 0 c 1,33,-1
 320 0 l 1,17,18
448 0 m 1,34,35
 421 0 421 0 402 18 c 1,36,37
 384 37 384 37 384 64 c 0,38,39
 384 90 384 90 402 109 c 0,40,41
 421 128 421 128 448 128 c 0,42,43
 474 128 474 128 493 109 c 256,44,45
 512 90 512 90 512 64 c 0,46,47
 512 37 512 37 493 18 c 0,48,49
 474 0 474 0 448 0 c 1,50,-1
 448 0 l 1,34,35
64 128 m 1,51,52
 37 128 37 128 18 146 c 1,53,54
 0 165 0 165 0 192 c 0,55,56
 0 218 0 218 18 237 c 0,57,58
 37 256 37 256 64 256 c 0,59,60
 90 256 90 256 109 237 c 256,61,62
 128 218 128 218 128 192 c 0,63,64
 128 165 128 165 109 146 c 0,65,66
 90 128 90 128 64 128 c 1,67,-1
 64 128 l 1,51,52
576 128 m 1,68,69
 549 128 549 128 530 146 c 1,70,71
 512 165 512 165 512 192 c 0,72,73
 512 218 512 218 530 237 c 0,74,75
 549 256 549 256 576 256 c 0,76,77
 602 256 602 256 621 237 c 256,78,79
 640 218 640 218 640 192 c 0,80,81
 640 165 640 165 621 146 c 0,82,83
 602 128 602 128 576 128 c 1,84,-1
 576 128 l 1,68,69
576 256 m 1,85,86
 549 256 549 256 530 274 c 1,87,88
 512 293 512 293 512 320 c 0,89,90
 512 346 512 346 530 365 c 0,91,92
 549 384 549 384 576 384 c 0,93,94
 602 384 602 384 621 365 c 256,95,96
 640 346 640 346 640 320 c 0,97,98
 640 293 640 293 621 274 c 0,99,100
 602 256 602 256 576 256 c 1,101,-1
 576 256 l 1,85,86
576 384 m 1,102,103
 549 384 549 384 530 402 c 1,104,105
 512 421 512 421 512 448 c 0,106,107
 512 474 512 474 530 493 c 0,108,109
 549 512 549 512 576 512 c 0,110,111
 602 512 602 512 621 493 c 256,112,113
 640 474 640 474 640 448 c 0,114,115
 640 421 640 421 621 402 c 0,116,117
 602 384 602 384 576 384 c 1,118,-1
 576 384 l 1,102,103
64 512 m 1,119,120
 37 512 37 512 18 530 c 1,121,122
 0 549 0 549 0 576 c 0,123,124
 0 602 0 602 18 621 c 0,125,126
 37 640 37 640 64 640 c 0,127,128
 90 640 90 640 109 621 c 256,129,130
 128 602 128 602 128 576 c 0,131,132
 128 549 128 549 109 530 c 0,133,134
 90 512 90 512 64 512 c 1,135,-1
 64 512 l 1,119,120
192 512 m 1,136,137
 165 512 165 512 146 530 c 1,138,139
 128 549 128 549 128 576 c 0,140,141
 128 602 128 602 146 621 c 0,142,143
 165 640 165 640 192 640 c 0,144,145
 218 640 218 640 237 621 c 256,146,147
 256 602 256 602 256 576 c 0,148,149
 256 549 256 549 237 530 c 0,150,151
 218 512 218 512 192 512 c 1,152,-1
 192 512 l 1,136,137
320 512 m 1,153,154
 293 512 293 512 274 530 c 1,155,156
 256 549 256 549 256 576 c 0,157,158
 256 602 256 602 274 621 c 0,159,160
 293 640 293 640 320 640 c 0,161,162
 346 640 346 640 365 621 c 256,163,164
 384 602 384 602 384 576 c 0,165,166
 384 549 384 549 365 530 c 0,167,168
 346 512 346 512 320 512 c 1,169,-1
 320 512 l 1,153,154
448 512 m 1,170,171
 421 512 421 512 402 530 c 1,172,173
 384 549 384 549 384 576 c 0,174,175
 384 602 384 602 402 621 c 0,176,177
 421 640 421 640 448 640 c 0,178,179
 474 640 474 640 493 621 c 256,180,181
 512 602 512 602 512 576 c 0,182,183
 512 549 512 549 493 530 c 0,184,185
 474 512 474 512 448 512 c 1,186,-1
 448 512 l 1,170,171
64 640 m 1,187,188
 37 640 37 640 18 658 c 1,189,190
 0 677 0 677 0 704 c 0,191,192
 0 730 0 730 18 749 c 0,193,194
 37 768 37 768 64 768 c 0,195,196
 90 768 90 768 109 749 c 256,197,198
 128 730 128 730 128 704 c 0,199,200
 128 677 128 677 109 658 c 0,201,202
 90 640 90 640 64 640 c 1,203,-1
 64 640 l 1,187,188
64 768 m 1,204,205
 37 768 37 768 18 786 c 1,206,207
 0 805 0 805 0 832 c 0,208,209
 0 858 0 858 18 877 c 0,210,211
 37 896 37 896 64 896 c 0,212,213
 90 896 90 896 109 877 c 256,214,215
 128 858 128 858 128 832 c 0,216,217
 128 805 128 805 109 786 c 0,218,219
 90 768 90 768 64 768 c 1,220,-1
 64 768 l 1,204,205
192 768 m 1,221,222
 165 768 165 768 146 786 c 1,223,224
 128 805 128 805 128 832 c 0,225,226
 128 858 128 858 146 877 c 0,227,228
 165 896 165 896 192 896 c 0,229,230
 218 896 218 896 237 877 c 256,231,232
 256 858 256 858 256 832 c 0,233,234
 256 805 256 805 237 786 c 0,235,236
 218 768 218 768 192 768 c 1,237,-1
 192 768 l 1,221,222
320 768 m 1,238,239
 293 768 293 768 274 786 c 1,240,241
 256 805 256 805 256 832 c 0,242,243
 256 858 256 858 274 877 c 0,244,245
 293 896 293 896 320 896 c 0,246,247
 346 896 346 896 365 877 c 256,248,249
 384 858 384 858 384 832 c 0,250,251
 384 805 384 805 365 786 c 0,252,253
 346 768 346 768 320 768 c 1,254,-1
 320 768 l 1,238,239
448 768 m 1,255,256
 421 768 421 768 402 786 c 1,257,258
 384 805 384 805 384 832 c 0,259,260
 384 858 384 858 402 877 c 0,261,262
 421 896 421 896 448 896 c 0,263,264
 474 896 474 896 493 877 c 256,265,266
 512 858 512 858 512 832 c 0,267,268
 512 805 512 805 493 786 c 0,269,270
 474 768 474 768 448 768 c 1,271,-1
 448 768 l 1,255,256
576 768 m 1,272,273
 549 768 549 768 530 786 c 1,274,275
 512 805 512 805 512 832 c 0,276,277
 512 858 512 858 530 877 c 0,278,279
 549 896 549 896 576 896 c 0,280,281
 602 896 602 896 621 877 c 256,282,283
 640 858 640 858 640 832 c 0,284,285
 640 805 640 805 621 786 c 0,286,287
 602 768 602 768 576 768 c 1,288,-1
 576 768 l 1,272,273
EndSplineSet
Validated: 5
EndChar

StartChar: six
Encoding: 54 54 25
Width: 768
Flags: W
LayerCount: 2
Fore
SplineSet
192 0 m 1,0,1
 165 0 165 0 146 18 c 1,2,3
 128 37 128 37 128 64 c 0,4,5
 128 90 128 90 146 109 c 0,6,7
 165 128 165 128 192 128 c 0,8,9
 218 128 218 128 237 109 c 256,10,11
 256 90 256 90 256 64 c 0,12,13
 256 37 256 37 237 18 c 0,14,15
 218 0 218 0 192 0 c 1,16,-1
 192 0 l 1,0,1
320 0 m 1,17,18
 293 0 293 0 274 18 c 1,19,20
 256 37 256 37 256 64 c 0,21,22
 256 90 256 90 274 109 c 0,23,24
 293 128 293 128 320 128 c 0,25,26
 346 128 346 128 365 109 c 256,27,28
 384 90 384 90 384 64 c 0,29,30
 384 37 384 37 365 18 c 0,31,32
 346 0 346 0 320 0 c 1,33,-1
 320 0 l 1,17,18
448 0 m 1,34,35
 421 0 421 0 402 18 c 1,36,37
 384 37 384 37 384 64 c 0,38,39
 384 90 384 90 402 109 c 0,40,41
 421 128 421 128 448 128 c 0,42,43
 474 128 474 128 493 109 c 256,44,45
 512 90 512 90 512 64 c 0,46,47
 512 37 512 37 493 18 c 0,48,49
 474 0 474 0 448 0 c 1,50,-1
 448 0 l 1,34,35
64 128 m 1,51,52
 37 128 37 128 18 146 c 1,53,54
 0 165 0 165 0 192 c 0,55,56
 0 218 0 218 18 237 c 0,57,58
 37 256 37 256 64 256 c 0,59,60
 90 256 90 256 109 237 c 256,61,62
 128 218 128 218 128 192 c 0,63,64
 128 165 128 165 109 146 c 0,65,66
 90 128 90 128 64 128 c 1,67,-1
 64 128 l 1,51,52
576 128 m 1,68,69
 549 128 549 128 530 146 c 1,70,71
 512 165 512 165 512 192 c 0,72,73
 512 218 512 218 530 237 c 0,74,75
 549 256 549 256 576 256 c 0,76,77
 602 256 602 256 621 237 c 256,78,79
 640 218 640 218 640 192 c 0,80,81
 640 165 640 165 621 146 c 0,82,83
 602 128 602 128 576 128 c 1,84,-1
 576 128 l 1,68,69
64 256 m 1,85,86
 37 256 37 256 18 274 c 1,87,88
 0 293 0 293 0 320 c 0,89,90
 0 346 0 346 18 365 c 0,91,92
 37 384 37 384 64 384 c 0,93,94
 90 384 90 384 109 365 c 256,95,96
 128 346 128 346 128 320 c 0,97,98
 128 293 128 293 109 274 c 0,99,100
 90 256 90 256 64 256 c 1,101,-1
 64 256 l 1,85,86
576 256 m 1,102,103
 549 256 549 256 530 274 c 1,104,105
 512 293 512 293 512 320 c 0,106,107
 512 346 512 346 530 365 c 0,108,109
 549 384 549 384 576 384 c 0,110,111
 602 384 602 384 621 365 c 256,112,113
 640 346 640 346 640 320 c 0,114,115
 640 293 640 293 621 274 c 0,116,117
 602 256 602 256 576 256 c 1,118,-1
 576 256 l 1,102,103
64 384 m 1,119,120
 37 384 37 384 18 402 c 1,121,122
 0 421 0 421 0 448 c 0,123,124
 0 474 0 474 18 493 c 0,125,126
 37 512 37 512 64 512 c 0,127,128
 90 512 90 512 109 493 c 256,129,130
 128 474 128 474 128 448 c 0,131,132
 128 421 128 421 109 402 c 0,133,134
 90 384 90 384 64 384 c 1,135,-1
 64 384 l 1,119,120
192 384 m 1,136,137
 165 384 165 384 146 402 c 1,138,139
 128 421 128 421 128 448 c 0,140,141
 128 474 128 474 146 493 c 0,142,143
 165 512 165 512 192 512 c 0,144,145
 218 512 218 512 237 493 c 256,146,147
 256 474 256 474 256 448 c 0,148,149
 256 421 256 421 237 402 c 0,150,151
 218 384 218 384 192 384 c 1,152,-1
 192 384 l 1,136,137
320 384 m 1,153,154
 293 384 293 384 274 402 c 1,155,156
 256 421 256 421 256 448 c 0,157,158
 256 474 256 474 274 493 c 0,159,160
 293 512 293 512 320 512 c 0,161,162
 346 512 346 512 365 493 c 256,163,164
 384 474 384 474 384 448 c 0,165,166
 384 421 384 421 365 402 c 0,167,168
 346 384 346 384 320 384 c 1,169,-1
 320 384 l 1,153,154
448 384 m 1,170,171
 421 384 421 384 402 402 c 1,172,173
 384 421 384 421 384 448 c 0,174,175
 384 474 384 474 402 493 c 0,176,177
 421 512 421 512 448 512 c 0,178,179
 474 512 474 512 493 493 c 256,180,181
 512 474 512 474 512 448 c 0,182,183
 512 421 512 421 493 402 c 0,184,185
 474 384 474 384 448 384 c 1,186,-1
 448 384 l 1,170,171
64 512 m 1,187,188
 37 512 37 512 18 530 c 1,189,190
 0 549 0 549 0 576 c 0,191,192
 0 602 0 602 18 621 c 0,193,194
 37 640 37 640 64 640 c 0,195,196
 90 640 90 640 109 621 c 256,197,198
 128 602 128 602 128 576 c 0,199,200
 128 549 128 549 109 530 c 0,201,202
 90 512 90 512 64 512 c 1,203,-1
 64 512 l 1,187,188
192 640 m 1,204,205
 165 640 165 640 146 658 c 1,206,207
 128 677 128 677 128 704 c 0,208,209
 128 730 128 730 146 749 c 0,210,211
 165 768 165 768 192 768 c 0,212,213
 218 768 218 768 237 749 c 256,214,215
 256 730 256 730 256 704 c 0,216,217
 256 677 256 677 237 658 c 0,218,219
 218 640 218 640 192 640 c 1,220,-1
 192 640 l 1,204,205
320 768 m 1,221,222
 293 768 293 768 274 786 c 1,223,224
 256 805 256 805 256 832 c 0,225,226
 256 858 256 858 274 877 c 0,227,228
 293 896 293 896 320 896 c 0,229,230
 346 896 346 896 365 877 c 256,231,232
 384 858 384 858 384 832 c 0,233,234
 384 805 384 805 365 786 c 0,235,236
 346 768 346 768 320 768 c 1,237,-1
 320 768 l 1,221,222
448 768 m 1,238,239
 421 768 421 768 402 786 c 1,240,241
 384 805 384 805 384 832 c 0,242,243
 384 858 384 858 402 877 c 0,244,245
 421 896 421 896 448 896 c 0,246,247
 474 896 474 896 493 877 c 256,248,249
 512 858 512 858 512 832 c 0,250,251
 512 805 512 805 493 786 c 0,252,253
 474 768 474 768 448 768 c 1,254,-1
 448 768 l 1,238,239
EndSplineSet
Validated: 5
EndChar

StartChar: seven
Encoding: 55 55 26
Width: 768
Flags: W
LayerCount: 2
Fore
SplineSet
192 0 m 1,0,1
 165 0 165 0 146 18 c 1,2,3
 128 37 128 37 128 64 c 0,4,5
 128 90 128 90 146 109 c 0,6,7
 165 128 165 128 192 128 c 0,8,9
 218 128 218 128 237 109 c 256,10,11
 256 90 256 90 256 64 c 0,12,13
 256 37 256 37 237 18 c 0,14,15
 218 0 218 0 192 0 c 1,16,-1
 192 0 l 1,0,1
192 128 m 1,17,18
 165 128 165 128 146 146 c 1,19,20
 128 165 128 165 128 192 c 0,21,22
 128 218 128 218 146 237 c 0,23,24
 165 256 165 256 192 256 c 0,25,26
 218 256 218 256 237 237 c 256,27,28
 256 218 256 218 256 192 c 0,29,30
 256 165 256 165 237 146 c 0,31,32
 218 128 218 128 192 128 c 1,33,-1
 192 128 l 1,17,18
192 256 m 1,34,35
 165 256 165 256 146 274 c 1,36,37
 128 293 128 293 128 320 c 0,38,39
 128 346 128 346 146 365 c 0,40,41
 165 384 165 384 192 384 c 0,42,43
 218 384 218 384 237 365 c 256,44,45
 256 346 256 346 256 320 c 0,46,47
 256 293 256 293 237 274 c 0,48,49
 218 256 218 256 192 256 c 1,50,-1
 192 256 l 1,34,35
320 384 m 1,51,52
 293 384 293 384 274 402 c 1,53,54
 256 421 256 421 256 448 c 0,55,56
 256 474 256 474 274 493 c 0,57,58
 293 512 293 512 320 512 c 0,59,60
 346 512 346 512 365 493 c 256,61,62
 384 474 384 474 384 448 c 0,63,64
 384 421 384 421 365 402 c 0,65,66
 346 384 346 384 320 384 c 1,67,-1
 320 384 l 1,51,52
448 512 m 1,68,69
 421 512 421 512 402 530 c 1,70,71
 384 549 384 549 384 576 c 0,72,73
 384 602 384 602 402 621 c 0,74,75
 421 640 421 640 448 640 c 0,76,77
 474 640 474 640 493 621 c 256,78,79
 512 602 512 602 512 576 c 0,80,81
 512 549 512 549 493 530 c 0,82,83
 474 512 474 512 448 512 c 1,84,-1
 448 512 l 1,68,69
576 640 m 1,85,86
 549 640 549 640 530 658 c 1,87,88
 512 677 512 677 512 704 c 0,89,90
 512 730 512 730 530 749 c 0,91,92
 549 768 549 768 576 768 c 0,93,94
 602 768 602 768 621 749 c 256,95,96
 640 730 640 730 640 704 c 0,97,98
 640 677 640 677 621 658 c 0,99,100
 602 640 602 640 576 640 c 1,101,-1
 576 640 l 1,85,86
64 768 m 1,102,103
 37 768 37 768 18 786 c 1,104,105
 0 805 0 805 0 832 c 0,106,107
 0 858 0 858 18 877 c 0,108,109
 37 896 37 896 64 896 c 0,110,111
 90 896 90 896 109 877 c 256,112,113
 128 858 128 858 128 832 c 0,114,115
 128 805 128 805 109 786 c 0,116,117
 90 768 90 768 64 768 c 1,118,-1
 64 768 l 1,102,103
192 768 m 1,119,120
 165 768 165 768 146 786 c 1,121,122
 128 805 128 805 128 832 c 0,123,124
 128 858 128 858 146 877 c 0,125,126
 165 896 165 896 192 896 c 0,127,128
 218 896 218 896 237 877 c 256,129,130
 256 858 256 858 256 832 c 0,131,132
 256 805 256 805 237 786 c 0,133,134
 218 768 218 768 192 768 c 1,135,-1
 192 768 l 1,119,120
320 768 m 1,136,137
 293 768 293 768 274 786 c 1,138,139
 256 805 256 805 256 832 c 0,140,141
 256 858 256 858 274 877 c 0,142,143
 293 896 293 896 320 896 c 0,144,145
 346 896 346 896 365 877 c 256,146,147
 384 858 384 858 384 832 c 0,148,149
 384 805 384 805 365 786 c 0,150,151
 346 768 346 768 320 768 c 1,152,-1
 320 768 l 1,136,137
448 768 m 1,153,154
 421 768 421 768 402 786 c 1,155,156
 384 805 384 805 384 832 c 0,157,158
 384 858 384 858 402 877 c 0,159,160
 421 896 421 896 448 896 c 0,161,162
 474 896 474 896 493 877 c 256,163,164
 512 858 512 858 512 832 c 0,165,166
 512 805 512 805 493 786 c 0,167,168
 474 768 474 768 448 768 c 1,169,-1
 448 768 l 1,153,154
576 768 m 1,170,171
 549 768 549 768 530 786 c 1,172,173
 512 805 512 805 512 832 c 0,174,175
 512 858 512 858 530 877 c 0,176,177
 549 896 549 896 576 896 c 0,178,179
 602 896 602 896 621 877 c 256,180,181
 640 858 640 858 640 832 c 0,182,183
 640 805 640 805 621 786 c 0,184,185
 602 768 602 768 576 768 c 1,186,-1
 576 768 l 1,170,171
EndSplineSet
Validated: 5
EndChar

StartChar: eight
Encoding: 56 56 27
Width: 768
Flags: W
LayerCount: 2
Fore
SplineSet
192 0 m 1,0,1
 165 0 165 0 146 18 c 1,2,3
 128 37 128 37 128 64 c 0,4,5
 128 90 128 90 146 109 c 0,6,7
 165 128 165 128 192 128 c 0,8,9
 218 128 218 128 237 109 c 256,10,11
 256 90 256 90 256 64 c 0,12,13
 256 37 256 37 237 18 c 0,14,15
 218 0 218 0 192 0 c 1,16,-1
 192 0 l 1,0,1
320 0 m 1,17,18
 293 0 293 0 274 18 c 1,19,20
 256 37 256 37 256 64 c 0,21,22
 256 90 256 90 274 109 c 0,23,24
 293 128 293 128 320 128 c 0,25,26
 346 128 346 128 365 109 c 256,27,28
 384 90 384 90 384 64 c 0,29,30
 384 37 384 37 365 18 c 0,31,32
 346 0 346 0 320 0 c 1,33,-1
 320 0 l 1,17,18
448 0 m 1,34,35
 421 0 421 0 402 18 c 1,36,37
 384 37 384 37 384 64 c 0,38,39
 384 90 384 90 402 109 c 0,40,41
 421 128 421 128 448 128 c 0,42,43
 474 128 474 128 493 109 c 256,44,45
 512 90 512 90 512 64 c 0,46,47
 512 37 512 37 493 18 c 0,48,49
 474 0 474 0 448 0 c 1,50,-1
 448 0 l 1,34,35
64 128 m 1,51,52
 37 128 37 128 18 146 c 1,53,54
 0 165 0 165 0 192 c 0,55,56
 0 218 0 218 18 237 c 0,57,58
 37 256 37 256 64 256 c 0,59,60
 90 256 90 256 109 237 c 256,61,62
 128 218 128 218 128 192 c 0,63,64
 128 165 128 165 109 146 c 0,65,66
 90 128 90 128 64 128 c 1,67,-1
 64 128 l 1,51,52
576 128 m 1,68,69
 549 128 549 128 530 146 c 1,70,71
 512 165 512 165 512 192 c 0,72,73
 512 218 512 218 530 237 c 0,74,75
 549 256 549 256 576 256 c 0,76,77
 602 256 602 256 621 237 c 256,78,79
 640 218 640 218 640 192 c 0,80,81
 640 165 640 165 621 146 c 0,82,83
 602 128 602 128 576 128 c 1,84,-1
 576 128 l 1,68,69
64 256 m 1,85,86
 37 256 37 256 18 274 c 1,87,88
 0 293 0 293 0 320 c 0,89,90
 0 346 0 346 18 365 c 0,91,92
 37 384 37 384 64 384 c 0,93,94
 90 384 90 384 109 365 c 256,95,96
 128 346 128 346 128 320 c 0,97,98
 128 293 128 293 109 274 c 0,99,100
 90 256 90 256 64 256 c 1,101,-1
 64 256 l 1,85,86
576 256 m 1,102,103
 549 256 549 256 530 274 c 1,104,105
 512 293 512 293 512 320 c 0,106,107
 512 346 512 346 530 365 c 0,108,109
 549 384 549 384 576 384 c 0,110,111
 602 384 602 384 621 365 c 256,112,113
 640 346 640 346 640 320 c 0,114,115
 640 293 640 293 621 274 c 0,116,117
 602 256 602 256 576 256 c 1,118,-1
 576 256 l 1,102,103
192 384 m 1,119,120
 165 384 165 384 146 402 c 1,121,122
 128 421 128 421 128 448 c 0,123,124
 128 474 128 474 146 493 c 0,125,126
 165 512 165 512 192 512 c 0,127,128
 218 512 218 512 237 493 c 256,129,130
 256 474 256 474 256 448 c 0,131,132
 256 421 256 421 237 402 c 0,133,134
 218 384 218 384 192 384 c 1,135,-1
 192 384 l 1,119,120
320 384 m 1,136,137
 293 384 293 384 274 402 c 1,138,139
 256 421 256 421 256 448 c 0,140,141
 256 474 256 474 274 493 c 0,142,143
 293 512 293 512 320 512 c 0,144,145
 346 512 346 512 365 493 c 256,146,147
 384 474 384 474 384 448 c 0,148,149
 384 421 384 421 365 402 c 0,150,151
 346 384 346 384 320 384 c 1,152,-1
 320 384 l 1,136,137
448 384 m 1,153,154
 421 384 421 384 402 402 c 1,155,156
 384 421 384 421 384 448 c 0,157,158
 384 474 384 474 402 493 c 0,159,160
 421 512 421 512 448 512 c 0,161,162
 474 512 474 512 493 493 c 256,163,164
 512 474 512 474 512 448 c 0,165,166
 512 421 512 421 493 402 c 0,167,168
 474 384 474 384 448 384 c 1,169,-1
 448 384 l 1,153,154
64 512 m 1,170,171
 37 512 37 512 18 530 c 1,172,173
 0 549 0 549 0 576 c 0,174,175
 0 602 0 602 18 621 c 0,176,177
 37 640 37 640 64 640 c 0,178,179
 90 640 90 640 109 621 c 256,180,181
 128 602 128 602 128 576 c 0,182,183
 128 549 128 549 109 530 c 0,184,185
 90 512 90 512 64 512 c 1,186,-1
 64 512 l 1,170,171
576 512 m 1,187,188
 549 512 549 512 530 530 c 1,189,190
 512 549 512 549 512 576 c 0,191,192
 512 602 512 602 530 621 c 0,193,194
 549 640 549 640 576 640 c 0,195,196
 602 640 602 640 621 621 c 256,197,198
 640 602 640 602 640 576 c 0,199,200
 640 549 640 549 621 530 c 0,201,202
 602 512 602 512 576 512 c 1,203,-1
 576 512 l 1,187,188
64 640 m 1,204,205
 37 640 37 640 18 658 c 1,206,207
 0 677 0 677 0 704 c 0,208,209
 0 730 0 730 18 749 c 0,210,211
 37 768 37 768 64 768 c 0,212,213
 90 768 90 768 109 749 c 256,214,215
 128 730 128 730 128 704 c 0,216,217
 128 677 128 677 109 658 c 0,218,219
 90 640 90 640 64 640 c 1,220,-1
 64 640 l 1,204,205
576 640 m 1,221,222
 549 640 549 640 530 658 c 1,223,224
 512 677 512 677 512 704 c 0,225,226
 512 730 512 730 530 749 c 0,227,228
 549 768 549 768 576 768 c 0,229,230
 602 768 602 768 621 749 c 256,231,232
 640 730 640 730 640 704 c 0,233,234
 640 677 640 677 621 658 c 0,235,236
 602 640 602 640 576 640 c 1,237,-1
 576 640 l 1,221,222
192 768 m 1,238,239
 165 768 165 768 146 786 c 1,240,241
 128 805 128 805 128 832 c 0,242,243
 128 858 128 858 146 877 c 0,244,245
 165 896 165 896 192 896 c 0,246,247
 218 896 218 896 237 877 c 256,248,249
 256 858 256 858 256 832 c 0,250,251
 256 805 256 805 237 786 c 0,252,253
 218 768 218 768 192 768 c 1,254,-1
 192 768 l 1,238,239
320 768 m 1,255,256
 293 768 293 768 274 786 c 1,257,258
 256 805 256 805 256 832 c 0,259,260
 256 858 256 858 274 877 c 0,261,262
 293 896 293 896 320 896 c 0,263,264
 346 896 346 896 365 877 c 256,265,266
 384 858 384 858 384 832 c 0,267,268
 384 805 384 805 365 786 c 0,269,270
 346 768 346 768 320 768 c 1,271,-1
 320 768 l 1,255,256
448 768 m 1,272,273
 421 768 421 768 402 786 c 1,274,275
 384 805 384 805 384 832 c 0,276,277
 384 858 384 858 402 877 c 0,278,279
 421 896 421 896 448 896 c 0,280,281
 474 896 474 896 493 877 c 256,282,283
 512 858 512 858 512 832 c 0,284,285
 512 805 512 805 493 786 c 0,286,287
 474 768 474 768 448 768 c 1,288,-1
 448 768 l 1,272,273
EndSplineSet
Validated: 5
EndChar

StartChar: nine
Encoding: 57 57 28
Width: 768
Flags: W
LayerCount: 2
Fore
SplineSet
192 0 m 1,0,1
 165 0 165 0 146 18 c 1,2,3
 128 37 128 37 128 64 c 0,4,5
 128 90 128 90 146 109 c 0,6,7
 165 128 165 128 192 128 c 0,8,9
 218 128 218 128 237 109 c 256,10,11
 256 90 256 90 256 64 c 0,12,13
 256 37 256 37 237 18 c 0,14,15
 218 0 218 0 192 0 c 1,16,-1
 192 0 l 1,0,1
320 0 m 1,17,18
 293 0 293 0 274 18 c 1,19,20
 256 37 256 37 256 64 c 0,21,22
 256 90 256 90 274 109 c 0,23,24
 293 128 293 128 320 128 c 0,25,26
 346 128 346 128 365 109 c 256,27,28
 384 90 384 90 384 64 c 0,29,30
 384 37 384 37 365 18 c 0,31,32
 346 0 346 0 320 0 c 1,33,-1
 320 0 l 1,17,18
448 128 m 1,34,35
 421 128 421 128 402 146 c 1,36,37
 384 165 384 165 384 192 c 0,38,39
 384 218 384 218 402 237 c 0,40,41
 421 256 421 256 448 256 c 0,42,43
 474 256 474 256 493 237 c 256,44,45
 512 218 512 218 512 192 c 0,46,47
 512 165 512 165 493 146 c 0,48,49
 474 128 474 128 448 128 c 1,50,-1
 448 128 l 1,34,35
576 256 m 1,51,52
 549 256 549 256 530 274 c 1,53,54
 512 293 512 293 512 320 c 0,55,56
 512 346 512 346 530 365 c 0,57,58
 549 384 549 384 576 384 c 0,59,60
 602 384 602 384 621 365 c 256,61,62
 640 346 640 346 640 320 c 0,63,64
 640 293 640 293 621 274 c 0,65,66
 602 256 602 256 576 256 c 1,67,-1
 576 256 l 1,51,52
192 384 m 1,68,69
 165 384 165 384 146 402 c 1,70,71
 128 421 128 421 128 448 c 0,72,73
 128 474 128 474 146 493 c 0,74,75
 165 512 165 512 192 512 c 0,76,77
 218 512 218 512 237 493 c 256,78,79
 256 474 256 474 256 448 c 0,80,81
 256 421 256 421 237 402 c 0,82,83
 218 384 218 384 192 384 c 1,84,-1
 192 384 l 1,68,69
320 384 m 1,85,86
 293 384 293 384 274 402 c 1,87,88
 256 421 256 421 256 448 c 0,89,90
 256 474 256 474 274 493 c 0,91,92
 293 512 293 512 320 512 c 0,93,94
 346 512 346 512 365 493 c 256,95,96
 384 474 384 474 384 448 c 0,97,98
 384 421 384 421 365 402 c 0,99,100
 346 384 346 384 320 384 c 1,101,-1
 320 384 l 1,85,86
448 384 m 1,102,103
 421 384 421 384 402 402 c 1,104,105
 384 421 384 421 384 448 c 0,106,107
 384 474 384 474 402 493 c 0,108,109
 421 512 421 512 448 512 c 0,110,111
 474 512 474 512 493 493 c 256,112,113
 512 474 512 474 512 448 c 0,114,115
 512 421 512 421 493 402 c 0,116,117
 474 384 474 384 448 384 c 1,118,-1
 448 384 l 1,102,103
576 384 m 1,119,120
 549 384 549 384 530 402 c 1,121,122
 512 421 512 421 512 448 c 0,123,124
 512 474 512 474 530 493 c 0,125,126
 549 512 549 512 576 512 c 0,127,128
 602 512 602 512 621 493 c 256,129,130
 640 474 640 474 640 448 c 0,131,132
 640 421 640 421 621 402 c 0,133,134
 602 384 602 384 576 384 c 1,135,-1
 576 384 l 1,119,120
64 512 m 1,136,137
 37 512 37 512 18 530 c 1,138,139
 0 549 0 549 0 576 c 0,140,141
 0 602 0 602 18 621 c 0,142,143
 37 640 37 640 64 640 c 0,144,145
 90 640 90 640 109 621 c 256,146,147
 128 602 128 602 128 576 c 0,148,149
 128 549 128 549 109 530 c 0,150,151
 90 512 90 512 64 512 c 1,152,-1
 64 512 l 1,136,137
576 512 m 1,153,154
 549 512 549 512 530 530 c 1,155,156
 512 549 512 549 512 576 c 0,157,158
 512 602 512 602 530 621 c 0,159,160
 549 640 549 640 576 640 c 0,161,162
 602 640 602 640 621 621 c 256,163,164
 640 602 640 602 640 576 c 0,165,166
 640 549 640 549 621 530 c 0,167,168
 602 512 602 512 576 512 c 1,169,-1
 576 512 l 1,153,154
64 640 m 1,170,171
 37 640 37 640 18 658 c 1,172,173
 0 677 0 677 0 704 c 0,174,175
 0 730 0 730 18 749 c 0,176,177
 37 768 37 768 64 768 c 0,178,179
 90 768 90 768 109 749 c 256,180,181
 128 730 128 730 128 704 c 0,182,183
 128 677 128 677 109 658 c 0,184,185
 90 640 90 640 64 640 c 1,186,-1
 64 640 l 1,170,171
576 640 m 1,187,188
 549 640 549 640 530 658 c 1,189,190
 512 677 512 677 512 704 c 0,191,192
 512 730 512 730 530 749 c 0,193,194
 549 768 549 768 576 768 c 0,195,196
 602 768 602 768 621 749 c 256,197,198
 640 730 640 730 640 704 c 0,199,200
 640 677 640 677 621 658 c 0,201,202
 602 640 602 640 576 640 c 1,203,-1
 576 640 l 1,187,188
192 768 m 1,204,205
 165 768 165 768 146 786 c 1,206,207
 128 805 128 805 128 832 c 0,208,209
 128 858 128 858 146 877 c 0,210,211
 165 896 165 896 192 896 c 0,212,213
 218 896 218 896 237 877 c 256,214,215
 256 858 256 858 256 832 c 0,216,217
 256 805 256 805 237 786 c 0,218,219
 218 768 218 768 192 768 c 1,220,-1
 192 768 l 1,204,205
320 768 m 1,221,222
 293 768 293 768 274 786 c 1,223,224
 256 805 256 805 256 832 c 0,225,226
 256 858 256 858 274 877 c 0,227,228
 293 896 293 896 320 896 c 0,229,230
 346 896 346 896 365 877 c 256,231,232
 384 858 384 858 384 832 c 0,233,234
 384 805 384 805 365 786 c 0,235,236
 346 768 346 768 320 768 c 1,237,-1
 320 768 l 1,221,222
448 768 m 1,238,239
 421 768 421 768 402 786 c 1,240,241
 384 805 384 805 384 832 c 0,242,243
 384 858 384 858 402 877 c 0,244,245
 421 896 421 896 448 896 c 0,246,247
 474 896 474 896 493 877 c 256,248,249
 512 858 512 858 512 832 c 0,250,251
 512 805 512 805 493 786 c 0,252,253
 474 768 474 768 448 768 c 1,254,-1
 448 768 l 1,238,239
EndSplineSet
Validated: 5
EndChar

StartChar: colon
Encoding: 58 58 29
Width: 768
Flags: W
LayerCount: 2
Fore
SplineSet
448 256 m 5,0,1
 421 256 421 256 402 274 c 5,2,3
 384 293 384 293 384 320 c 4,4,5
 384 346 384 346 402 365 c 4,6,7
 421 384 421 384 448 384 c 4,8,9
 474 384 474 384 493 365 c 260,10,11
 512 346 512 346 512 320 c 4,12,13
 512 293 512 293 493 274 c 4,14,15
 474 256 474 256 448 256 c 5,16,-1
 448 256 l 5,0,1
448 512 m 5,17,18
 421 512 421 512 402 530 c 5,19,20
 384 549 384 549 384 576 c 4,21,22
 384 602 384 602 402 621 c 4,23,24
 421 640 421 640 448 640 c 4,25,26
 474 640 474 640 493 621 c 260,27,28
 512 602 512 602 512 576 c 4,29,30
 512 549 512 549 493 530 c 4,31,32
 474 512 474 512 448 512 c 5,33,-1
 448 512 l 5,17,18
EndSplineSet
Validated: 5
EndChar

StartChar: semicolon
Encoding: 59 59 30
Width: 768
Flags: W
LayerCount: 2
Fore
SplineSet
320 128 m 5,0,1
 293 128 293 128 274 146 c 5,2,3
 256 165 256 165 256 192 c 4,4,5
 256 218 256 218 274 237 c 4,6,7
 293 256 293 256 320 256 c 4,8,9
 346 256 346 256 365 237 c 260,10,11
 384 218 384 218 384 192 c 4,12,13
 384 165 384 165 365 146 c 4,14,15
 346 128 346 128 320 128 c 5,16,-1
 320 128 l 5,0,1
448 256 m 5,17,18
 421 256 421 256 402 274 c 5,19,20
 384 293 384 293 384 320 c 4,21,22
 384 346 384 346 402 365 c 4,23,24
 421 384 421 384 448 384 c 4,25,26
 474 384 474 384 493 365 c 260,27,28
 512 346 512 346 512 320 c 4,29,30
 512 293 512 293 493 274 c 4,31,32
 474 256 474 256 448 256 c 5,33,-1
 448 256 l 5,17,18
448 512 m 5,34,35
 421 512 421 512 402 530 c 5,36,37
 384 549 384 549 384 576 c 4,38,39
 384 602 384 602 402 621 c 4,40,41
 421 640 421 640 448 640 c 4,42,43
 474 640 474 640 493 621 c 260,44,45
 512 602 512 602 512 576 c 4,46,47
 512 549 512 549 493 530 c 4,48,49
 474 512 474 512 448 512 c 5,50,-1
 448 512 l 5,34,35
EndSplineSet
Validated: 5
EndChar

StartChar: less
Encoding: 60 60 31
Width: 768
Flags: W
LayerCount: 2
Fore
SplineSet
512 0 m 5,0,1
 485 0 485 0 466 18 c 5,2,3
 448 37 448 37 448 64 c 4,4,5
 448 90 448 90 466 109 c 4,6,7
 485 128 485 128 512 128 c 4,8,9
 538 128 538 128 557 109 c 260,10,11
 576 90 576 90 576 64 c 4,12,13
 576 37 576 37 557 18 c 4,14,15
 538 0 538 0 512 0 c 5,16,-1
 512 0 l 5,0,1
384 128 m 5,17,18
 357 128 357 128 338 146 c 5,19,20
 320 165 320 165 320 192 c 4,21,22
 320 218 320 218 338 237 c 4,23,24
 357 256 357 256 384 256 c 4,25,26
 410 256 410 256 429 237 c 260,27,28
 448 218 448 218 448 192 c 4,29,30
 448 165 448 165 429 146 c 4,31,32
 410 128 410 128 384 128 c 5,33,-1
 384 128 l 5,17,18
256 256 m 5,34,35
 229 256 229 256 210 274 c 5,36,37
 192 293 192 293 192 320 c 4,38,39
 192 346 192 346 210 365 c 4,40,41
 229 384 229 384 256 384 c 4,42,43
 282 384 282 384 301 365 c 260,44,45
 320 346 320 346 320 320 c 4,46,47
 320 293 320 293 301 274 c 4,48,49
 282 256 282 256 256 256 c 5,50,-1
 256 256 l 5,34,35
128 384 m 5,51,52
 101 384 101 384 82 402 c 5,53,54
 64 421 64 421 64 448 c 4,55,56
 64 474 64 474 82 493 c 4,57,58
 101 512 101 512 128 512 c 4,59,60
 154 512 154 512 173 493 c 260,61,62
 192 474 192 474 192 448 c 4,63,64
 192 421 192 421 173 402 c 4,65,66
 154 384 154 384 128 384 c 5,67,-1
 128 384 l 5,51,52
256 512 m 5,68,69
 229 512 229 512 210 530 c 5,70,71
 192 549 192 549 192 576 c 4,72,73
 192 602 192 602 210 621 c 4,74,75
 229 640 229 640 256 640 c 4,76,77
 282 640 282 640 301 621 c 260,78,79
 320 602 320 602 320 576 c 4,80,81
 320 549 320 549 301 530 c 4,82,83
 282 512 282 512 256 512 c 5,84,-1
 256 512 l 5,68,69
384 640 m 5,85,86
 357 640 357 640 338 658 c 5,87,88
 320 677 320 677 320 704 c 4,89,90
 320 730 320 730 338 749 c 4,91,92
 357 768 357 768 384 768 c 4,93,94
 410 768 410 768 429 749 c 260,95,96
 448 730 448 730 448 704 c 4,97,98
 448 677 448 677 429 658 c 4,99,100
 410 640 410 640 384 640 c 5,101,-1
 384 640 l 5,85,86
512 768 m 5,102,103
 485 768 485 768 466 786 c 5,104,105
 448 805 448 805 448 832 c 4,106,107
 448 858 448 858 466 877 c 4,108,109
 485 896 485 896 512 896 c 4,110,111
 538 896 538 896 557 877 c 260,112,113
 576 858 576 858 576 832 c 4,114,115
 576 805 576 805 557 786 c 4,116,117
 538 768 538 768 512 768 c 5,118,-1
 512 768 l 5,102,103
EndSplineSet
Validated: 5
EndChar

StartChar: equal
Encoding: 61 61 32
Width: 768
Flags: W
LayerCount: 2
Fore
SplineSet
64 256 m 1,0,1
 37 256 37 256 18 274 c 1,2,3
 0 293 0 293 0 320 c 0,4,5
 0 346 0 346 18 365 c 0,6,7
 37 384 37 384 64 384 c 0,8,9
 90 384 90 384 109 365 c 256,10,11
 128 346 128 346 128 320 c 0,12,13
 128 293 128 293 109 274 c 0,14,15
 90 256 90 256 64 256 c 1,16,-1
 64 256 l 1,0,1
192 256 m 1,17,18
 165 256 165 256 146 274 c 1,19,20
 128 293 128 293 128 320 c 0,21,22
 128 346 128 346 146 365 c 0,23,24
 165 384 165 384 192 384 c 0,25,26
 218 384 218 384 237 365 c 256,27,28
 256 346 256 346 256 320 c 0,29,30
 256 293 256 293 237 274 c 0,31,32
 218 256 218 256 192 256 c 1,33,-1
 192 256 l 1,17,18
320 256 m 1,34,35
 293 256 293 256 274 274 c 1,36,37
 256 293 256 293 256 320 c 0,38,39
 256 346 256 346 274 365 c 0,40,41
 293 384 293 384 320 384 c 0,42,43
 346 384 346 384 365 365 c 256,44,45
 384 346 384 346 384 320 c 0,46,47
 384 293 384 293 365 274 c 0,48,49
 346 256 346 256 320 256 c 1,50,-1
 320 256 l 1,34,35
448 256 m 1,51,52
 421 256 421 256 402 274 c 1,53,54
 384 293 384 293 384 320 c 0,55,56
 384 346 384 346 402 365 c 0,57,58
 421 384 421 384 448 384 c 0,59,60
 474 384 474 384 493 365 c 256,61,62
 512 346 512 346 512 320 c 0,63,64
 512 293 512 293 493 274 c 0,65,66
 474 256 474 256 448 256 c 1,67,-1
 448 256 l 1,51,52
576 256 m 1,68,69
 549 256 549 256 530 274 c 1,70,71
 512 293 512 293 512 320 c 0,72,73
 512 346 512 346 530 365 c 0,74,75
 549 384 549 384 576 384 c 0,76,77
 602 384 602 384 621 365 c 256,78,79
 640 346 640 346 640 320 c 0,80,81
 640 293 640 293 621 274 c 0,82,83
 602 256 602 256 576 256 c 1,84,-1
 576 256 l 1,68,69
64 512 m 1,85,86
 37 512 37 512 18 530 c 1,87,88
 0 549 0 549 0 576 c 0,89,90
 0 602 0 602 18 621 c 0,91,92
 37 640 37 640 64 640 c 0,93,94
 90 640 90 640 109 621 c 256,95,96
 128 602 128 602 128 576 c 0,97,98
 128 549 128 549 109 530 c 0,99,100
 90 512 90 512 64 512 c 1,101,-1
 64 512 l 1,85,86
192 512 m 1,102,103
 165 512 165 512 146 530 c 1,104,105
 128 549 128 549 128 576 c 0,106,107
 128 602 128 602 146 621 c 0,108,109
 165 640 165 640 192 640 c 0,110,111
 218 640 218 640 237 621 c 256,112,113
 256 602 256 602 256 576 c 0,114,115
 256 549 256 549 237 530 c 0,116,117
 218 512 218 512 192 512 c 1,118,-1
 192 512 l 1,102,103
320 512 m 1,119,120
 293 512 293 512 274 530 c 1,121,122
 256 549 256 549 256 576 c 0,123,124
 256 602 256 602 274 621 c 0,125,126
 293 640 293 640 320 640 c 0,127,128
 346 640 346 640 365 621 c 256,129,130
 384 602 384 602 384 576 c 0,131,132
 384 549 384 549 365 530 c 0,133,134
 346 512 346 512 320 512 c 1,135,-1
 320 512 l 1,119,120
448 512 m 1,136,137
 421 512 421 512 402 530 c 1,138,139
 384 549 384 549 384 576 c 0,140,141
 384 602 384 602 402 621 c 0,142,143
 421 640 421 640 448 640 c 0,144,145
 474 640 474 640 493 621 c 256,146,147
 512 602 512 602 512 576 c 0,148,149
 512 549 512 549 493 530 c 0,150,151
 474 512 474 512 448 512 c 1,152,-1
 448 512 l 1,136,137
576 512 m 1,153,154
 549 512 549 512 530 530 c 1,155,156
 512 549 512 549 512 576 c 0,157,158
 512 602 512 602 530 621 c 0,159,160
 549 640 549 640 576 640 c 0,161,162
 602 640 602 640 621 621 c 256,163,164
 640 602 640 602 640 576 c 0,165,166
 640 549 640 549 621 530 c 0,167,168
 602 512 602 512 576 512 c 1,169,-1
 576 512 l 1,153,154
EndSplineSet
Validated: 5
EndChar

StartChar: greater
Encoding: 62 62 33
Width: 768
Flags: W
LayerCount: 2
Fore
SplineSet
128 0 m 5,0,1
 101 0 101 0 82 18 c 5,2,3
 64 37 64 37 64 64 c 4,4,5
 64 90 64 90 82 109 c 4,6,7
 101 128 101 128 128 128 c 4,8,9
 154 128 154 128 173 109 c 260,10,11
 192 90 192 90 192 64 c 4,12,13
 192 37 192 37 173 18 c 4,14,15
 154 0 154 0 128 0 c 5,16,-1
 128 0 l 5,0,1
256 128 m 5,17,18
 229 128 229 128 210 146 c 5,19,20
 192 165 192 165 192 192 c 4,21,22
 192 218 192 218 210 237 c 4,23,24
 229 256 229 256 256 256 c 4,25,26
 282 256 282 256 301 237 c 260,27,28
 320 218 320 218 320 192 c 4,29,30
 320 165 320 165 301 146 c 4,31,32
 282 128 282 128 256 128 c 5,33,-1
 256 128 l 5,17,18
384 256 m 5,34,35
 357 256 357 256 338 274 c 5,36,37
 320 293 320 293 320 320 c 4,38,39
 320 346 320 346 338 365 c 4,40,41
 357 384 357 384 384 384 c 4,42,43
 410 384 410 384 429 365 c 260,44,45
 448 346 448 346 448 320 c 4,46,47
 448 293 448 293 429 274 c 4,48,49
 410 256 410 256 384 256 c 5,50,-1
 384 256 l 5,34,35
512 384 m 5,51,52
 485 384 485 384 466 402 c 5,53,54
 448 421 448 421 448 448 c 4,55,56
 448 474 448 474 466 493 c 4,57,58
 485 512 485 512 512 512 c 4,59,60
 538 512 538 512 557 493 c 260,61,62
 576 474 576 474 576 448 c 4,63,64
 576 421 576 421 557 402 c 4,65,66
 538 384 538 384 512 384 c 5,67,-1
 512 384 l 5,51,52
384 512 m 5,68,69
 357 512 357 512 338 530 c 5,70,71
 320 549 320 549 320 576 c 4,72,73
 320 602 320 602 338 621 c 4,74,75
 357 640 357 640 384 640 c 4,76,77
 410 640 410 640 429 621 c 260,78,79
 448 602 448 602 448 576 c 4,80,81
 448 549 448 549 429 530 c 4,82,83
 410 512 410 512 384 512 c 5,84,-1
 384 512 l 5,68,69
256 640 m 5,85,86
 229 640 229 640 210 658 c 5,87,88
 192 677 192 677 192 704 c 4,89,90
 192 730 192 730 210 749 c 4,91,92
 229 768 229 768 256 768 c 4,93,94
 282 768 282 768 301 749 c 260,95,96
 320 730 320 730 320 704 c 4,97,98
 320 677 320 677 301 658 c 4,99,100
 282 640 282 640 256 640 c 5,101,-1
 256 640 l 5,85,86
128 768 m 5,102,103
 101 768 101 768 82 786 c 5,104,105
 64 805 64 805 64 832 c 4,106,107
 64 858 64 858 82 877 c 4,108,109
 101 896 101 896 128 896 c 4,110,111
 154 896 154 896 173 877 c 260,112,113
 192 858 192 858 192 832 c 4,114,115
 192 805 192 805 173 786 c 4,116,117
 154 768 154 768 128 768 c 5,118,-1
 128 768 l 5,102,103
EndSplineSet
Validated: 5
EndChar

StartChar: question
Encoding: 63 63 34
Width: 768
Flags: W
LayerCount: 2
Fore
SplineSet
320 0 m 1,0,1
 293 0 293 0 274 18 c 1,2,3
 256 37 256 37 256 64 c 0,4,5
 256 90 256 90 274 109 c 0,6,7
 293 128 293 128 320 128 c 0,8,9
 346 128 346 128 365 109 c 256,10,11
 384 90 384 90 384 64 c 0,12,13
 384 37 384 37 365 18 c 0,14,15
 346 0 346 0 320 0 c 1,16,-1
 320 0 l 1,0,1
320 256 m 1,17,18
 293 256 293 256 274 274 c 1,19,20
 256 293 256 293 256 320 c 0,21,22
 256 346 256 346 274 365 c 0,23,24
 293 384 293 384 320 384 c 0,25,26
 346 384 346 384 365 365 c 256,27,28
 384 346 384 346 384 320 c 0,29,30
 384 293 384 293 365 274 c 0,31,32
 346 256 346 256 320 256 c 1,33,-1
 320 256 l 1,17,18
320 384 m 1,34,35
 293 384 293 384 274 402 c 1,36,37
 256 421 256 421 256 448 c 0,38,39
 256 474 256 474 274 493 c 0,40,41
 293 512 293 512 320 512 c 0,42,43
 346 512 346 512 365 493 c 256,44,45
 384 474 384 474 384 448 c 0,46,47
 384 421 384 421 365 402 c 0,48,49
 346 384 346 384 320 384 c 1,50,-1
 320 384 l 1,34,35
448 512 m 1,51,52
 421 512 421 512 402 530 c 1,53,54
 384 549 384 549 384 576 c 0,55,56
 384 602 384 602 402 621 c 0,57,58
 421 640 421 640 448 640 c 0,59,60
 474 640 474 640 493 621 c 256,61,62
 512 602 512 602 512 576 c 0,63,64
 512 549 512 549 493 530 c 0,65,66
 474 512 474 512 448 512 c 1,67,-1
 448 512 l 1,51,52
64 640 m 1,68,69
 37 640 37 640 18 658 c 1,70,71
 0 677 0 677 0 704 c 0,72,73
 0 730 0 730 18 749 c 0,74,75
 37 768 37 768 64 768 c 0,76,77
 90 768 90 768 109 749 c 256,78,79
 128 730 128 730 128 704 c 0,80,81
 128 677 128 677 109 658 c 0,82,83
 90 640 90 640 64 640 c 1,84,-1
 64 640 l 1,68,69
576 640 m 1,85,86
 549 640 549 640 530 658 c 1,87,88
 512 677 512 677 512 704 c 0,89,90
 512 730 512 730 530 749 c 0,91,92
 549 768 549 768 576 768 c 0,93,94
 602 768 602 768 621 749 c 256,95,96
 640 730 640 730 640 704 c 0,97,98
 640 677 640 677 621 658 c 0,99,100
 602 640 602 640 576 640 c 1,101,-1
 576 640 l 1,85,86
192 768 m 1,102,103
 165 768 165 768 146 786 c 1,104,105
 128 805 128 805 128 832 c 0,106,107
 128 858 128 858 146 877 c 0,108,109
 165 896 165 896 192 896 c 0,110,111
 218 896 218 896 237 877 c 256,112,113
 256 858 256 858 256 832 c 0,114,115
 256 805 256 805 237 786 c 0,116,117
 218 768 218 768 192 768 c 1,118,-1
 192 768 l 1,102,103
320 768 m 1,119,120
 293 768 293 768 274 786 c 1,121,122
 256 805 256 805 256 832 c 0,123,124
 256 858 256 858 274 877 c 0,125,126
 293 896 293 896 320 896 c 0,127,128
 346 896 346 896 365 877 c 256,129,130
 384 858 384 858 384 832 c 0,131,132
 384 805 384 805 365 786 c 0,133,134
 346 768 346 768 320 768 c 1,135,-1
 320 768 l 1,119,120
448 768 m 1,136,137
 421 768 421 768 402 786 c 1,138,139
 384 805 384 805 384 832 c 0,140,141
 384 858 384 858 402 877 c 0,142,143
 421 896 421 896 448 896 c 0,144,145
 474 896 474 896 493 877 c 256,146,147
 512 858 512 858 512 832 c 0,148,149
 512 805 512 805 493 786 c 0,150,151
 474 768 474 768 448 768 c 1,152,-1
 448 768 l 1,136,137
EndSplineSet
Validated: 5
EndChar

StartChar: at
Encoding: 64 64 35
Width: 768
Flags: W
LayerCount: 2
Fore
SplineSet
192 0 m 1,0,1
 165 0 165 0 146 18 c 1,2,3
 128 37 128 37 128 64 c 0,4,5
 128 90 128 90 146 109 c 0,6,7
 165 128 165 128 192 128 c 0,8,9
 218 128 218 128 237 109 c 256,10,11
 256 90 256 90 256 64 c 0,12,13
 256 37 256 37 237 18 c 0,14,15
 218 0 218 0 192 0 c 1,16,-1
 192 0 l 1,0,1
448 0 m 1,17,18
 421 0 421 0 402 18 c 1,19,20
 384 37 384 37 384 64 c 0,21,22
 384 90 384 90 402 109 c 0,23,24
 421 128 421 128 448 128 c 0,25,26
 474 128 474 128 493 109 c 256,27,28
 512 90 512 90 512 64 c 0,29,30
 512 37 512 37 493 18 c 0,31,32
 474 0 474 0 448 0 c 1,33,-1
 448 0 l 1,17,18
64 128 m 1,34,35
 37 128 37 128 18 146 c 1,36,37
 0 165 0 165 0 192 c 0,38,39
 0 218 0 218 18 237 c 0,40,41
 37 256 37 256 64 256 c 0,42,43
 90 256 90 256 109 237 c 256,44,45
 128 218 128 218 128 192 c 0,46,47
 128 165 128 165 109 146 c 0,48,49
 90 128 90 128 64 128 c 1,50,-1
 64 128 l 1,34,35
320 128 m 1,51,52
 293 128 293 128 274 146 c 1,53,54
 256 165 256 165 256 192 c 0,55,56
 256 218 256 218 274 237 c 0,57,58
 293 256 293 256 320 256 c 0,59,60
 346 256 346 256 365 237 c 256,61,62
 384 218 384 218 384 192 c 0,63,64
 384 165 384 165 365 146 c 0,65,66
 346 128 346 128 320 128 c 1,67,-1
 320 128 l 1,51,52
576 128 m 1,68,69
 549 128 549 128 530 146 c 1,70,71
 512 165 512 165 512 192 c 0,72,73
 512 218 512 218 530 237 c 0,74,75
 549 256 549 256 576 256 c 0,76,77
 602 256 602 256 621 237 c 256,78,79
 640 218 640 218 640 192 c 0,80,81
 640 165 640 165 621 146 c 0,82,83
 602 128 602 128 576 128 c 1,84,-1
 576 128 l 1,68,69
192 256 m 1,85,86
 165 256 165 256 146 274 c 1,87,88
 128 293 128 293 128 320 c 0,89,90
 128 346 128 346 146 365 c 0,91,92
 165 384 165 384 192 384 c 0,93,94
 218 384 218 384 237 365 c 256,95,96
 256 346 256 346 256 320 c 0,97,98
 256 293 256 293 237 274 c 0,99,100
 218 256 218 256 192 256 c 1,101,-1
 192 256 l 1,85,86
448 256 m 1,102,103
 421 256 421 256 402 274 c 1,104,105
 384 293 384 293 384 320 c 0,106,107
 384 346 384 346 402 365 c 0,108,109
 421 384 421 384 448 384 c 0,110,111
 474 384 474 384 493 365 c 256,112,113
 512 346 512 346 512 320 c 0,114,115
 512 293 512 293 493 274 c 0,116,117
 474 256 474 256 448 256 c 1,118,-1
 448 256 l 1,102,103
64 384 m 1,119,120
 37 384 37 384 18 402 c 1,121,122
 0 421 0 421 0 448 c 0,123,124
 0 474 0 474 18 493 c 0,125,126
 37 512 37 512 64 512 c 0,127,128
 90 512 90 512 109 493 c 256,129,130
 128 474 128 474 128 448 c 0,131,132
 128 421 128 421 109 402 c 0,133,134
 90 384 90 384 64 384 c 1,135,-1
 64 384 l 1,119,120
320 384 m 1,136,137
 293 384 293 384 274 402 c 1,138,139
 256 421 256 421 256 448 c 0,140,141
 256 474 256 474 274 493 c 0,142,143
 293 512 293 512 320 512 c 0,144,145
 346 512 346 512 365 493 c 256,146,147
 384 474 384 474 384 448 c 0,148,149
 384 421 384 421 365 402 c 0,150,151
 346 384 346 384 320 384 c 1,152,-1
 320 384 l 1,136,137
576 384 m 1,153,154
 549 384 549 384 530 402 c 1,155,156
 512 421 512 421 512 448 c 0,157,158
 512 474 512 474 530 493 c 0,159,160
 549 512 549 512 576 512 c 0,161,162
 602 512 602 512 621 493 c 256,163,164
 640 474 640 474 640 448 c 0,165,166
 640 421 640 421 621 402 c 0,167,168
 602 384 602 384 576 384 c 1,169,-1
 576 384 l 1,153,154
192 512 m 1,170,171
 165 512 165 512 146 530 c 1,172,173
 128 549 128 549 128 576 c 0,174,175
 128 602 128 602 146 621 c 0,176,177
 165 640 165 640 192 640 c 0,178,179
 218 640 218 640 237 621 c 256,180,181
 256 602 256 602 256 576 c 0,182,183
 256 549 256 549 237 530 c 0,184,185
 218 512 218 512 192 512 c 1,186,-1
 192 512 l 1,170,171
448 512 m 1,187,188
 421 512 421 512 402 530 c 1,189,190
 384 549 384 549 384 576 c 0,191,192
 384 602 384 602 402 621 c 0,193,194
 421 640 421 640 448 640 c 0,195,196
 474 640 474 640 493 621 c 256,197,198
 512 602 512 602 512 576 c 0,199,200
 512 549 512 549 493 530 c 0,201,202
 474 512 474 512 448 512 c 1,203,-1
 448 512 l 1,187,188
64 640 m 1,204,205
 37 640 37 640 18 658 c 1,206,207
 0 677 0 677 0 704 c 0,208,209
 0 730 0 730 18 749 c 0,210,211
 37 768 37 768 64 768 c 0,212,213
 90 768 90 768 109 749 c 256,214,215
 128 730 128 730 128 704 c 0,216,217
 128 677 128 677 109 658 c 0,218,219
 90 640 90 640 64 640 c 1,220,-1
 64 640 l 1,204,205
320 640 m 1,221,222
 293 640 293 640 274 658 c 1,223,224
 256 677 256 677 256 704 c 0,225,226
 256 730 256 730 274 749 c 0,227,228
 293 768 293 768 320 768 c 0,229,230
 346 768 346 768 365 749 c 256,231,232
 384 730 384 730 384 704 c 0,233,234
 384 677 384 677 365 658 c 0,235,236
 346 640 346 640 320 640 c 1,237,-1
 320 640 l 1,221,222
576 640 m 1,238,239
 549 640 549 640 530 658 c 1,240,241
 512 677 512 677 512 704 c 0,242,243
 512 730 512 730 530 749 c 0,244,245
 549 768 549 768 576 768 c 0,246,247
 602 768 602 768 621 749 c 256,248,249
 640 730 640 730 640 704 c 0,250,251
 640 677 640 677 621 658 c 0,252,253
 602 640 602 640 576 640 c 1,254,-1
 576 640 l 1,238,239
192 768 m 1,255,256
 165 768 165 768 146 786 c 1,257,258
 128 805 128 805 128 832 c 0,259,260
 128 858 128 858 146 877 c 0,261,262
 165 896 165 896 192 896 c 0,263,264
 218 896 218 896 237 877 c 256,265,266
 256 858 256 858 256 832 c 0,267,268
 256 805 256 805 237 786 c 0,269,270
 218 768 218 768 192 768 c 1,271,-1
 192 768 l 1,255,256
448 768 m 1,272,273
 421 768 421 768 402 786 c 1,274,275
 384 805 384 805 384 832 c 0,276,277
 384 858 384 858 402 877 c 0,278,279
 421 896 421 896 448 896 c 0,280,281
 474 896 474 896 493 877 c 256,282,283
 512 858 512 858 512 832 c 0,284,285
 512 805 512 805 493 786 c 0,286,287
 474 768 474 768 448 768 c 1,288,-1
 448 768 l 1,272,273
EndSplineSet
Validated: 5
EndChar

StartChar: A
Encoding: 65 65 36
Width: 768
Flags: W
LayerCount: 2
Fore
SplineSet
64 0 m 1,0,1
 37 0 37 0 18 18 c 1,2,3
 0 37 0 37 0 64 c 0,4,5
 0 90 0 90 18 109 c 0,6,7
 37 128 37 128 64 128 c 0,8,9
 90 128 90 128 109 109 c 256,10,11
 128 90 128 90 128 64 c 0,12,13
 128 37 128 37 109 18 c 0,14,15
 90 0 90 0 64 0 c 1,16,-1
 64 0 l 1,0,1
576 0 m 1,17,18
 549 0 549 0 530 18 c 1,19,20
 512 37 512 37 512 64 c 0,21,22
 512 90 512 90 530 109 c 0,23,24
 549 128 549 128 576 128 c 0,25,26
 602 128 602 128 621 109 c 256,27,28
 640 90 640 90 640 64 c 0,29,30
 640 37 640 37 621 18 c 0,31,32
 602 0 602 0 576 0 c 1,33,-1
 576 0 l 1,17,18
64 128 m 1,34,35
 37 128 37 128 18 146 c 1,36,37
 0 165 0 165 0 192 c 0,38,39
 0 218 0 218 18 237 c 0,40,41
 37 256 37 256 64 256 c 0,42,43
 90 256 90 256 109 237 c 256,44,45
 128 218 128 218 128 192 c 0,46,47
 128 165 128 165 109 146 c 0,48,49
 90 128 90 128 64 128 c 1,50,-1
 64 128 l 1,34,35
576 128 m 1,51,52
 549 128 549 128 530 146 c 1,53,54
 512 165 512 165 512 192 c 0,55,56
 512 218 512 218 530 237 c 0,57,58
 549 256 549 256 576 256 c 0,59,60
 602 256 602 256 621 237 c 256,61,62
 640 218 640 218 640 192 c 0,63,64
 640 165 640 165 621 146 c 0,65,66
 602 128 602 128 576 128 c 1,67,-1
 576 128 l 1,51,52
64 256 m 1,68,69
 37 256 37 256 18 274 c 1,70,71
 0 293 0 293 0 320 c 0,72,73
 0 346 0 346 18 365 c 0,74,75
 37 384 37 384 64 384 c 0,76,77
 90 384 90 384 109 365 c 256,78,79
 128 346 128 346 128 320 c 0,80,81
 128 293 128 293 109 274 c 0,82,83
 90 256 90 256 64 256 c 1,84,-1
 64 256 l 1,68,69
192 256 m 1,85,86
 165 256 165 256 146 274 c 1,87,88
 128 293 128 293 128 320 c 0,89,90
 128 346 128 346 146 365 c 0,91,92
 165 384 165 384 192 384 c 0,93,94
 218 384 218 384 237 365 c 256,95,96
 256 346 256 346 256 320 c 0,97,98
 256 293 256 293 237 274 c 0,99,100
 218 256 218 256 192 256 c 1,101,-1
 192 256 l 1,85,86
320 256 m 1,102,103
 293 256 293 256 274 274 c 1,104,105
 256 293 256 293 256 320 c 0,106,107
 256 346 256 346 274 365 c 0,108,109
 293 384 293 384 320 384 c 0,110,111
 346 384 346 384 365 365 c 256,112,113
 384 346 384 346 384 320 c 0,114,115
 384 293 384 293 365 274 c 0,116,117
 346 256 346 256 320 256 c 1,118,-1
 320 256 l 1,102,103
448 256 m 1,119,120
 421 256 421 256 402 274 c 1,121,122
 384 293 384 293 384 320 c 0,123,124
 384 346 384 346 402 365 c 0,125,126
 421 384 421 384 448 384 c 0,127,128
 474 384 474 384 493 365 c 256,129,130
 512 346 512 346 512 320 c 0,131,132
 512 293 512 293 493 274 c 0,133,134
 474 256 474 256 448 256 c 1,135,-1
 448 256 l 1,119,120
576 256 m 1,136,137
 549 256 549 256 530 274 c 1,138,139
 512 293 512 293 512 320 c 0,140,141
 512 346 512 346 530 365 c 0,142,143
 549 384 549 384 576 384 c 0,144,145
 602 384 602 384 621 365 c 256,146,147
 640 346 640 346 640 320 c 0,148,149
 640 293 640 293 621 274 c 0,150,151
 602 256 602 256 576 256 c 1,152,-1
 576 256 l 1,136,137
64 384 m 1,153,154
 37 384 37 384 18 402 c 1,155,156
 0 421 0 421 0 448 c 0,157,158
 0 474 0 474 18 493 c 0,159,160
 37 512 37 512 64 512 c 0,161,162
 90 512 90 512 109 493 c 256,163,164
 128 474 128 474 128 448 c 0,165,166
 128 421 128 421 109 402 c 0,167,168
 90 384 90 384 64 384 c 1,169,-1
 64 384 l 1,153,154
576 384 m 1,170,171
 549 384 549 384 530 402 c 1,172,173
 512 421 512 421 512 448 c 0,174,175
 512 474 512 474 530 493 c 0,176,177
 549 512 549 512 576 512 c 0,178,179
 602 512 602 512 621 493 c 256,180,181
 640 474 640 474 640 448 c 0,182,183
 640 421 640 421 621 402 c 0,184,185
 602 384 602 384 576 384 c 1,186,-1
 576 384 l 1,170,171
64 512 m 1,187,188
 37 512 37 512 18 530 c 1,189,190
 0 549 0 549 0 576 c 0,191,192
 0 602 0 602 18 621 c 0,193,194
 37 640 37 640 64 640 c 0,195,196
 90 640 90 640 109 621 c 256,197,198
 128 602 128 602 128 576 c 0,199,200
 128 549 128 549 109 530 c 0,201,202
 90 512 90 512 64 512 c 1,203,-1
 64 512 l 1,187,188
576 512 m 1,204,205
 549 512 549 512 530 530 c 1,206,207
 512 549 512 549 512 576 c 0,208,209
 512 602 512 602 530 621 c 0,210,211
 549 640 549 640 576 640 c 0,212,213
 602 640 602 640 621 621 c 256,214,215
 640 602 640 602 640 576 c 0,216,217
 640 549 640 549 621 530 c 0,218,219
 602 512 602 512 576 512 c 1,220,-1
 576 512 l 1,204,205
64 640 m 1,221,222
 37 640 37 640 18 658 c 1,223,224
 0 677 0 677 0 704 c 0,225,226
 0 730 0 730 18 749 c 0,227,228
 37 768 37 768 64 768 c 0,229,230
 90 768 90 768 109 749 c 256,231,232
 128 730 128 730 128 704 c 0,233,234
 128 677 128 677 109 658 c 0,235,236
 90 640 90 640 64 640 c 1,237,-1
 64 640 l 1,221,222
576 640 m 1,238,239
 549 640 549 640 530 658 c 1,240,241
 512 677 512 677 512 704 c 0,242,243
 512 730 512 730 530 749 c 0,244,245
 549 768 549 768 576 768 c 0,246,247
 602 768 602 768 621 749 c 256,248,249
 640 730 640 730 640 704 c 0,250,251
 640 677 640 677 621 658 c 0,252,253
 602 640 602 640 576 640 c 1,254,-1
 576 640 l 1,238,239
192 768 m 1,255,256
 165 768 165 768 146 786 c 1,257,258
 128 805 128 805 128 832 c 0,259,260
 128 858 128 858 146 877 c 0,261,262
 165 896 165 896 192 896 c 0,263,264
 218 896 218 896 237 877 c 256,265,266
 256 858 256 858 256 832 c 0,267,268
 256 805 256 805 237 786 c 0,269,270
 218 768 218 768 192 768 c 1,271,-1
 192 768 l 1,255,256
320 768 m 1,272,273
 293 768 293 768 274 786 c 1,274,275
 256 805 256 805 256 832 c 0,276,277
 256 858 256 858 274 877 c 0,278,279
 293 896 293 896 320 896 c 0,280,281
 346 896 346 896 365 877 c 256,282,283
 384 858 384 858 384 832 c 0,284,285
 384 805 384 805 365 786 c 0,286,287
 346 768 346 768 320 768 c 1,288,-1
 320 768 l 1,272,273
448 768 m 1,289,290
 421 768 421 768 402 786 c 1,291,292
 384 805 384 805 384 832 c 0,293,294
 384 858 384 858 402 877 c 0,295,296
 421 896 421 896 448 896 c 0,297,298
 474 896 474 896 493 877 c 256,299,300
 512 858 512 858 512 832 c 0,301,302
 512 805 512 805 493 786 c 0,303,304
 474 768 474 768 448 768 c 1,305,-1
 448 768 l 1,289,290
EndSplineSet
Validated: 5
EndChar

StartChar: B
Encoding: 66 66 37
Width: 768
Flags: W
LayerCount: 2
Fore
SplineSet
64 0 m 1,0,1
 37 0 37 0 18 18 c 1,2,3
 0 37 0 37 0 64 c 0,4,5
 0 90 0 90 18 109 c 0,6,7
 37 128 37 128 64 128 c 0,8,9
 90 128 90 128 109 109 c 256,10,11
 128 90 128 90 128 64 c 0,12,13
 128 37 128 37 109 18 c 0,14,15
 90 0 90 0 64 0 c 1,16,-1
 64 0 l 1,0,1
192 0 m 1,17,18
 165 0 165 0 146 18 c 1,19,20
 128 37 128 37 128 64 c 0,21,22
 128 90 128 90 146 109 c 0,23,24
 165 128 165 128 192 128 c 0,25,26
 218 128 218 128 237 109 c 256,27,28
 256 90 256 90 256 64 c 0,29,30
 256 37 256 37 237 18 c 0,31,32
 218 0 218 0 192 0 c 1,33,-1
 192 0 l 1,17,18
320 0 m 1,34,35
 293 0 293 0 274 18 c 1,36,37
 256 37 256 37 256 64 c 0,38,39
 256 90 256 90 274 109 c 0,40,41
 293 128 293 128 320 128 c 0,42,43
 346 128 346 128 365 109 c 256,44,45
 384 90 384 90 384 64 c 0,46,47
 384 37 384 37 365 18 c 0,48,49
 346 0 346 0 320 0 c 1,50,-1
 320 0 l 1,34,35
448 0 m 1,51,52
 421 0 421 0 402 18 c 1,53,54
 384 37 384 37 384 64 c 0,55,56
 384 90 384 90 402 109 c 0,57,58
 421 128 421 128 448 128 c 0,59,60
 474 128 474 128 493 109 c 256,61,62
 512 90 512 90 512 64 c 0,63,64
 512 37 512 37 493 18 c 0,65,66
 474 0 474 0 448 0 c 1,67,-1
 448 0 l 1,51,52
192 128 m 1,68,69
 165 128 165 128 146 146 c 1,70,71
 128 165 128 165 128 192 c 0,72,73
 128 218 128 218 146 237 c 0,74,75
 165 256 165 256 192 256 c 0,76,77
 218 256 218 256 237 237 c 256,78,79
 256 218 256 218 256 192 c 0,80,81
 256 165 256 165 237 146 c 0,82,83
 218 128 218 128 192 128 c 1,84,-1
 192 128 l 1,68,69
576 128 m 1,85,86
 549 128 549 128 530 146 c 1,87,88
 512 165 512 165 512 192 c 0,89,90
 512 218 512 218 530 237 c 0,91,92
 549 256 549 256 576 256 c 0,93,94
 602 256 602 256 621 237 c 256,95,96
 640 218 640 218 640 192 c 0,97,98
 640 165 640 165 621 146 c 0,99,100
 602 128 602 128 576 128 c 1,101,-1
 576 128 l 1,85,86
192 256 m 1,102,103
 165 256 165 256 146 274 c 1,104,105
 128 293 128 293 128 320 c 0,106,107
 128 346 128 346 146 365 c 0,108,109
 165 384 165 384 192 384 c 0,110,111
 218 384 218 384 237 365 c 256,112,113
 256 346 256 346 256 320 c 0,114,115
 256 293 256 293 237 274 c 0,116,117
 218 256 218 256 192 256 c 1,118,-1
 192 256 l 1,102,103
576 256 m 1,119,120
 549 256 549 256 530 274 c 1,121,122
 512 293 512 293 512 320 c 0,123,124
 512 346 512 346 530 365 c 0,125,126
 549 384 549 384 576 384 c 0,127,128
 602 384 602 384 621 365 c 256,129,130
 640 346 640 346 640 320 c 0,131,132
 640 293 640 293 621 274 c 0,133,134
 602 256 602 256 576 256 c 1,135,-1
 576 256 l 1,119,120
192 384 m 1,136,137
 165 384 165 384 146 402 c 1,138,139
 128 421 128 421 128 448 c 0,140,141
 128 474 128 474 146 493 c 0,142,143
 165 512 165 512 192 512 c 0,144,145
 218 512 218 512 237 493 c 256,146,147
 256 474 256 474 256 448 c 0,148,149
 256 421 256 421 237 402 c 0,150,151
 218 384 218 384 192 384 c 1,152,-1
 192 384 l 1,136,137
320 384 m 1,153,154
 293 384 293 384 274 402 c 1,155,156
 256 421 256 421 256 448 c 0,157,158
 256 474 256 474 274 493 c 0,159,160
 293 512 293 512 320 512 c 0,161,162
 346 512 346 512 365 493 c 256,163,164
 384 474 384 474 384 448 c 0,165,166
 384 421 384 421 365 402 c 0,167,168
 346 384 346 384 320 384 c 1,169,-1
 320 384 l 1,153,154
448 384 m 1,170,171
 421 384 421 384 402 402 c 1,172,173
 384 421 384 421 384 448 c 0,174,175
 384 474 384 474 402 493 c 0,176,177
 421 512 421 512 448 512 c 0,178,179
 474 512 474 512 493 493 c 256,180,181
 512 474 512 474 512 448 c 0,182,183
 512 421 512 421 493 402 c 0,184,185
 474 384 474 384 448 384 c 1,186,-1
 448 384 l 1,170,171
192 512 m 1,187,188
 165 512 165 512 146 530 c 1,189,190
 128 549 128 549 128 576 c 0,191,192
 128 602 128 602 146 621 c 0,193,194
 165 640 165 640 192 640 c 0,195,196
 218 640 218 640 237 621 c 256,197,198
 256 602 256 602 256 576 c 0,199,200
 256 549 256 549 237 530 c 0,201,202
 218 512 218 512 192 512 c 1,203,-1
 192 512 l 1,187,188
576 512 m 1,204,205
 549 512 549 512 530 530 c 1,206,207
 512 549 512 549 512 576 c 0,208,209
 512 602 512 602 530 621 c 0,210,211
 549 640 549 640 576 640 c 0,212,213
 602 640 602 640 621 621 c 256,214,215
 640 602 640 602 640 576 c 0,216,217
 640 549 640 549 621 530 c 0,218,219
 602 512 602 512 576 512 c 1,220,-1
 576 512 l 1,204,205
192 640 m 1,221,222
 165 640 165 640 146 658 c 1,223,224
 128 677 128 677 128 704 c 0,225,226
 128 730 128 730 146 749 c 0,227,228
 165 768 165 768 192 768 c 0,229,230
 218 768 218 768 237 749 c 256,231,232
 256 730 256 730 256 704 c 0,233,234
 256 677 256 677 237 658 c 0,235,236
 218 640 218 640 192 640 c 1,237,-1
 192 640 l 1,221,222
576 640 m 1,238,239
 549 640 549 640 530 658 c 1,240,241
 512 677 512 677 512 704 c 0,242,243
 512 730 512 730 530 749 c 0,244,245
 549 768 549 768 576 768 c 0,246,247
 602 768 602 768 621 749 c 256,248,249
 640 730 640 730 640 704 c 0,250,251
 640 677 640 677 621 658 c 0,252,253
 602 640 602 640 576 640 c 1,254,-1
 576 640 l 1,238,239
64 768 m 1,255,256
 37 768 37 768 18 786 c 1,257,258
 0 805 0 805 0 832 c 0,259,260
 0 858 0 858 18 877 c 0,261,262
 37 896 37 896 64 896 c 0,263,264
 90 896 90 896 109 877 c 256,265,266
 128 858 128 858 128 832 c 0,267,268
 128 805 128 805 109 786 c 0,269,270
 90 768 90 768 64 768 c 1,271,-1
 64 768 l 1,255,256
192 768 m 1,272,273
 165 768 165 768 146 786 c 1,274,275
 128 805 128 805 128 832 c 0,276,277
 128 858 128 858 146 877 c 0,278,279
 165 896 165 896 192 896 c 0,280,281
 218 896 218 896 237 877 c 256,282,283
 256 858 256 858 256 832 c 0,284,285
 256 805 256 805 237 786 c 0,286,287
 218 768 218 768 192 768 c 1,288,-1
 192 768 l 1,272,273
320 768 m 1,289,290
 293 768 293 768 274 786 c 1,291,292
 256 805 256 805 256 832 c 0,293,294
 256 858 256 858 274 877 c 0,295,296
 293 896 293 896 320 896 c 0,297,298
 346 896 346 896 365 877 c 256,299,300
 384 858 384 858 384 832 c 0,301,302
 384 805 384 805 365 786 c 0,303,304
 346 768 346 768 320 768 c 1,305,-1
 320 768 l 1,289,290
448 768 m 1,306,307
 421 768 421 768 402 786 c 1,308,309
 384 805 384 805 384 832 c 0,310,311
 384 858 384 858 402 877 c 0,312,313
 421 896 421 896 448 896 c 0,314,315
 474 896 474 896 493 877 c 256,316,317
 512 858 512 858 512 832 c 0,318,319
 512 805 512 805 493 786 c 0,320,321
 474 768 474 768 448 768 c 1,322,-1
 448 768 l 1,306,307
EndSplineSet
Validated: 5
EndChar

StartChar: C
Encoding: 67 67 38
Width: 768
Flags: W
LayerCount: 2
Fore
SplineSet
192 0 m 1,0,1
 165 0 165 0 146 18 c 1,2,3
 128 37 128 37 128 64 c 0,4,5
 128 90 128 90 146 109 c 0,6,7
 165 128 165 128 192 128 c 0,8,9
 218 128 218 128 237 109 c 256,10,11
 256 90 256 90 256 64 c 0,12,13
 256 37 256 37 237 18 c 0,14,15
 218 0 218 0 192 0 c 1,16,-1
 192 0 l 1,0,1
320 0 m 1,17,18
 293 0 293 0 274 18 c 1,19,20
 256 37 256 37 256 64 c 0,21,22
 256 90 256 90 274 109 c 0,23,24
 293 128 293 128 320 128 c 0,25,26
 346 128 346 128 365 109 c 256,27,28
 384 90 384 90 384 64 c 0,29,30
 384 37 384 37 365 18 c 0,31,32
 346 0 346 0 320 0 c 1,33,-1
 320 0 l 1,17,18
448 0 m 1,34,35
 421 0 421 0 402 18 c 1,36,37
 384 37 384 37 384 64 c 0,38,39
 384 90 384 90 402 109 c 0,40,41
 421 128 421 128 448 128 c 0,42,43
 474 128 474 128 493 109 c 256,44,45
 512 90 512 90 512 64 c 0,46,47
 512 37 512 37 493 18 c 0,48,49
 474 0 474 0 448 0 c 1,50,-1
 448 0 l 1,34,35
64 128 m 1,51,52
 37 128 37 128 18 146 c 1,53,54
 0 165 0 165 0 192 c 0,55,56
 0 218 0 218 18 237 c 0,57,58
 37 256 37 256 64 256 c 0,59,60
 90 256 90 256 109 237 c 256,61,62
 128 218 128 218 128 192 c 0,63,64
 128 165 128 165 109 146 c 0,65,66
 90 128 90 128 64 128 c 1,67,-1
 64 128 l 1,51,52
576 128 m 1,68,69
 549 128 549 128 530 146 c 1,70,71
 512 165 512 165 512 192 c 0,72,73
 512 218 512 218 530 237 c 0,74,75
 549 256 549 256 576 256 c 0,76,77
 602 256 602 256 621 237 c 256,78,79
 640 218 640 218 640 192 c 0,80,81
 640 165 640 165 621 146 c 0,82,83
 602 128 602 128 576 128 c 1,84,-1
 576 128 l 1,68,69
64 256 m 1,85,86
 37 256 37 256 18 274 c 1,87,88
 0 293 0 293 0 320 c 0,89,90
 0 346 0 346 18 365 c 0,91,92
 37 384 37 384 64 384 c 0,93,94
 90 384 90 384 109 365 c 256,95,96
 128 346 128 346 128 320 c 0,97,98
 128 293 128 293 109 274 c 0,99,100
 90 256 90 256 64 256 c 1,101,-1
 64 256 l 1,85,86
64 384 m 1,102,103
 37 384 37 384 18 402 c 1,104,105
 0 421 0 421 0 448 c 0,106,107
 0 474 0 474 18 493 c 0,108,109
 37 512 37 512 64 512 c 0,110,111
 90 512 90 512 109 493 c 256,112,113
 128 474 128 474 128 448 c 0,114,115
 128 421 128 421 109 402 c 0,116,117
 90 384 90 384 64 384 c 1,118,-1
 64 384 l 1,102,103
64 512 m 1,119,120
 37 512 37 512 18 530 c 1,121,122
 0 549 0 549 0 576 c 0,123,124
 0 602 0 602 18 621 c 0,125,126
 37 640 37 640 64 640 c 0,127,128
 90 640 90 640 109 621 c 256,129,130
 128 602 128 602 128 576 c 0,131,132
 128 549 128 549 109 530 c 0,133,134
 90 512 90 512 64 512 c 1,135,-1
 64 512 l 1,119,120
64 640 m 1,136,137
 37 640 37 640 18 658 c 1,138,139
 0 677 0 677 0 704 c 0,140,141
 0 730 0 730 18 749 c 0,142,143
 37 768 37 768 64 768 c 0,144,145
 90 768 90 768 109 749 c 256,146,147
 128 730 128 730 128 704 c 0,148,149
 128 677 128 677 109 658 c 0,150,151
 90 640 90 640 64 640 c 1,152,-1
 64 640 l 1,136,137
576 640 m 1,153,154
 549 640 549 640 530 658 c 1,155,156
 512 677 512 677 512 704 c 0,157,158
 512 730 512 730 530 749 c 0,159,160
 549 768 549 768 576 768 c 0,161,162
 602 768 602 768 621 749 c 256,163,164
 640 730 640 730 640 704 c 0,165,166
 640 677 640 677 621 658 c 0,167,168
 602 640 602 640 576 640 c 1,169,-1
 576 640 l 1,153,154
192 768 m 1,170,171
 165 768 165 768 146 786 c 1,172,173
 128 805 128 805 128 832 c 0,174,175
 128 858 128 858 146 877 c 0,176,177
 165 896 165 896 192 896 c 0,178,179
 218 896 218 896 237 877 c 256,180,181
 256 858 256 858 256 832 c 0,182,183
 256 805 256 805 237 786 c 0,184,185
 218 768 218 768 192 768 c 1,186,-1
 192 768 l 1,170,171
320 768 m 1,187,188
 293 768 293 768 274 786 c 1,189,190
 256 805 256 805 256 832 c 0,191,192
 256 858 256 858 274 877 c 0,193,194
 293 896 293 896 320 896 c 0,195,196
 346 896 346 896 365 877 c 256,197,198
 384 858 384 858 384 832 c 0,199,200
 384 805 384 805 365 786 c 0,201,202
 346 768 346 768 320 768 c 1,203,-1
 320 768 l 1,187,188
448 768 m 1,204,205
 421 768 421 768 402 786 c 1,206,207
 384 805 384 805 384 832 c 0,208,209
 384 858 384 858 402 877 c 0,210,211
 421 896 421 896 448 896 c 0,212,213
 474 896 474 896 493 877 c 256,214,215
 512 858 512 858 512 832 c 0,216,217
 512 805 512 805 493 786 c 0,218,219
 474 768 474 768 448 768 c 1,220,-1
 448 768 l 1,204,205
EndSplineSet
Validated: 5
EndChar

StartChar: D
Encoding: 68 68 39
Width: 768
Flags: W
LayerCount: 2
Fore
SplineSet
64 0 m 1,0,1
 37 0 37 0 18 18 c 1,2,3
 0 37 0 37 0 64 c 0,4,5
 0 90 0 90 18 109 c 0,6,7
 37 128 37 128 64 128 c 0,8,9
 90 128 90 128 109 109 c 256,10,11
 128 90 128 90 128 64 c 0,12,13
 128 37 128 37 109 18 c 0,14,15
 90 0 90 0 64 0 c 1,16,-1
 64 0 l 1,0,1
192 0 m 1,17,18
 165 0 165 0 146 18 c 1,19,20
 128 37 128 37 128 64 c 0,21,22
 128 90 128 90 146 109 c 0,23,24
 165 128 165 128 192 128 c 0,25,26
 218 128 218 128 237 109 c 256,27,28
 256 90 256 90 256 64 c 0,29,30
 256 37 256 37 237 18 c 0,31,32
 218 0 218 0 192 0 c 1,33,-1
 192 0 l 1,17,18
320 0 m 1,34,35
 293 0 293 0 274 18 c 1,36,37
 256 37 256 37 256 64 c 0,38,39
 256 90 256 90 274 109 c 0,40,41
 293 128 293 128 320 128 c 0,42,43
 346 128 346 128 365 109 c 256,44,45
 384 90 384 90 384 64 c 0,46,47
 384 37 384 37 365 18 c 0,48,49
 346 0 346 0 320 0 c 1,50,-1
 320 0 l 1,34,35
448 0 m 1,51,52
 421 0 421 0 402 18 c 1,53,54
 384 37 384 37 384 64 c 0,55,56
 384 90 384 90 402 109 c 0,57,58
 421 128 421 128 448 128 c 0,59,60
 474 128 474 128 493 109 c 256,61,62
 512 90 512 90 512 64 c 0,63,64
 512 37 512 37 493 18 c 0,65,66
 474 0 474 0 448 0 c 1,67,-1
 448 0 l 1,51,52
192 128 m 1,68,69
 165 128 165 128 146 146 c 1,70,71
 128 165 128 165 128 192 c 0,72,73
 128 218 128 218 146 237 c 0,74,75
 165 256 165 256 192 256 c 0,76,77
 218 256 218 256 237 237 c 256,78,79
 256 218 256 218 256 192 c 0,80,81
 256 165 256 165 237 146 c 0,82,83
 218 128 218 128 192 128 c 1,84,-1
 192 128 l 1,68,69
576 128 m 1,85,86
 549 128 549 128 530 146 c 1,87,88
 512 165 512 165 512 192 c 0,89,90
 512 218 512 218 530 237 c 0,91,92
 549 256 549 256 576 256 c 0,93,94
 602 256 602 256 621 237 c 256,95,96
 640 218 640 218 640 192 c 0,97,98
 640 165 640 165 621 146 c 0,99,100
 602 128 602 128 576 128 c 1,101,-1
 576 128 l 1,85,86
192 256 m 1,102,103
 165 256 165 256 146 274 c 1,104,105
 128 293 128 293 128 320 c 0,106,107
 128 346 128 346 146 365 c 0,108,109
 165 384 165 384 192 384 c 0,110,111
 218 384 218 384 237 365 c 256,112,113
 256 346 256 346 256 320 c 0,114,115
 256 293 256 293 237 274 c 0,116,117
 218 256 218 256 192 256 c 1,118,-1
 192 256 l 1,102,103
576 256 m 1,119,120
 549 256 549 256 530 274 c 1,121,122
 512 293 512 293 512 320 c 0,123,124
 512 346 512 346 530 365 c 0,125,126
 549 384 549 384 576 384 c 0,127,128
 602 384 602 384 621 365 c 256,129,130
 640 346 640 346 640 320 c 0,131,132
 640 293 640 293 621 274 c 0,133,134
 602 256 602 256 576 256 c 1,135,-1
 576 256 l 1,119,120
192 384 m 1,136,137
 165 384 165 384 146 402 c 1,138,139
 128 421 128 421 128 448 c 0,140,141
 128 474 128 474 146 493 c 0,142,143
 165 512 165 512 192 512 c 0,144,145
 218 512 218 512 237 493 c 256,146,147
 256 474 256 474 256 448 c 0,148,149
 256 421 256 421 237 402 c 0,150,151
 218 384 218 384 192 384 c 1,152,-1
 192 384 l 1,136,137
576 384 m 1,153,154
 549 384 549 384 530 402 c 1,155,156
 512 421 512 421 512 448 c 0,157,158
 512 474 512 474 530 493 c 0,159,160
 549 512 549 512 576 512 c 0,161,162
 602 512 602 512 621 493 c 256,163,164
 640 474 640 474 640 448 c 0,165,166
 640 421 640 421 621 402 c 0,167,168
 602 384 602 384 576 384 c 1,169,-1
 576 384 l 1,153,154
192 512 m 1,170,171
 165 512 165 512 146 530 c 1,172,173
 128 549 128 549 128 576 c 0,174,175
 128 602 128 602 146 621 c 0,176,177
 165 640 165 640 192 640 c 0,178,179
 218 640 218 640 237 621 c 256,180,181
 256 602 256 602 256 576 c 0,182,183
 256 549 256 549 237 530 c 0,184,185
 218 512 218 512 192 512 c 1,186,-1
 192 512 l 1,170,171
576 512 m 1,187,188
 549 512 549 512 530 530 c 1,189,190
 512 549 512 549 512 576 c 0,191,192
 512 602 512 602 530 621 c 0,193,194
 549 640 549 640 576 640 c 0,195,196
 602 640 602 640 621 621 c 256,197,198
 640 602 640 602 640 576 c 0,199,200
 640 549 640 549 621 530 c 0,201,202
 602 512 602 512 576 512 c 1,203,-1
 576 512 l 1,187,188
192 640 m 1,204,205
 165 640 165 640 146 658 c 1,206,207
 128 677 128 677 128 704 c 0,208,209
 128 730 128 730 146 749 c 0,210,211
 165 768 165 768 192 768 c 0,212,213
 218 768 218 768 237 749 c 256,214,215
 256 730 256 730 256 704 c 0,216,217
 256 677 256 677 237 658 c 0,218,219
 218 640 218 640 192 640 c 1,220,-1
 192 640 l 1,204,205
576 640 m 1,221,222
 549 640 549 640 530 658 c 1,223,224
 512 677 512 677 512 704 c 0,225,226
 512 730 512 730 530 749 c 0,227,228
 549 768 549 768 576 768 c 0,229,230
 602 768 602 768 621 749 c 256,231,232
 640 730 640 730 640 704 c 0,233,234
 640 677 640 677 621 658 c 0,235,236
 602 640 602 640 576 640 c 1,237,-1
 576 640 l 1,221,222
64 768 m 1,238,239
 37 768 37 768 18 786 c 1,240,241
 0 805 0 805 0 832 c 0,242,243
 0 858 0 858 18 877 c 0,244,245
 37 896 37 896 64 896 c 0,246,247
 90 896 90 896 109 877 c 256,248,249
 128 858 128 858 128 832 c 0,250,251
 128 805 128 805 109 786 c 0,252,253
 90 768 90 768 64 768 c 1,254,-1
 64 768 l 1,238,239
192 768 m 1,255,256
 165 768 165 768 146 786 c 1,257,258
 128 805 128 805 128 832 c 0,259,260
 128 858 128 858 146 877 c 0,261,262
 165 896 165 896 192 896 c 0,263,264
 218 896 218 896 237 877 c 256,265,266
 256 858 256 858 256 832 c 0,267,268
 256 805 256 805 237 786 c 0,269,270
 218 768 218 768 192 768 c 1,271,-1
 192 768 l 1,255,256
320 768 m 1,272,273
 293 768 293 768 274 786 c 1,274,275
 256 805 256 805 256 832 c 0,276,277
 256 858 256 858 274 877 c 0,278,279
 293 896 293 896 320 896 c 0,280,281
 346 896 346 896 365 877 c 256,282,283
 384 858 384 858 384 832 c 0,284,285
 384 805 384 805 365 786 c 0,286,287
 346 768 346 768 320 768 c 1,288,-1
 320 768 l 1,272,273
448 768 m 1,289,290
 421 768 421 768 402 786 c 1,291,292
 384 805 384 805 384 832 c 0,293,294
 384 858 384 858 402 877 c 0,295,296
 421 896 421 896 448 896 c 0,297,298
 474 896 474 896 493 877 c 256,299,300
 512 858 512 858 512 832 c 0,301,302
 512 805 512 805 493 786 c 0,303,304
 474 768 474 768 448 768 c 1,305,-1
 448 768 l 1,289,290
EndSplineSet
Validated: 5
EndChar

StartChar: E
Encoding: 69 69 40
Width: 768
Flags: W
LayerCount: 2
Fore
SplineSet
64 0 m 1,0,1
 37 0 37 0 18 18 c 1,2,3
 0 37 0 37 0 64 c 0,4,5
 0 90 0 90 18 109 c 0,6,7
 37 128 37 128 64 128 c 0,8,9
 90 128 90 128 109 109 c 256,10,11
 128 90 128 90 128 64 c 0,12,13
 128 37 128 37 109 18 c 0,14,15
 90 0 90 0 64 0 c 1,16,-1
 64 0 l 1,0,1
192 0 m 1,17,18
 165 0 165 0 146 18 c 1,19,20
 128 37 128 37 128 64 c 0,21,22
 128 90 128 90 146 109 c 0,23,24
 165 128 165 128 192 128 c 0,25,26
 218 128 218 128 237 109 c 256,27,28
 256 90 256 90 256 64 c 0,29,30
 256 37 256 37 237 18 c 0,31,32
 218 0 218 0 192 0 c 1,33,-1
 192 0 l 1,17,18
320 0 m 1,34,35
 293 0 293 0 274 18 c 1,36,37
 256 37 256 37 256 64 c 0,38,39
 256 90 256 90 274 109 c 0,40,41
 293 128 293 128 320 128 c 0,42,43
 346 128 346 128 365 109 c 256,44,45
 384 90 384 90 384 64 c 0,46,47
 384 37 384 37 365 18 c 0,48,49
 346 0 346 0 320 0 c 1,50,-1
 320 0 l 1,34,35
448 0 m 1,51,52
 421 0 421 0 402 18 c 1,53,54
 384 37 384 37 384 64 c 0,55,56
 384 90 384 90 402 109 c 0,57,58
 421 128 421 128 448 128 c 0,59,60
 474 128 474 128 493 109 c 256,61,62
 512 90 512 90 512 64 c 0,63,64
 512 37 512 37 493 18 c 0,65,66
 474 0 474 0 448 0 c 1,67,-1
 448 0 l 1,51,52
576 0 m 1,68,69
 549 0 549 0 530 18 c 1,70,71
 512 37 512 37 512 64 c 0,72,73
 512 90 512 90 530 109 c 0,74,75
 549 128 549 128 576 128 c 0,76,77
 602 128 602 128 621 109 c 256,78,79
 640 90 640 90 640 64 c 0,80,81
 640 37 640 37 621 18 c 0,82,83
 602 0 602 0 576 0 c 1,84,-1
 576 0 l 1,68,69
64 128 m 1,85,86
 37 128 37 128 18 146 c 1,87,88
 0 165 0 165 0 192 c 0,89,90
 0 218 0 218 18 237 c 0,91,92
 37 256 37 256 64 256 c 0,93,94
 90 256 90 256 109 237 c 256,95,96
 128 218 128 218 128 192 c 0,97,98
 128 165 128 165 109 146 c 0,99,100
 90 128 90 128 64 128 c 1,101,-1
 64 128 l 1,85,86
64 256 m 1,102,103
 37 256 37 256 18 274 c 1,104,105
 0 293 0 293 0 320 c 0,106,107
 0 346 0 346 18 365 c 0,108,109
 37 384 37 384 64 384 c 0,110,111
 90 384 90 384 109 365 c 256,112,113
 128 346 128 346 128 320 c 0,114,115
 128 293 128 293 109 274 c 0,116,117
 90 256 90 256 64 256 c 1,118,-1
 64 256 l 1,102,103
64 384 m 1,119,120
 37 384 37 384 18 402 c 1,121,122
 0 421 0 421 0 448 c 0,123,124
 0 474 0 474 18 493 c 0,125,126
 37 512 37 512 64 512 c 0,127,128
 90 512 90 512 109 493 c 256,129,130
 128 474 128 474 128 448 c 0,131,132
 128 421 128 421 109 402 c 0,133,134
 90 384 90 384 64 384 c 1,135,-1
 64 384 l 1,119,120
192 384 m 1,136,137
 165 384 165 384 146 402 c 1,138,139
 128 421 128 421 128 448 c 0,140,141
 128 474 128 474 146 493 c 0,142,143
 165 512 165 512 192 512 c 0,144,145
 218 512 218 512 237 493 c 256,146,147
 256 474 256 474 256 448 c 0,148,149
 256 421 256 421 237 402 c 0,150,151
 218 384 218 384 192 384 c 1,152,-1
 192 384 l 1,136,137
320 384 m 1,153,154
 293 384 293 384 274 402 c 1,155,156
 256 421 256 421 256 448 c 0,157,158
 256 474 256 474 274 493 c 0,159,160
 293 512 293 512 320 512 c 0,161,162
 346 512 346 512 365 493 c 256,163,164
 384 474 384 474 384 448 c 0,165,166
 384 421 384 421 365 402 c 0,167,168
 346 384 346 384 320 384 c 1,169,-1
 320 384 l 1,153,154
64 512 m 1,170,171
 37 512 37 512 18 530 c 1,172,173
 0 549 0 549 0 576 c 0,174,175
 0 602 0 602 18 621 c 0,176,177
 37 640 37 640 64 640 c 0,178,179
 90 640 90 640 109 621 c 256,180,181
 128 602 128 602 128 576 c 0,182,183
 128 549 128 549 109 530 c 0,184,185
 90 512 90 512 64 512 c 1,186,-1
 64 512 l 1,170,171
64 640 m 1,187,188
 37 640 37 640 18 658 c 1,189,190
 0 677 0 677 0 704 c 0,191,192
 0 730 0 730 18 749 c 0,193,194
 37 768 37 768 64 768 c 0,195,196
 90 768 90 768 109 749 c 256,197,198
 128 730 128 730 128 704 c 0,199,200
 128 677 128 677 109 658 c 0,201,202
 90 640 90 640 64 640 c 1,203,-1
 64 640 l 1,187,188
64 768 m 1,204,205
 37 768 37 768 18 786 c 1,206,207
 0 805 0 805 0 832 c 0,208,209
 0 858 0 858 18 877 c 0,210,211
 37 896 37 896 64 896 c 0,212,213
 90 896 90 896 109 877 c 256,214,215
 128 858 128 858 128 832 c 0,216,217
 128 805 128 805 109 786 c 0,218,219
 90 768 90 768 64 768 c 1,220,-1
 64 768 l 1,204,205
192 768 m 1,221,222
 165 768 165 768 146 786 c 1,223,224
 128 805 128 805 128 832 c 0,225,226
 128 858 128 858 146 877 c 0,227,228
 165 896 165 896 192 896 c 0,229,230
 218 896 218 896 237 877 c 256,231,232
 256 858 256 858 256 832 c 0,233,234
 256 805 256 805 237 786 c 0,235,236
 218 768 218 768 192 768 c 1,237,-1
 192 768 l 1,221,222
320 768 m 1,238,239
 293 768 293 768 274 786 c 1,240,241
 256 805 256 805 256 832 c 0,242,243
 256 858 256 858 274 877 c 0,244,245
 293 896 293 896 320 896 c 0,246,247
 346 896 346 896 365 877 c 256,248,249
 384 858 384 858 384 832 c 0,250,251
 384 805 384 805 365 786 c 0,252,253
 346 768 346 768 320 768 c 1,254,-1
 320 768 l 1,238,239
448 768 m 1,255,256
 421 768 421 768 402 786 c 1,257,258
 384 805 384 805 384 832 c 0,259,260
 384 858 384 858 402 877 c 0,261,262
 421 896 421 896 448 896 c 0,263,264
 474 896 474 896 493 877 c 256,265,266
 512 858 512 858 512 832 c 0,267,268
 512 805 512 805 493 786 c 0,269,270
 474 768 474 768 448 768 c 1,271,-1
 448 768 l 1,255,256
576 768 m 1,272,273
 549 768 549 768 530 786 c 1,274,275
 512 805 512 805 512 832 c 0,276,277
 512 858 512 858 530 877 c 0,278,279
 549 896 549 896 576 896 c 0,280,281
 602 896 602 896 621 877 c 256,282,283
 640 858 640 858 640 832 c 0,284,285
 640 805 640 805 621 786 c 0,286,287
 602 768 602 768 576 768 c 1,288,-1
 576 768 l 1,272,273
EndSplineSet
Validated: 5
EndChar

StartChar: F
Encoding: 70 70 41
Width: 768
Flags: W
LayerCount: 2
Fore
SplineSet
64 0 m 1,0,1
 37 0 37 0 18 18 c 1,2,3
 0 37 0 37 0 64 c 0,4,5
 0 90 0 90 18 109 c 0,6,7
 37 128 37 128 64 128 c 0,8,9
 90 128 90 128 109 109 c 256,10,11
 128 90 128 90 128 64 c 0,12,13
 128 37 128 37 109 18 c 0,14,15
 90 0 90 0 64 0 c 1,16,-1
 64 0 l 1,0,1
64 128 m 1,17,18
 37 128 37 128 18 146 c 1,19,20
 0 165 0 165 0 192 c 0,21,22
 0 218 0 218 18 237 c 0,23,24
 37 256 37 256 64 256 c 0,25,26
 90 256 90 256 109 237 c 256,27,28
 128 218 128 218 128 192 c 0,29,30
 128 165 128 165 109 146 c 0,31,32
 90 128 90 128 64 128 c 1,33,-1
 64 128 l 1,17,18
64 256 m 1,34,35
 37 256 37 256 18 274 c 1,36,37
 0 293 0 293 0 320 c 0,38,39
 0 346 0 346 18 365 c 0,40,41
 37 384 37 384 64 384 c 0,42,43
 90 384 90 384 109 365 c 256,44,45
 128 346 128 346 128 320 c 0,46,47
 128 293 128 293 109 274 c 0,48,49
 90 256 90 256 64 256 c 1,50,-1
 64 256 l 1,34,35
64 384 m 1,51,52
 37 384 37 384 18 402 c 1,53,54
 0 421 0 421 0 448 c 0,55,56
 0 474 0 474 18 493 c 0,57,58
 37 512 37 512 64 512 c 0,59,60
 90 512 90 512 109 493 c 256,61,62
 128 474 128 474 128 448 c 0,63,64
 128 421 128 421 109 402 c 0,65,66
 90 384 90 384 64 384 c 1,67,-1
 64 384 l 1,51,52
192 384 m 1,68,69
 165 384 165 384 146 402 c 1,70,71
 128 421 128 421 128 448 c 0,72,73
 128 474 128 474 146 493 c 0,74,75
 165 512 165 512 192 512 c 0,76,77
 218 512 218 512 237 493 c 256,78,79
 256 474 256 474 256 448 c 0,80,81
 256 421 256 421 237 402 c 0,82,83
 218 384 218 384 192 384 c 1,84,-1
 192 384 l 1,68,69
320 384 m 1,85,86
 293 384 293 384 274 402 c 1,87,88
 256 421 256 421 256 448 c 0,89,90
 256 474 256 474 274 493 c 0,91,92
 293 512 293 512 320 512 c 0,93,94
 346 512 346 512 365 493 c 256,95,96
 384 474 384 474 384 448 c 0,97,98
 384 421 384 421 365 402 c 0,99,100
 346 384 346 384 320 384 c 1,101,-1
 320 384 l 1,85,86
64 512 m 1,102,103
 37 512 37 512 18 530 c 1,104,105
 0 549 0 549 0 576 c 0,106,107
 0 602 0 602 18 621 c 0,108,109
 37 640 37 640 64 640 c 0,110,111
 90 640 90 640 109 621 c 256,112,113
 128 602 128 602 128 576 c 0,114,115
 128 549 128 549 109 530 c 0,116,117
 90 512 90 512 64 512 c 1,118,-1
 64 512 l 1,102,103
64 640 m 1,119,120
 37 640 37 640 18 658 c 1,121,122
 0 677 0 677 0 704 c 0,123,124
 0 730 0 730 18 749 c 0,125,126
 37 768 37 768 64 768 c 0,127,128
 90 768 90 768 109 749 c 256,129,130
 128 730 128 730 128 704 c 0,131,132
 128 677 128 677 109 658 c 0,133,134
 90 640 90 640 64 640 c 1,135,-1
 64 640 l 1,119,120
64 768 m 1,136,137
 37 768 37 768 18 786 c 1,138,139
 0 805 0 805 0 832 c 0,140,141
 0 858 0 858 18 877 c 0,142,143
 37 896 37 896 64 896 c 0,144,145
 90 896 90 896 109 877 c 256,146,147
 128 858 128 858 128 832 c 0,148,149
 128 805 128 805 109 786 c 0,150,151
 90 768 90 768 64 768 c 1,152,-1
 64 768 l 1,136,137
192 768 m 1,153,154
 165 768 165 768 146 786 c 1,155,156
 128 805 128 805 128 832 c 0,157,158
 128 858 128 858 146 877 c 0,159,160
 165 896 165 896 192 896 c 0,161,162
 218 896 218 896 237 877 c 256,163,164
 256 858 256 858 256 832 c 0,165,166
 256 805 256 805 237 786 c 0,167,168
 218 768 218 768 192 768 c 1,169,-1
 192 768 l 1,153,154
320 768 m 1,170,171
 293 768 293 768 274 786 c 1,172,173
 256 805 256 805 256 832 c 0,174,175
 256 858 256 858 274 877 c 0,176,177
 293 896 293 896 320 896 c 0,178,179
 346 896 346 896 365 877 c 256,180,181
 384 858 384 858 384 832 c 0,182,183
 384 805 384 805 365 786 c 0,184,185
 346 768 346 768 320 768 c 1,186,-1
 320 768 l 1,170,171
448 768 m 1,187,188
 421 768 421 768 402 786 c 1,189,190
 384 805 384 805 384 832 c 0,191,192
 384 858 384 858 402 877 c 0,193,194
 421 896 421 896 448 896 c 0,195,196
 474 896 474 896 493 877 c 256,197,198
 512 858 512 858 512 832 c 0,199,200
 512 805 512 805 493 786 c 0,201,202
 474 768 474 768 448 768 c 1,203,-1
 448 768 l 1,187,188
576 768 m 1,204,205
 549 768 549 768 530 786 c 1,206,207
 512 805 512 805 512 832 c 0,208,209
 512 858 512 858 530 877 c 0,210,211
 549 896 549 896 576 896 c 0,212,213
 602 896 602 896 621 877 c 256,214,215
 640 858 640 858 640 832 c 0,216,217
 640 805 640 805 621 786 c 0,218,219
 602 768 602 768 576 768 c 1,220,-1
 576 768 l 1,204,205
EndSplineSet
Validated: 5
EndChar

StartChar: G
Encoding: 71 71 42
Width: 768
Flags: W
LayerCount: 2
Fore
SplineSet
192 0 m 1,0,1
 165 0 165 0 146 18 c 1,2,3
 128 37 128 37 128 64 c 0,4,5
 128 90 128 90 146 109 c 0,6,7
 165 128 165 128 192 128 c 0,8,9
 218 128 218 128 237 109 c 256,10,11
 256 90 256 90 256 64 c 0,12,13
 256 37 256 37 237 18 c 0,14,15
 218 0 218 0 192 0 c 1,16,-1
 192 0 l 1,0,1
320 0 m 1,17,18
 293 0 293 0 274 18 c 1,19,20
 256 37 256 37 256 64 c 0,21,22
 256 90 256 90 274 109 c 0,23,24
 293 128 293 128 320 128 c 0,25,26
 346 128 346 128 365 109 c 256,27,28
 384 90 384 90 384 64 c 0,29,30
 384 37 384 37 365 18 c 0,31,32
 346 0 346 0 320 0 c 1,33,-1
 320 0 l 1,17,18
448 0 m 1,34,35
 421 0 421 0 402 18 c 1,36,37
 384 37 384 37 384 64 c 0,38,39
 384 90 384 90 402 109 c 0,40,41
 421 128 421 128 448 128 c 0,42,43
 474 128 474 128 493 109 c 256,44,45
 512 90 512 90 512 64 c 0,46,47
 512 37 512 37 493 18 c 0,48,49
 474 0 474 0 448 0 c 1,50,-1
 448 0 l 1,34,35
64 128 m 1,51,52
 37 128 37 128 18 146 c 1,53,54
 0 165 0 165 0 192 c 0,55,56
 0 218 0 218 18 237 c 0,57,58
 37 256 37 256 64 256 c 0,59,60
 90 256 90 256 109 237 c 256,61,62
 128 218 128 218 128 192 c 0,63,64
 128 165 128 165 109 146 c 0,65,66
 90 128 90 128 64 128 c 1,67,-1
 64 128 l 1,51,52
576 128 m 1,68,69
 549 128 549 128 530 146 c 1,70,71
 512 165 512 165 512 192 c 0,72,73
 512 218 512 218 530 237 c 0,74,75
 549 256 549 256 576 256 c 0,76,77
 602 256 602 256 621 237 c 256,78,79
 640 218 640 218 640 192 c 0,80,81
 640 165 640 165 621 146 c 0,82,83
 602 128 602 128 576 128 c 1,84,-1
 576 128 l 1,68,69
64 256 m 1,85,86
 37 256 37 256 18 274 c 1,87,88
 0 293 0 293 0 320 c 0,89,90
 0 346 0 346 18 365 c 0,91,92
 37 384 37 384 64 384 c 0,93,94
 90 384 90 384 109 365 c 256,95,96
 128 346 128 346 128 320 c 0,97,98
 128 293 128 293 109 274 c 0,99,100
 90 256 90 256 64 256 c 1,101,-1
 64 256 l 1,85,86
448 256 m 1,102,103
 421 256 421 256 402 274 c 1,104,105
 384 293 384 293 384 320 c 0,106,107
 384 346 384 346 402 365 c 0,108,109
 421 384 421 384 448 384 c 0,110,111
 474 384 474 384 493 365 c 256,112,113
 512 346 512 346 512 320 c 0,114,115
 512 293 512 293 493 274 c 0,116,117
 474 256 474 256 448 256 c 1,118,-1
 448 256 l 1,102,103
576 256 m 1,119,120
 549 256 549 256 530 274 c 1,121,122
 512 293 512 293 512 320 c 0,123,124
 512 346 512 346 530 365 c 0,125,126
 549 384 549 384 576 384 c 0,127,128
 602 384 602 384 621 365 c 256,129,130
 640 346 640 346 640 320 c 0,131,132
 640 293 640 293 621 274 c 0,133,134
 602 256 602 256 576 256 c 1,135,-1
 576 256 l 1,119,120
64 384 m 1,136,137
 37 384 37 384 18 402 c 1,138,139
 0 421 0 421 0 448 c 0,140,141
 0 474 0 474 18 493 c 0,142,143
 37 512 37 512 64 512 c 0,144,145
 90 512 90 512 109 493 c 256,146,147
 128 474 128 474 128 448 c 0,148,149
 128 421 128 421 109 402 c 0,150,151
 90 384 90 384 64 384 c 1,152,-1
 64 384 l 1,136,137
64 512 m 1,153,154
 37 512 37 512 18 530 c 1,155,156
 0 549 0 549 0 576 c 0,157,158
 0 602 0 602 18 621 c 0,159,160
 37 640 37 640 64 640 c 0,161,162
 90 640 90 640 109 621 c 256,163,164
 128 602 128 602 128 576 c 0,165,166
 128 549 128 549 109 530 c 0,167,168
 90 512 90 512 64 512 c 1,169,-1
 64 512 l 1,153,154
64 640 m 1,170,171
 37 640 37 640 18 658 c 1,172,173
 0 677 0 677 0 704 c 0,174,175
 0 730 0 730 18 749 c 0,176,177
 37 768 37 768 64 768 c 0,178,179
 90 768 90 768 109 749 c 256,180,181
 128 730 128 730 128 704 c 0,182,183
 128 677 128 677 109 658 c 0,184,185
 90 640 90 640 64 640 c 1,186,-1
 64 640 l 1,170,171
576 640 m 1,187,188
 549 640 549 640 530 658 c 1,189,190
 512 677 512 677 512 704 c 0,191,192
 512 730 512 730 530 749 c 0,193,194
 549 768 549 768 576 768 c 0,195,196
 602 768 602 768 621 749 c 256,197,198
 640 730 640 730 640 704 c 0,199,200
 640 677 640 677 621 658 c 0,201,202
 602 640 602 640 576 640 c 1,203,-1
 576 640 l 1,187,188
192 768 m 1,204,205
 165 768 165 768 146 786 c 1,206,207
 128 805 128 805 128 832 c 0,208,209
 128 858 128 858 146 877 c 0,210,211
 165 896 165 896 192 896 c 0,212,213
 218 896 218 896 237 877 c 256,214,215
 256 858 256 858 256 832 c 0,216,217
 256 805 256 805 237 786 c 0,218,219
 218 768 218 768 192 768 c 1,220,-1
 192 768 l 1,204,205
320 768 m 1,221,222
 293 768 293 768 274 786 c 1,223,224
 256 805 256 805 256 832 c 0,225,226
 256 858 256 858 274 877 c 0,227,228
 293 896 293 896 320 896 c 0,229,230
 346 896 346 896 365 877 c 256,231,232
 384 858 384 858 384 832 c 0,233,234
 384 805 384 805 365 786 c 0,235,236
 346 768 346 768 320 768 c 1,237,-1
 320 768 l 1,221,222
448 768 m 1,238,239
 421 768 421 768 402 786 c 1,240,241
 384 805 384 805 384 832 c 0,242,243
 384 858 384 858 402 877 c 0,244,245
 421 896 421 896 448 896 c 0,246,247
 474 896 474 896 493 877 c 256,248,249
 512 858 512 858 512 832 c 0,250,251
 512 805 512 805 493 786 c 0,252,253
 474 768 474 768 448 768 c 1,254,-1
 448 768 l 1,238,239
EndSplineSet
Validated: 5
EndChar

StartChar: H
Encoding: 72 72 43
Width: 768
Flags: W
LayerCount: 2
Fore
SplineSet
64 0 m 1,0,1
 37 0 37 0 18 18 c 1,2,3
 0 37 0 37 0 64 c 0,4,5
 0 90 0 90 18 109 c 0,6,7
 37 128 37 128 64 128 c 0,8,9
 90 128 90 128 109 109 c 256,10,11
 128 90 128 90 128 64 c 0,12,13
 128 37 128 37 109 18 c 0,14,15
 90 0 90 0 64 0 c 1,16,-1
 64 0 l 1,0,1
576 0 m 1,17,18
 549 0 549 0 530 18 c 1,19,20
 512 37 512 37 512 64 c 0,21,22
 512 90 512 90 530 109 c 0,23,24
 549 128 549 128 576 128 c 0,25,26
 602 128 602 128 621 109 c 256,27,28
 640 90 640 90 640 64 c 0,29,30
 640 37 640 37 621 18 c 0,31,32
 602 0 602 0 576 0 c 1,33,-1
 576 0 l 1,17,18
64 128 m 1,34,35
 37 128 37 128 18 146 c 1,36,37
 0 165 0 165 0 192 c 0,38,39
 0 218 0 218 18 237 c 0,40,41
 37 256 37 256 64 256 c 0,42,43
 90 256 90 256 109 237 c 256,44,45
 128 218 128 218 128 192 c 0,46,47
 128 165 128 165 109 146 c 0,48,49
 90 128 90 128 64 128 c 1,50,-1
 64 128 l 1,34,35
576 128 m 1,51,52
 549 128 549 128 530 146 c 1,53,54
 512 165 512 165 512 192 c 0,55,56
 512 218 512 218 530 237 c 0,57,58
 549 256 549 256 576 256 c 0,59,60
 602 256 602 256 621 237 c 256,61,62
 640 218 640 218 640 192 c 0,63,64
 640 165 640 165 621 146 c 0,65,66
 602 128 602 128 576 128 c 1,67,-1
 576 128 l 1,51,52
64 256 m 1,68,69
 37 256 37 256 18 274 c 1,70,71
 0 293 0 293 0 320 c 0,72,73
 0 346 0 346 18 365 c 0,74,75
 37 384 37 384 64 384 c 0,76,77
 90 384 90 384 109 365 c 256,78,79
 128 346 128 346 128 320 c 0,80,81
 128 293 128 293 109 274 c 0,82,83
 90 256 90 256 64 256 c 1,84,-1
 64 256 l 1,68,69
576 256 m 1,85,86
 549 256 549 256 530 274 c 1,87,88
 512 293 512 293 512 320 c 0,89,90
 512 346 512 346 530 365 c 0,91,92
 549 384 549 384 576 384 c 0,93,94
 602 384 602 384 621 365 c 256,95,96
 640 346 640 346 640 320 c 0,97,98
 640 293 640 293 621 274 c 0,99,100
 602 256 602 256 576 256 c 1,101,-1
 576 256 l 1,85,86
64 384 m 1,102,103
 37 384 37 384 18 402 c 1,104,105
 0 421 0 421 0 448 c 0,106,107
 0 474 0 474 18 493 c 0,108,109
 37 512 37 512 64 512 c 0,110,111
 90 512 90 512 109 493 c 256,112,113
 128 474 128 474 128 448 c 0,114,115
 128 421 128 421 109 402 c 0,116,117
 90 384 90 384 64 384 c 1,118,-1
 64 384 l 1,102,103
192 384 m 1,119,120
 165 384 165 384 146 402 c 1,121,122
 128 421 128 421 128 448 c 0,123,124
 128 474 128 474 146 493 c 0,125,126
 165 512 165 512 192 512 c 0,127,128
 218 512 218 512 237 493 c 256,129,130
 256 474 256 474 256 448 c 0,131,132
 256 421 256 421 237 402 c 0,133,134
 218 384 218 384 192 384 c 1,135,-1
 192 384 l 1,119,120
320 384 m 1,136,137
 293 384 293 384 274 402 c 1,138,139
 256 421 256 421 256 448 c 0,140,141
 256 474 256 474 274 493 c 0,142,143
 293 512 293 512 320 512 c 0,144,145
 346 512 346 512 365 493 c 256,146,147
 384 474 384 474 384 448 c 0,148,149
 384 421 384 421 365 402 c 0,150,151
 346 384 346 384 320 384 c 1,152,-1
 320 384 l 1,136,137
448 384 m 1,153,154
 421 384 421 384 402 402 c 1,155,156
 384 421 384 421 384 448 c 0,157,158
 384 474 384 474 402 493 c 0,159,160
 421 512 421 512 448 512 c 0,161,162
 474 512 474 512 493 493 c 256,163,164
 512 474 512 474 512 448 c 0,165,166
 512 421 512 421 493 402 c 0,167,168
 474 384 474 384 448 384 c 1,169,-1
 448 384 l 1,153,154
576 384 m 1,170,171
 549 384 549 384 530 402 c 1,172,173
 512 421 512 421 512 448 c 0,174,175
 512 474 512 474 530 493 c 0,176,177
 549 512 549 512 576 512 c 0,178,179
 602 512 602 512 621 493 c 256,180,181
 640 474 640 474 640 448 c 0,182,183
 640 421 640 421 621 402 c 0,184,185
 602 384 602 384 576 384 c 1,186,-1
 576 384 l 1,170,171
64 512 m 1,187,188
 37 512 37 512 18 530 c 1,189,190
 0 549 0 549 0 576 c 0,191,192
 0 602 0 602 18 621 c 0,193,194
 37 640 37 640 64 640 c 0,195,196
 90 640 90 640 109 621 c 256,197,198
 128 602 128 602 128 576 c 0,199,200
 128 549 128 549 109 530 c 0,201,202
 90 512 90 512 64 512 c 1,203,-1
 64 512 l 1,187,188
576 512 m 1,204,205
 549 512 549 512 530 530 c 1,206,207
 512 549 512 549 512 576 c 0,208,209
 512 602 512 602 530 621 c 0,210,211
 549 640 549 640 576 640 c 0,212,213
 602 640 602 640 621 621 c 256,214,215
 640 602 640 602 640 576 c 0,216,217
 640 549 640 549 621 530 c 0,218,219
 602 512 602 512 576 512 c 1,220,-1
 576 512 l 1,204,205
64 640 m 1,221,222
 37 640 37 640 18 658 c 1,223,224
 0 677 0 677 0 704 c 0,225,226
 0 730 0 730 18 749 c 0,227,228
 37 768 37 768 64 768 c 0,229,230
 90 768 90 768 109 749 c 256,231,232
 128 730 128 730 128 704 c 0,233,234
 128 677 128 677 109 658 c 0,235,236
 90 640 90 640 64 640 c 1,237,-1
 64 640 l 1,221,222
576 640 m 1,238,239
 549 640 549 640 530 658 c 1,240,241
 512 677 512 677 512 704 c 0,242,243
 512 730 512 730 530 749 c 0,244,245
 549 768 549 768 576 768 c 0,246,247
 602 768 602 768 621 749 c 256,248,249
 640 730 640 730 640 704 c 0,250,251
 640 677 640 677 621 658 c 0,252,253
 602 640 602 640 576 640 c 1,254,-1
 576 640 l 1,238,239
64 768 m 1,255,256
 37 768 37 768 18 786 c 1,257,258
 0 805 0 805 0 832 c 0,259,260
 0 858 0 858 18 877 c 0,261,262
 37 896 37 896 64 896 c 0,263,264
 90 896 90 896 109 877 c 256,265,266
 128 858 128 858 128 832 c 0,267,268
 128 805 128 805 109 786 c 0,269,270
 90 768 90 768 64 768 c 1,271,-1
 64 768 l 1,255,256
576 768 m 1,272,273
 549 768 549 768 530 786 c 1,274,275
 512 805 512 805 512 832 c 0,276,277
 512 858 512 858 530 877 c 0,278,279
 549 896 549 896 576 896 c 0,280,281
 602 896 602 896 621 877 c 256,282,283
 640 858 640 858 640 832 c 0,284,285
 640 805 640 805 621 786 c 0,286,287
 602 768 602 768 576 768 c 1,288,-1
 576 768 l 1,272,273
EndSplineSet
Validated: 5
EndChar

StartChar: I
Encoding: 73 73 44
Width: 768
Flags: W
LayerCount: 2
Fore
SplineSet
256 0 m 5,0,1
 229 0 229 0 210 18 c 5,2,3
 192 37 192 37 192 64 c 4,4,5
 192 90 192 90 210 109 c 4,6,7
 229 128 229 128 256 128 c 4,8,9
 282 128 282 128 301 109 c 260,10,11
 320 90 320 90 320 64 c 4,12,13
 320 37 320 37 301 18 c 4,14,15
 282 0 282 0 256 0 c 5,16,-1
 256 0 l 5,0,1
384 0 m 5,17,18
 357 0 357 0 338 18 c 5,19,20
 320 37 320 37 320 64 c 4,21,22
 320 90 320 90 338 109 c 4,23,24
 357 128 357 128 384 128 c 4,25,26
 410 128 410 128 429 109 c 260,27,28
 448 90 448 90 448 64 c 4,29,30
 448 37 448 37 429 18 c 4,31,32
 410 0 410 0 384 0 c 5,33,-1
 384 0 l 5,17,18
512 0 m 5,34,35
 485 0 485 0 466 18 c 5,36,37
 448 37 448 37 448 64 c 4,38,39
 448 90 448 90 466 109 c 4,40,41
 485 128 485 128 512 128 c 4,42,43
 538 128 538 128 557 109 c 260,44,45
 576 90 576 90 576 64 c 4,46,47
 576 37 576 37 557 18 c 4,48,49
 538 0 538 0 512 0 c 5,50,-1
 512 0 l 5,34,35
384 128 m 5,51,52
 357 128 357 128 338 146 c 5,53,54
 320 165 320 165 320 192 c 4,55,56
 320 218 320 218 338 237 c 4,57,58
 357 256 357 256 384 256 c 4,59,60
 410 256 410 256 429 237 c 260,61,62
 448 218 448 218 448 192 c 4,63,64
 448 165 448 165 429 146 c 4,65,66
 410 128 410 128 384 128 c 5,67,-1
 384 128 l 5,51,52
384 256 m 5,68,69
 357 256 357 256 338 274 c 5,70,71
 320 293 320 293 320 320 c 4,72,73
 320 346 320 346 338 365 c 4,74,75
 357 384 357 384 384 384 c 4,76,77
 410 384 410 384 429 365 c 260,78,79
 448 346 448 346 448 320 c 4,80,81
 448 293 448 293 429 274 c 4,82,83
 410 256 410 256 384 256 c 5,84,-1
 384 256 l 5,68,69
384 384 m 5,85,86
 357 384 357 384 338 402 c 5,87,88
 320 421 320 421 320 448 c 4,89,90
 320 474 320 474 338 493 c 4,91,92
 357 512 357 512 384 512 c 4,93,94
 410 512 410 512 429 493 c 260,95,96
 448 474 448 474 448 448 c 4,97,98
 448 421 448 421 429 402 c 4,99,100
 410 384 410 384 384 384 c 5,101,-1
 384 384 l 5,85,86
384 512 m 5,102,103
 357 512 357 512 338 530 c 5,104,105
 320 549 320 549 320 576 c 4,106,107
 320 602 320 602 338 621 c 4,108,109
 357 640 357 640 384 640 c 4,110,111
 410 640 410 640 429 621 c 260,112,113
 448 602 448 602 448 576 c 4,114,115
 448 549 448 549 429 530 c 4,116,117
 410 512 410 512 384 512 c 5,118,-1
 384 512 l 5,102,103
384 640 m 5,119,120
 357 640 357 640 338 658 c 5,121,122
 320 677 320 677 320 704 c 4,123,124
 320 730 320 730 338 749 c 4,125,126
 357 768 357 768 384 768 c 4,127,128
 410 768 410 768 429 749 c 260,129,130
 448 730 448 730 448 704 c 4,131,132
 448 677 448 677 429 658 c 4,133,134
 410 640 410 640 384 640 c 5,135,-1
 384 640 l 5,119,120
256 768 m 5,136,137
 229 768 229 768 210 786 c 5,138,139
 192 805 192 805 192 832 c 4,140,141
 192 858 192 858 210 877 c 4,142,143
 229 896 229 896 256 896 c 4,144,145
 282 896 282 896 301 877 c 260,146,147
 320 858 320 858 320 832 c 4,148,149
 320 805 320 805 301 786 c 4,150,151
 282 768 282 768 256 768 c 5,152,-1
 256 768 l 5,136,137
384 768 m 5,153,154
 357 768 357 768 338 786 c 5,155,156
 320 805 320 805 320 832 c 4,157,158
 320 858 320 858 338 877 c 4,159,160
 357 896 357 896 384 896 c 4,161,162
 410 896 410 896 429 877 c 260,163,164
 448 858 448 858 448 832 c 4,165,166
 448 805 448 805 429 786 c 4,167,168
 410 768 410 768 384 768 c 5,169,-1
 384 768 l 5,153,154
512 768 m 5,170,171
 485 768 485 768 466 786 c 5,172,173
 448 805 448 805 448 832 c 4,174,175
 448 858 448 858 466 877 c 4,176,177
 485 896 485 896 512 896 c 4,178,179
 538 896 538 896 557 877 c 260,180,181
 576 858 576 858 576 832 c 4,182,183
 576 805 576 805 557 786 c 4,184,185
 538 768 538 768 512 768 c 5,186,-1
 512 768 l 5,170,171
EndSplineSet
Validated: 5
EndChar

StartChar: J
Encoding: 74 74 45
Width: 768
Flags: W
LayerCount: 2
Fore
SplineSet
192 0 m 1,0,1
 165 0 165 0 146 18 c 1,2,3
 128 37 128 37 128 64 c 0,4,5
 128 90 128 90 146 109 c 0,6,7
 165 128 165 128 192 128 c 0,8,9
 218 128 218 128 237 109 c 256,10,11
 256 90 256 90 256 64 c 0,12,13
 256 37 256 37 237 18 c 0,14,15
 218 0 218 0 192 0 c 1,16,-1
 192 0 l 1,0,1
320 0 m 1,17,18
 293 0 293 0 274 18 c 1,19,20
 256 37 256 37 256 64 c 0,21,22
 256 90 256 90 274 109 c 0,23,24
 293 128 293 128 320 128 c 0,25,26
 346 128 346 128 365 109 c 256,27,28
 384 90 384 90 384 64 c 0,29,30
 384 37 384 37 365 18 c 0,31,32
 346 0 346 0 320 0 c 1,33,-1
 320 0 l 1,17,18
448 0 m 1,34,35
 421 0 421 0 402 18 c 1,36,37
 384 37 384 37 384 64 c 0,38,39
 384 90 384 90 402 109 c 0,40,41
 421 128 421 128 448 128 c 0,42,43
 474 128 474 128 493 109 c 256,44,45
 512 90 512 90 512 64 c 0,46,47
 512 37 512 37 493 18 c 0,48,49
 474 0 474 0 448 0 c 1,50,-1
 448 0 l 1,34,35
64 128 m 1,51,52
 37 128 37 128 18 146 c 1,53,54
 0 165 0 165 0 192 c 0,55,56
 0 218 0 218 18 237 c 0,57,58
 37 256 37 256 64 256 c 0,59,60
 90 256 90 256 109 237 c 256,61,62
 128 218 128 218 128 192 c 0,63,64
 128 165 128 165 109 146 c 0,65,66
 90 128 90 128 64 128 c 1,67,-1
 64 128 l 1,51,52
576 128 m 1,68,69
 549 128 549 128 530 146 c 1,70,71
 512 165 512 165 512 192 c 0,72,73
 512 218 512 218 530 237 c 0,74,75
 549 256 549 256 576 256 c 0,76,77
 602 256 602 256 621 237 c 256,78,79
 640 218 640 218 640 192 c 0,80,81
 640 165 640 165 621 146 c 0,82,83
 602 128 602 128 576 128 c 1,84,-1
 576 128 l 1,68,69
576 256 m 1,85,86
 549 256 549 256 530 274 c 1,87,88
 512 293 512 293 512 320 c 0,89,90
 512 346 512 346 530 365 c 0,91,92
 549 384 549 384 576 384 c 0,93,94
 602 384 602 384 621 365 c 256,95,96
 640 346 640 346 640 320 c 0,97,98
 640 293 640 293 621 274 c 0,99,100
 602 256 602 256 576 256 c 1,101,-1
 576 256 l 1,85,86
576 384 m 1,102,103
 549 384 549 384 530 402 c 1,104,105
 512 421 512 421 512 448 c 0,106,107
 512 474 512 474 530 493 c 0,108,109
 549 512 549 512 576 512 c 0,110,111
 602 512 602 512 621 493 c 256,112,113
 640 474 640 474 640 448 c 0,114,115
 640 421 640 421 621 402 c 0,116,117
 602 384 602 384 576 384 c 1,118,-1
 576 384 l 1,102,103
576 512 m 1,119,120
 549 512 549 512 530 530 c 1,121,122
 512 549 512 549 512 576 c 0,123,124
 512 602 512 602 530 621 c 0,125,126
 549 640 549 640 576 640 c 0,127,128
 602 640 602 640 621 621 c 256,129,130
 640 602 640 602 640 576 c 0,131,132
 640 549 640 549 621 530 c 0,133,134
 602 512 602 512 576 512 c 1,135,-1
 576 512 l 1,119,120
576 640 m 1,136,137
 549 640 549 640 530 658 c 1,138,139
 512 677 512 677 512 704 c 0,140,141
 512 730 512 730 530 749 c 0,142,143
 549 768 549 768 576 768 c 0,144,145
 602 768 602 768 621 749 c 256,146,147
 640 730 640 730 640 704 c 0,148,149
 640 677 640 677 621 658 c 0,150,151
 602 640 602 640 576 640 c 1,152,-1
 576 640 l 1,136,137
576 768 m 1,153,154
 549 768 549 768 530 786 c 1,155,156
 512 805 512 805 512 832 c 0,157,158
 512 858 512 858 530 877 c 0,159,160
 549 896 549 896 576 896 c 0,161,162
 602 896 602 896 621 877 c 256,163,164
 640 858 640 858 640 832 c 0,165,166
 640 805 640 805 621 786 c 0,167,168
 602 768 602 768 576 768 c 1,169,-1
 576 768 l 1,153,154
EndSplineSet
Validated: 5
EndChar

StartChar: K
Encoding: 75 75 46
Width: 768
Flags: W
LayerCount: 2
Fore
SplineSet
64 0 m 1,0,1
 37 0 37 0 18 18 c 1,2,3
 0 37 0 37 0 64 c 0,4,5
 0 90 0 90 18 109 c 0,6,7
 37 128 37 128 64 128 c 0,8,9
 90 128 90 128 109 109 c 256,10,11
 128 90 128 90 128 64 c 0,12,13
 128 37 128 37 109 18 c 0,14,15
 90 0 90 0 64 0 c 1,16,-1
 64 0 l 1,0,1
576 0 m 1,17,18
 549 0 549 0 530 18 c 1,19,20
 512 37 512 37 512 64 c 0,21,22
 512 90 512 90 530 109 c 0,23,24
 549 128 549 128 576 128 c 0,25,26
 602 128 602 128 621 109 c 256,27,28
 640 90 640 90 640 64 c 0,29,30
 640 37 640 37 621 18 c 0,31,32
 602 0 602 0 576 0 c 1,33,-1
 576 0 l 1,17,18
64 128 m 1,34,35
 37 128 37 128 18 146 c 1,36,37
 0 165 0 165 0 192 c 0,38,39
 0 218 0 218 18 237 c 0,40,41
 37 256 37 256 64 256 c 0,42,43
 90 256 90 256 109 237 c 256,44,45
 128 218 128 218 128 192 c 0,46,47
 128 165 128 165 109 146 c 0,48,49
 90 128 90 128 64 128 c 1,50,-1
 64 128 l 1,34,35
448 128 m 1,51,52
 421 128 421 128 402 146 c 1,53,54
 384 165 384 165 384 192 c 0,55,56
 384 218 384 218 402 237 c 0,57,58
 421 256 421 256 448 256 c 0,59,60
 474 256 474 256 493 237 c 256,61,62
 512 218 512 218 512 192 c 0,63,64
 512 165 512 165 493 146 c 0,65,66
 474 128 474 128 448 128 c 1,67,-1
 448 128 l 1,51,52
64 256 m 1,68,69
 37 256 37 256 18 274 c 1,70,71
 0 293 0 293 0 320 c 0,72,73
 0 346 0 346 18 365 c 0,74,75
 37 384 37 384 64 384 c 0,76,77
 90 384 90 384 109 365 c 256,78,79
 128 346 128 346 128 320 c 0,80,81
 128 293 128 293 109 274 c 0,82,83
 90 256 90 256 64 256 c 1,84,-1
 64 256 l 1,68,69
320 256 m 1,85,86
 293 256 293 256 274 274 c 1,87,88
 256 293 256 293 256 320 c 0,89,90
 256 346 256 346 274 365 c 0,91,92
 293 384 293 384 320 384 c 0,93,94
 346 384 346 384 365 365 c 256,95,96
 384 346 384 346 384 320 c 0,97,98
 384 293 384 293 365 274 c 0,99,100
 346 256 346 256 320 256 c 1,101,-1
 320 256 l 1,85,86
64 384 m 1,102,103
 37 384 37 384 18 402 c 1,104,105
 0 421 0 421 0 448 c 0,106,107
 0 474 0 474 18 493 c 0,108,109
 37 512 37 512 64 512 c 0,110,111
 90 512 90 512 109 493 c 256,112,113
 128 474 128 474 128 448 c 0,114,115
 128 421 128 421 109 402 c 0,116,117
 90 384 90 384 64 384 c 1,118,-1
 64 384 l 1,102,103
192 384 m 1,119,120
 165 384 165 384 146 402 c 1,121,122
 128 421 128 421 128 448 c 0,123,124
 128 474 128 474 146 493 c 0,125,126
 165 512 165 512 192 512 c 0,127,128
 218 512 218 512 237 493 c 256,129,130
 256 474 256 474 256 448 c 0,131,132
 256 421 256 421 237 402 c 0,133,134
 218 384 218 384 192 384 c 1,135,-1
 192 384 l 1,119,120
64 512 m 1,136,137
 37 512 37 512 18 530 c 1,138,139
 0 549 0 549 0 576 c 0,140,141
 0 602 0 602 18 621 c 0,142,143
 37 640 37 640 64 640 c 0,144,145
 90 640 90 640 109 621 c 256,146,147
 128 602 128 602 128 576 c 0,148,149
 128 549 128 549 109 530 c 0,150,151
 90 512 90 512 64 512 c 1,152,-1
 64 512 l 1,136,137
320 512 m 1,153,154
 293 512 293 512 274 530 c 1,155,156
 256 549 256 549 256 576 c 0,157,158
 256 602 256 602 274 621 c 0,159,160
 293 640 293 640 320 640 c 0,161,162
 346 640 346 640 365 621 c 256,163,164
 384 602 384 602 384 576 c 0,165,166
 384 549 384 549 365 530 c 0,167,168
 346 512 346 512 320 512 c 1,169,-1
 320 512 l 1,153,154
64 640 m 1,170,171
 37 640 37 640 18 658 c 1,172,173
 0 677 0 677 0 704 c 0,174,175
 0 730 0 730 18 749 c 0,176,177
 37 768 37 768 64 768 c 0,178,179
 90 768 90 768 109 749 c 256,180,181
 128 730 128 730 128 704 c 0,182,183
 128 677 128 677 109 658 c 0,184,185
 90 640 90 640 64 640 c 1,186,-1
 64 640 l 1,170,171
448 640 m 1,187,188
 421 640 421 640 402 658 c 1,189,190
 384 677 384 677 384 704 c 0,191,192
 384 730 384 730 402 749 c 0,193,194
 421 768 421 768 448 768 c 0,195,196
 474 768 474 768 493 749 c 256,197,198
 512 730 512 730 512 704 c 0,199,200
 512 677 512 677 493 658 c 0,201,202
 474 640 474 640 448 640 c 1,203,-1
 448 640 l 1,187,188
64 768 m 1,204,205
 37 768 37 768 18 786 c 1,206,207
 0 805 0 805 0 832 c 0,208,209
 0 858 0 858 18 877 c 0,210,211
 37 896 37 896 64 896 c 0,212,213
 90 896 90 896 109 877 c 256,214,215
 128 858 128 858 128 832 c 0,216,217
 128 805 128 805 109 786 c 0,218,219
 90 768 90 768 64 768 c 1,220,-1
 64 768 l 1,204,205
576 768 m 1,221,222
 549 768 549 768 530 786 c 1,223,224
 512 805 512 805 512 832 c 0,225,226
 512 858 512 858 530 877 c 0,227,228
 549 896 549 896 576 896 c 0,229,230
 602 896 602 896 621 877 c 256,231,232
 640 858 640 858 640 832 c 0,233,234
 640 805 640 805 621 786 c 0,235,236
 602 768 602 768 576 768 c 1,237,-1
 576 768 l 1,221,222
EndSplineSet
Validated: 5
EndChar

StartChar: L
Encoding: 76 76 47
Width: 768
Flags: W
LayerCount: 2
Fore
SplineSet
64 0 m 1,0,1
 37 0 37 0 18 18 c 1,2,3
 0 37 0 37 0 64 c 0,4,5
 0 90 0 90 18 109 c 0,6,7
 37 128 37 128 64 128 c 0,8,9
 90 128 90 128 109 109 c 256,10,11
 128 90 128 90 128 64 c 0,12,13
 128 37 128 37 109 18 c 0,14,15
 90 0 90 0 64 0 c 1,16,-1
 64 0 l 1,0,1
192 0 m 1,17,18
 165 0 165 0 146 18 c 1,19,20
 128 37 128 37 128 64 c 0,21,22
 128 90 128 90 146 109 c 0,23,24
 165 128 165 128 192 128 c 0,25,26
 218 128 218 128 237 109 c 256,27,28
 256 90 256 90 256 64 c 0,29,30
 256 37 256 37 237 18 c 0,31,32
 218 0 218 0 192 0 c 1,33,-1
 192 0 l 1,17,18
320 0 m 1,34,35
 293 0 293 0 274 18 c 1,36,37
 256 37 256 37 256 64 c 0,38,39
 256 90 256 90 274 109 c 0,40,41
 293 128 293 128 320 128 c 0,42,43
 346 128 346 128 365 109 c 256,44,45
 384 90 384 90 384 64 c 0,46,47
 384 37 384 37 365 18 c 0,48,49
 346 0 346 0 320 0 c 1,50,-1
 320 0 l 1,34,35
448 0 m 1,51,52
 421 0 421 0 402 18 c 1,53,54
 384 37 384 37 384 64 c 0,55,56
 384 90 384 90 402 109 c 0,57,58
 421 128 421 128 448 128 c 0,59,60
 474 128 474 128 493 109 c 256,61,62
 512 90 512 90 512 64 c 0,63,64
 512 37 512 37 493 18 c 0,65,66
 474 0 474 0 448 0 c 1,67,-1
 448 0 l 1,51,52
576 0 m 1,68,69
 549 0 549 0 530 18 c 1,70,71
 512 37 512 37 512 64 c 0,72,73
 512 90 512 90 530 109 c 0,74,75
 549 128 549 128 576 128 c 0,76,77
 602 128 602 128 621 109 c 256,78,79
 640 90 640 90 640 64 c 0,80,81
 640 37 640 37 621 18 c 0,82,83
 602 0 602 0 576 0 c 1,84,-1
 576 0 l 1,68,69
64 128 m 1,85,86
 37 128 37 128 18 146 c 1,87,88
 0 165 0 165 0 192 c 0,89,90
 0 218 0 218 18 237 c 0,91,92
 37 256 37 256 64 256 c 0,93,94
 90 256 90 256 109 237 c 256,95,96
 128 218 128 218 128 192 c 0,97,98
 128 165 128 165 109 146 c 0,99,100
 90 128 90 128 64 128 c 1,101,-1
 64 128 l 1,85,86
64 256 m 1,102,103
 37 256 37 256 18 274 c 1,104,105
 0 293 0 293 0 320 c 0,106,107
 0 346 0 346 18 365 c 0,108,109
 37 384 37 384 64 384 c 0,110,111
 90 384 90 384 109 365 c 256,112,113
 128 346 128 346 128 320 c 0,114,115
 128 293 128 293 109 274 c 0,116,117
 90 256 90 256 64 256 c 1,118,-1
 64 256 l 1,102,103
64 384 m 1,119,120
 37 384 37 384 18 402 c 1,121,122
 0 421 0 421 0 448 c 0,123,124
 0 474 0 474 18 493 c 0,125,126
 37 512 37 512 64 512 c 0,127,128
 90 512 90 512 109 493 c 256,129,130
 128 474 128 474 128 448 c 0,131,132
 128 421 128 421 109 402 c 0,133,134
 90 384 90 384 64 384 c 1,135,-1
 64 384 l 1,119,120
64 512 m 1,136,137
 37 512 37 512 18 530 c 1,138,139
 0 549 0 549 0 576 c 0,140,141
 0 602 0 602 18 621 c 0,142,143
 37 640 37 640 64 640 c 0,144,145
 90 640 90 640 109 621 c 256,146,147
 128 602 128 602 128 576 c 0,148,149
 128 549 128 549 109 530 c 0,150,151
 90 512 90 512 64 512 c 1,152,-1
 64 512 l 1,136,137
64 640 m 1,153,154
 37 640 37 640 18 658 c 1,155,156
 0 677 0 677 0 704 c 0,157,158
 0 730 0 730 18 749 c 0,159,160
 37 768 37 768 64 768 c 0,161,162
 90 768 90 768 109 749 c 256,163,164
 128 730 128 730 128 704 c 0,165,166
 128 677 128 677 109 658 c 0,167,168
 90 640 90 640 64 640 c 1,169,-1
 64 640 l 1,153,154
64 768 m 1,170,171
 37 768 37 768 18 786 c 1,172,173
 0 805 0 805 0 832 c 0,174,175
 0 858 0 858 18 877 c 0,176,177
 37 896 37 896 64 896 c 0,178,179
 90 896 90 896 109 877 c 256,180,181
 128 858 128 858 128 832 c 0,182,183
 128 805 128 805 109 786 c 0,184,185
 90 768 90 768 64 768 c 1,186,-1
 64 768 l 1,170,171
EndSplineSet
Validated: 5
EndChar

StartChar: M
Encoding: 77 77 48
Width: 768
Flags: W
LayerCount: 2
Fore
SplineSet
64 0 m 1,0,1
 37 0 37 0 18 18 c 1,2,3
 0 37 0 37 0 64 c 0,4,5
 0 90 0 90 18 109 c 0,6,7
 37 128 37 128 64 128 c 0,8,9
 90 128 90 128 109 109 c 256,10,11
 128 90 128 90 128 64 c 0,12,13
 128 37 128 37 109 18 c 0,14,15
 90 0 90 0 64 0 c 1,16,-1
 64 0 l 1,0,1
576 0 m 1,17,18
 549 0 549 0 530 18 c 1,19,20
 512 37 512 37 512 64 c 0,21,22
 512 90 512 90 530 109 c 0,23,24
 549 128 549 128 576 128 c 0,25,26
 602 128 602 128 621 109 c 256,27,28
 640 90 640 90 640 64 c 0,29,30
 640 37 640 37 621 18 c 0,31,32
 602 0 602 0 576 0 c 1,33,-1
 576 0 l 1,17,18
64 128 m 1,34,35
 37 128 37 128 18 146 c 1,36,37
 0 165 0 165 0 192 c 0,38,39
 0 218 0 218 18 237 c 0,40,41
 37 256 37 256 64 256 c 0,42,43
 90 256 90 256 109 237 c 256,44,45
 128 218 128 218 128 192 c 0,46,47
 128 165 128 165 109 146 c 0,48,49
 90 128 90 128 64 128 c 1,50,-1
 64 128 l 1,34,35
576 128 m 1,51,52
 549 128 549 128 530 146 c 1,53,54
 512 165 512 165 512 192 c 0,55,56
 512 218 512 218 530 237 c 0,57,58
 549 256 549 256 576 256 c 0,59,60
 602 256 602 256 621 237 c 256,61,62
 640 218 640 218 640 192 c 0,63,64
 640 165 640 165 621 146 c 0,65,66
 602 128 602 128 576 128 c 1,67,-1
 576 128 l 1,51,52
64 256 m 1,68,69
 37 256 37 256 18 274 c 1,70,71
 0 293 0 293 0 320 c 0,72,73
 0 346 0 346 18 365 c 0,74,75
 37 384 37 384 64 384 c 0,76,77
 90 384 90 384 109 365 c 256,78,79
 128 346 128 346 128 320 c 0,80,81
 128 293 128 293 109 274 c 0,82,83
 90 256 90 256 64 256 c 1,84,-1
 64 256 l 1,68,69
576 256 m 1,85,86
 549 256 549 256 530 274 c 1,87,88
 512 293 512 293 512 320 c 0,89,90
 512 346 512 346 530 365 c 0,91,92
 549 384 549 384 576 384 c 0,93,94
 602 384 602 384 621 365 c 256,95,96
 640 346 640 346 640 320 c 0,97,98
 640 293 640 293 621 274 c 0,99,100
 602 256 602 256 576 256 c 1,101,-1
 576 256 l 1,85,86
64 384 m 1,102,103
 37 384 37 384 18 402 c 1,104,105
 0 421 0 421 0 448 c 0,106,107
 0 474 0 474 18 493 c 0,108,109
 37 512 37 512 64 512 c 0,110,111
 90 512 90 512 109 493 c 256,112,113
 128 474 128 474 128 448 c 0,114,115
 128 421 128 421 109 402 c 0,116,117
 90 384 90 384 64 384 c 1,118,-1
 64 384 l 1,102,103
576 384 m 1,119,120
 549 384 549 384 530 402 c 1,121,122
 512 421 512 421 512 448 c 0,123,124
 512 474 512 474 530 493 c 0,125,126
 549 512 549 512 576 512 c 0,127,128
 602 512 602 512 621 493 c 256,129,130
 640 474 640 474 640 448 c 0,131,132
 640 421 640 421 621 402 c 0,133,134
 602 384 602 384 576 384 c 1,135,-1
 576 384 l 1,119,120
64 512 m 1,136,137
 37 512 37 512 18 530 c 1,138,139
 0 549 0 549 0 576 c 0,140,141
 0 602 0 602 18 621 c 0,142,143
 37 640 37 640 64 640 c 0,144,145
 90 640 90 640 109 621 c 256,146,147
 128 602 128 602 128 576 c 0,148,149
 128 549 128 549 109 530 c 0,150,151
 90 512 90 512 64 512 c 1,152,-1
 64 512 l 1,136,137
320 512 m 1,153,154
 293 512 293 512 274 530 c 1,155,156
 256 549 256 549 256 576 c 0,157,158
 256 602 256 602 274 621 c 0,159,160
 293 640 293 640 320 640 c 0,161,162
 346 640 346 640 365 621 c 256,163,164
 384 602 384 602 384 576 c 0,165,166
 384 549 384 549 365 530 c 0,167,168
 346 512 346 512 320 512 c 1,169,-1
 320 512 l 1,153,154
576 512 m 1,170,171
 549 512 549 512 530 530 c 1,172,173
 512 549 512 549 512 576 c 0,174,175
 512 602 512 602 530 621 c 0,176,177
 549 640 549 640 576 640 c 0,178,179
 602 640 602 640 621 621 c 256,180,181
 640 602 640 602 640 576 c 0,182,183
 640 549 640 549 621 530 c 0,184,185
 602 512 602 512 576 512 c 1,186,-1
 576 512 l 1,170,171
64 640 m 1,187,188
 37 640 37 640 18 658 c 1,189,190
 0 677 0 677 0 704 c 0,191,192
 0 730 0 730 18 749 c 0,193,194
 37 768 37 768 64 768 c 0,195,196
 90 768 90 768 109 749 c 256,197,198
 128 730 128 730 128 704 c 0,199,200
 128 677 128 677 109 658 c 0,201,202
 90 640 90 640 64 640 c 1,203,-1
 64 640 l 1,187,188
192 640 m 1,204,205
 165 640 165 640 146 658 c 1,206,207
 128 677 128 677 128 704 c 0,208,209
 128 730 128 730 146 749 c 0,210,211
 165 768 165 768 192 768 c 0,212,213
 218 768 218 768 237 749 c 256,214,215
 256 730 256 730 256 704 c 0,216,217
 256 677 256 677 237 658 c 0,218,219
 218 640 218 640 192 640 c 1,220,-1
 192 640 l 1,204,205
448 640 m 1,221,222
 421 640 421 640 402 658 c 1,223,224
 384 677 384 677 384 704 c 0,225,226
 384 730 384 730 402 749 c 0,227,228
 421 768 421 768 448 768 c 0,229,230
 474 768 474 768 493 749 c 256,231,232
 512 730 512 730 512 704 c 0,233,234
 512 677 512 677 493 658 c 0,235,236
 474 640 474 640 448 640 c 1,237,-1
 448 640 l 1,221,222
576 640 m 1,238,239
 549 640 549 640 530 658 c 1,240,241
 512 677 512 677 512 704 c 0,242,243
 512 730 512 730 530 749 c 0,244,245
 549 768 549 768 576 768 c 0,246,247
 602 768 602 768 621 749 c 256,248,249
 640 730 640 730 640 704 c 0,250,251
 640 677 640 677 621 658 c 0,252,253
 602 640 602 640 576 640 c 1,254,-1
 576 640 l 1,238,239
64 768 m 1,255,256
 37 768 37 768 18 786 c 1,257,258
 0 805 0 805 0 832 c 0,259,260
 0 858 0 858 18 877 c 0,261,262
 37 896 37 896 64 896 c 0,263,264
 90 896 90 896 109 877 c 256,265,266
 128 858 128 858 128 832 c 0,267,268
 128 805 128 805 109 786 c 0,269,270
 90 768 90 768 64 768 c 1,271,-1
 64 768 l 1,255,256
576 768 m 1,272,273
 549 768 549 768 530 786 c 1,274,275
 512 805 512 805 512 832 c 0,276,277
 512 858 512 858 530 877 c 0,278,279
 549 896 549 896 576 896 c 0,280,281
 602 896 602 896 621 877 c 256,282,283
 640 858 640 858 640 832 c 0,284,285
 640 805 640 805 621 786 c 0,286,287
 602 768 602 768 576 768 c 1,288,-1
 576 768 l 1,272,273
EndSplineSet
Validated: 5
EndChar

StartChar: N
Encoding: 78 78 49
Width: 768
Flags: W
LayerCount: 2
Fore
SplineSet
64 0 m 1,0,1
 37 0 37 0 18 18 c 1,2,3
 0 37 0 37 0 64 c 0,4,5
 0 90 0 90 18 109 c 0,6,7
 37 128 37 128 64 128 c 0,8,9
 90 128 90 128 109 109 c 256,10,11
 128 90 128 90 128 64 c 0,12,13
 128 37 128 37 109 18 c 0,14,15
 90 0 90 0 64 0 c 1,16,-1
 64 0 l 1,0,1
576 0 m 1,17,18
 549 0 549 0 530 18 c 1,19,20
 512 37 512 37 512 64 c 0,21,22
 512 90 512 90 530 109 c 0,23,24
 549 128 549 128 576 128 c 0,25,26
 602 128 602 128 621 109 c 256,27,28
 640 90 640 90 640 64 c 0,29,30
 640 37 640 37 621 18 c 0,31,32
 602 0 602 0 576 0 c 1,33,-1
 576 0 l 1,17,18
64 128 m 1,34,35
 37 128 37 128 18 146 c 1,36,37
 0 165 0 165 0 192 c 0,38,39
 0 218 0 218 18 237 c 0,40,41
 37 256 37 256 64 256 c 0,42,43
 90 256 90 256 109 237 c 256,44,45
 128 218 128 218 128 192 c 0,46,47
 128 165 128 165 109 146 c 0,48,49
 90 128 90 128 64 128 c 1,50,-1
 64 128 l 1,34,35
576 128 m 1,51,52
 549 128 549 128 530 146 c 1,53,54
 512 165 512 165 512 192 c 0,55,56
 512 218 512 218 530 237 c 0,57,58
 549 256 549 256 576 256 c 0,59,60
 602 256 602 256 621 237 c 256,61,62
 640 218 640 218 640 192 c 0,63,64
 640 165 640 165 621 146 c 0,65,66
 602 128 602 128 576 128 c 1,67,-1
 576 128 l 1,51,52
64 256 m 1,68,69
 37 256 37 256 18 274 c 1,70,71
 0 293 0 293 0 320 c 0,72,73
 0 346 0 346 18 365 c 0,74,75
 37 384 37 384 64 384 c 0,76,77
 90 384 90 384 109 365 c 256,78,79
 128 346 128 346 128 320 c 0,80,81
 128 293 128 293 109 274 c 0,82,83
 90 256 90 256 64 256 c 1,84,-1
 64 256 l 1,68,69
576 256 m 1,85,86
 549 256 549 256 530 274 c 1,87,88
 512 293 512 293 512 320 c 0,89,90
 512 346 512 346 530 365 c 0,91,92
 549 384 549 384 576 384 c 0,93,94
 602 384 602 384 621 365 c 256,95,96
 640 346 640 346 640 320 c 0,97,98
 640 293 640 293 621 274 c 0,99,100
 602 256 602 256 576 256 c 1,101,-1
 576 256 l 1,85,86
64 384 m 1,102,103
 37 384 37 384 18 402 c 1,104,105
 0 421 0 421 0 448 c 0,106,107
 0 474 0 474 18 493 c 0,108,109
 37 512 37 512 64 512 c 0,110,111
 90 512 90 512 109 493 c 256,112,113
 128 474 128 474 128 448 c 0,114,115
 128 421 128 421 109 402 c 0,116,117
 90 384 90 384 64 384 c 1,118,-1
 64 384 l 1,102,103
448 384 m 1,119,120
 421 384 421 384 402 402 c 1,121,122
 384 421 384 421 384 448 c 0,123,124
 384 474 384 474 402 493 c 0,125,126
 421 512 421 512 448 512 c 0,127,128
 474 512 474 512 493 493 c 256,129,130
 512 474 512 474 512 448 c 0,131,132
 512 421 512 421 493 402 c 0,133,134
 474 384 474 384 448 384 c 1,135,-1
 448 384 l 1,119,120
576 384 m 1,136,137
 549 384 549 384 530 402 c 1,138,139
 512 421 512 421 512 448 c 0,140,141
 512 474 512 474 530 493 c 0,142,143
 549 512 549 512 576 512 c 0,144,145
 602 512 602 512 621 493 c 256,146,147
 640 474 640 474 640 448 c 0,148,149
 640 421 640 421 621 402 c 0,150,151
 602 384 602 384 576 384 c 1,152,-1
 576 384 l 1,136,137
64 512 m 1,153,154
 37 512 37 512 18 530 c 1,155,156
 0 549 0 549 0 576 c 0,157,158
 0 602 0 602 18 621 c 0,159,160
 37 640 37 640 64 640 c 0,161,162
 90 640 90 640 109 621 c 256,163,164
 128 602 128 602 128 576 c 0,165,166
 128 549 128 549 109 530 c 0,167,168
 90 512 90 512 64 512 c 1,169,-1
 64 512 l 1,153,154
320 512 m 1,170,171
 293 512 293 512 274 530 c 1,172,173
 256 549 256 549 256 576 c 0,174,175
 256 602 256 602 274 621 c 0,176,177
 293 640 293 640 320 640 c 0,178,179
 346 640 346 640 365 621 c 256,180,181
 384 602 384 602 384 576 c 0,182,183
 384 549 384 549 365 530 c 0,184,185
 346 512 346 512 320 512 c 1,186,-1
 320 512 l 1,170,171
576 512 m 1,187,188
 549 512 549 512 530 530 c 1,189,190
 512 549 512 549 512 576 c 0,191,192
 512 602 512 602 530 621 c 0,193,194
 549 640 549 640 576 640 c 0,195,196
 602 640 602 640 621 621 c 256,197,198
 640 602 640 602 640 576 c 0,199,200
 640 549 640 549 621 530 c 0,201,202
 602 512 602 512 576 512 c 1,203,-1
 576 512 l 1,187,188
64 640 m 1,204,205
 37 640 37 640 18 658 c 1,206,207
 0 677 0 677 0 704 c 0,208,209
 0 730 0 730 18 749 c 0,210,211
 37 768 37 768 64 768 c 0,212,213
 90 768 90 768 109 749 c 256,214,215
 128 730 128 730 128 704 c 0,216,217
 128 677 128 677 109 658 c 0,218,219
 90 640 90 640 64 640 c 1,220,-1
 64 640 l 1,204,205
192 640 m 1,221,222
 165 640 165 640 146 658 c 1,223,224
 128 677 128 677 128 704 c 0,225,226
 128 730 128 730 146 749 c 0,227,228
 165 768 165 768 192 768 c 0,229,230
 218 768 218 768 237 749 c 256,231,232
 256 730 256 730 256 704 c 0,233,234
 256 677 256 677 237 658 c 0,235,236
 218 640 218 640 192 640 c 1,237,-1
 192 640 l 1,221,222
576 640 m 1,238,239
 549 640 549 640 530 658 c 1,240,241
 512 677 512 677 512 704 c 0,242,243
 512 730 512 730 530 749 c 0,244,245
 549 768 549 768 576 768 c 0,246,247
 602 768 602 768 621 749 c 256,248,249
 640 730 640 730 640 704 c 0,250,251
 640 677 640 677 621 658 c 0,252,253
 602 640 602 640 576 640 c 1,254,-1
 576 640 l 1,238,239
64 768 m 1,255,256
 37 768 37 768 18 786 c 1,257,258
 0 805 0 805 0 832 c 0,259,260
 0 858 0 858 18 877 c 0,261,262
 37 896 37 896 64 896 c 0,263,264
 90 896 90 896 109 877 c 256,265,266
 128 858 128 858 128 832 c 0,267,268
 128 805 128 805 109 786 c 0,269,270
 90 768 90 768 64 768 c 1,271,-1
 64 768 l 1,255,256
576 768 m 1,272,273
 549 768 549 768 530 786 c 1,274,275
 512 805 512 805 512 832 c 0,276,277
 512 858 512 858 530 877 c 0,278,279
 549 896 549 896 576 896 c 0,280,281
 602 896 602 896 621 877 c 256,282,283
 640 858 640 858 640 832 c 0,284,285
 640 805 640 805 621 786 c 0,286,287
 602 768 602 768 576 768 c 1,288,-1
 576 768 l 1,272,273
EndSplineSet
Validated: 5
EndChar

StartChar: O
Encoding: 79 79 50
Width: 768
Flags: W
LayerCount: 2
Fore
SplineSet
192 0 m 1,0,1
 165 0 165 0 146 18 c 1,2,3
 128 37 128 37 128 64 c 0,4,5
 128 90 128 90 146 109 c 0,6,7
 165 128 165 128 192 128 c 0,8,9
 218 128 218 128 237 109 c 256,10,11
 256 90 256 90 256 64 c 0,12,13
 256 37 256 37 237 18 c 0,14,15
 218 0 218 0 192 0 c 1,16,-1
 192 0 l 1,0,1
320 0 m 1,17,18
 293 0 293 0 274 18 c 1,19,20
 256 37 256 37 256 64 c 0,21,22
 256 90 256 90 274 109 c 0,23,24
 293 128 293 128 320 128 c 0,25,26
 346 128 346 128 365 109 c 256,27,28
 384 90 384 90 384 64 c 0,29,30
 384 37 384 37 365 18 c 0,31,32
 346 0 346 0 320 0 c 1,33,-1
 320 0 l 1,17,18
448 0 m 1,34,35
 421 0 421 0 402 18 c 1,36,37
 384 37 384 37 384 64 c 0,38,39
 384 90 384 90 402 109 c 0,40,41
 421 128 421 128 448 128 c 0,42,43
 474 128 474 128 493 109 c 256,44,45
 512 90 512 90 512 64 c 0,46,47
 512 37 512 37 493 18 c 0,48,49
 474 0 474 0 448 0 c 1,50,-1
 448 0 l 1,34,35
64 128 m 1,51,52
 37 128 37 128 18 146 c 1,53,54
 0 165 0 165 0 192 c 0,55,56
 0 218 0 218 18 237 c 0,57,58
 37 256 37 256 64 256 c 0,59,60
 90 256 90 256 109 237 c 256,61,62
 128 218 128 218 128 192 c 0,63,64
 128 165 128 165 109 146 c 0,65,66
 90 128 90 128 64 128 c 1,67,-1
 64 128 l 1,51,52
576 128 m 1,68,69
 549 128 549 128 530 146 c 1,70,71
 512 165 512 165 512 192 c 0,72,73
 512 218 512 218 530 237 c 0,74,75
 549 256 549 256 576 256 c 0,76,77
 602 256 602 256 621 237 c 256,78,79
 640 218 640 218 640 192 c 0,80,81
 640 165 640 165 621 146 c 0,82,83
 602 128 602 128 576 128 c 1,84,-1
 576 128 l 1,68,69
64 256 m 1,85,86
 37 256 37 256 18 274 c 1,87,88
 0 293 0 293 0 320 c 0,89,90
 0 346 0 346 18 365 c 0,91,92
 37 384 37 384 64 384 c 0,93,94
 90 384 90 384 109 365 c 256,95,96
 128 346 128 346 128 320 c 0,97,98
 128 293 128 293 109 274 c 0,99,100
 90 256 90 256 64 256 c 1,101,-1
 64 256 l 1,85,86
576 256 m 1,102,103
 549 256 549 256 530 274 c 1,104,105
 512 293 512 293 512 320 c 0,106,107
 512 346 512 346 530 365 c 0,108,109
 549 384 549 384 576 384 c 0,110,111
 602 384 602 384 621 365 c 256,112,113
 640 346 640 346 640 320 c 0,114,115
 640 293 640 293 621 274 c 0,116,117
 602 256 602 256 576 256 c 1,118,-1
 576 256 l 1,102,103
64 384 m 1,119,120
 37 384 37 384 18 402 c 1,121,122
 0 421 0 421 0 448 c 0,123,124
 0 474 0 474 18 493 c 0,125,126
 37 512 37 512 64 512 c 0,127,128
 90 512 90 512 109 493 c 256,129,130
 128 474 128 474 128 448 c 0,131,132
 128 421 128 421 109 402 c 0,133,134
 90 384 90 384 64 384 c 1,135,-1
 64 384 l 1,119,120
576 384 m 1,136,137
 549 384 549 384 530 402 c 1,138,139
 512 421 512 421 512 448 c 0,140,141
 512 474 512 474 530 493 c 0,142,143
 549 512 549 512 576 512 c 0,144,145
 602 512 602 512 621 493 c 256,146,147
 640 474 640 474 640 448 c 0,148,149
 640 421 640 421 621 402 c 0,150,151
 602 384 602 384 576 384 c 1,152,-1
 576 384 l 1,136,137
64 512 m 1,153,154
 37 512 37 512 18 530 c 1,155,156
 0 549 0 549 0 576 c 0,157,158
 0 602 0 602 18 621 c 0,159,160
 37 640 37 640 64 640 c 0,161,162
 90 640 90 640 109 621 c 256,163,164
 128 602 128 602 128 576 c 0,165,166
 128 549 128 549 109 530 c 0,167,168
 90 512 90 512 64 512 c 1,169,-1
 64 512 l 1,153,154
576 512 m 1,170,171
 549 512 549 512 530 530 c 1,172,173
 512 549 512 549 512 576 c 0,174,175
 512 602 512 602 530 621 c 0,176,177
 549 640 549 640 576 640 c 0,178,179
 602 640 602 640 621 621 c 256,180,181
 640 602 640 602 640 576 c 0,182,183
 640 549 640 549 621 530 c 0,184,185
 602 512 602 512 576 512 c 1,186,-1
 576 512 l 1,170,171
64 640 m 1,187,188
 37 640 37 640 18 658 c 1,189,190
 0 677 0 677 0 704 c 0,191,192
 0 730 0 730 18 749 c 0,193,194
 37 768 37 768 64 768 c 0,195,196
 90 768 90 768 109 749 c 256,197,198
 128 730 128 730 128 704 c 0,199,200
 128 677 128 677 109 658 c 0,201,202
 90 640 90 640 64 640 c 1,203,-1
 64 640 l 1,187,188
576 640 m 1,204,205
 549 640 549 640 530 658 c 1,206,207
 512 677 512 677 512 704 c 0,208,209
 512 730 512 730 530 749 c 0,210,211
 549 768 549 768 576 768 c 0,212,213
 602 768 602 768 621 749 c 256,214,215
 640 730 640 730 640 704 c 0,216,217
 640 677 640 677 621 658 c 0,218,219
 602 640 602 640 576 640 c 1,220,-1
 576 640 l 1,204,205
192 768 m 1,221,222
 165 768 165 768 146 786 c 1,223,224
 128 805 128 805 128 832 c 0,225,226
 128 858 128 858 146 877 c 0,227,228
 165 896 165 896 192 896 c 0,229,230
 218 896 218 896 237 877 c 256,231,232
 256 858 256 858 256 832 c 0,233,234
 256 805 256 805 237 786 c 0,235,236
 218 768 218 768 192 768 c 1,237,-1
 192 768 l 1,221,222
320 768 m 1,238,239
 293 768 293 768 274 786 c 1,240,241
 256 805 256 805 256 832 c 0,242,243
 256 858 256 858 274 877 c 0,244,245
 293 896 293 896 320 896 c 0,246,247
 346 896 346 896 365 877 c 256,248,249
 384 858 384 858 384 832 c 0,250,251
 384 805 384 805 365 786 c 0,252,253
 346 768 346 768 320 768 c 1,254,-1
 320 768 l 1,238,239
448 768 m 1,255,256
 421 768 421 768 402 786 c 1,257,258
 384 805 384 805 384 832 c 0,259,260
 384 858 384 858 402 877 c 0,261,262
 421 896 421 896 448 896 c 0,263,264
 474 896 474 896 493 877 c 256,265,266
 512 858 512 858 512 832 c 0,267,268
 512 805 512 805 493 786 c 0,269,270
 474 768 474 768 448 768 c 1,271,-1
 448 768 l 1,255,256
EndSplineSet
Validated: 5
EndChar

StartChar: P
Encoding: 80 80 51
Width: 768
Flags: W
LayerCount: 2
Fore
SplineSet
64 0 m 1,0,1
 37 0 37 0 18 18 c 1,2,3
 0 37 0 37 0 64 c 0,4,5
 0 90 0 90 18 109 c 0,6,7
 37 128 37 128 64 128 c 0,8,9
 90 128 90 128 109 109 c 256,10,11
 128 90 128 90 128 64 c 0,12,13
 128 37 128 37 109 18 c 0,14,15
 90 0 90 0 64 0 c 1,16,-1
 64 0 l 1,0,1
64 128 m 1,17,18
 37 128 37 128 18 146 c 1,19,20
 0 165 0 165 0 192 c 0,21,22
 0 218 0 218 18 237 c 0,23,24
 37 256 37 256 64 256 c 0,25,26
 90 256 90 256 109 237 c 256,27,28
 128 218 128 218 128 192 c 0,29,30
 128 165 128 165 109 146 c 0,31,32
 90 128 90 128 64 128 c 1,33,-1
 64 128 l 1,17,18
64 256 m 1,34,35
 37 256 37 256 18 274 c 1,36,37
 0 293 0 293 0 320 c 0,38,39
 0 346 0 346 18 365 c 0,40,41
 37 384 37 384 64 384 c 0,42,43
 90 384 90 384 109 365 c 256,44,45
 128 346 128 346 128 320 c 0,46,47
 128 293 128 293 109 274 c 0,48,49
 90 256 90 256 64 256 c 1,50,-1
 64 256 l 1,34,35
64 384 m 1,51,52
 37 384 37 384 18 402 c 1,53,54
 0 421 0 421 0 448 c 0,55,56
 0 474 0 474 18 493 c 0,57,58
 37 512 37 512 64 512 c 0,59,60
 90 512 90 512 109 493 c 256,61,62
 128 474 128 474 128 448 c 0,63,64
 128 421 128 421 109 402 c 0,65,66
 90 384 90 384 64 384 c 1,67,-1
 64 384 l 1,51,52
192 384 m 1,68,69
 165 384 165 384 146 402 c 1,70,71
 128 421 128 421 128 448 c 0,72,73
 128 474 128 474 146 493 c 0,74,75
 165 512 165 512 192 512 c 0,76,77
 218 512 218 512 237 493 c 256,78,79
 256 474 256 474 256 448 c 0,80,81
 256 421 256 421 237 402 c 0,82,83
 218 384 218 384 192 384 c 1,84,-1
 192 384 l 1,68,69
320 384 m 1,85,86
 293 384 293 384 274 402 c 1,87,88
 256 421 256 421 256 448 c 0,89,90
 256 474 256 474 274 493 c 0,91,92
 293 512 293 512 320 512 c 0,93,94
 346 512 346 512 365 493 c 256,95,96
 384 474 384 474 384 448 c 0,97,98
 384 421 384 421 365 402 c 0,99,100
 346 384 346 384 320 384 c 1,101,-1
 320 384 l 1,85,86
448 384 m 1,102,103
 421 384 421 384 402 402 c 1,104,105
 384 421 384 421 384 448 c 0,106,107
 384 474 384 474 402 493 c 0,108,109
 421 512 421 512 448 512 c 0,110,111
 474 512 474 512 493 493 c 256,112,113
 512 474 512 474 512 448 c 0,114,115
 512 421 512 421 493 402 c 0,116,117
 474 384 474 384 448 384 c 1,118,-1
 448 384 l 1,102,103
64 512 m 1,119,120
 37 512 37 512 18 530 c 1,121,122
 0 549 0 549 0 576 c 0,123,124
 0 602 0 602 18 621 c 0,125,126
 37 640 37 640 64 640 c 0,127,128
 90 640 90 640 109 621 c 256,129,130
 128 602 128 602 128 576 c 0,131,132
 128 549 128 549 109 530 c 0,133,134
 90 512 90 512 64 512 c 1,135,-1
 64 512 l 1,119,120
576 512 m 1,136,137
 549 512 549 512 530 530 c 1,138,139
 512 549 512 549 512 576 c 0,140,141
 512 602 512 602 530 621 c 0,142,143
 549 640 549 640 576 640 c 0,144,145
 602 640 602 640 621 621 c 256,146,147
 640 602 640 602 640 576 c 0,148,149
 640 549 640 549 621 530 c 0,150,151
 602 512 602 512 576 512 c 1,152,-1
 576 512 l 1,136,137
64 640 m 1,153,154
 37 640 37 640 18 658 c 1,155,156
 0 677 0 677 0 704 c 0,157,158
 0 730 0 730 18 749 c 0,159,160
 37 768 37 768 64 768 c 0,161,162
 90 768 90 768 109 749 c 256,163,164
 128 730 128 730 128 704 c 0,165,166
 128 677 128 677 109 658 c 0,167,168
 90 640 90 640 64 640 c 1,169,-1
 64 640 l 1,153,154
576 640 m 1,170,171
 549 640 549 640 530 658 c 1,172,173
 512 677 512 677 512 704 c 0,174,175
 512 730 512 730 530 749 c 0,176,177
 549 768 549 768 576 768 c 0,178,179
 602 768 602 768 621 749 c 256,180,181
 640 730 640 730 640 704 c 0,182,183
 640 677 640 677 621 658 c 0,184,185
 602 640 602 640 576 640 c 1,186,-1
 576 640 l 1,170,171
64 768 m 1,187,188
 37 768 37 768 18 786 c 1,189,190
 0 805 0 805 0 832 c 0,191,192
 0 858 0 858 18 877 c 0,193,194
 37 896 37 896 64 896 c 0,195,196
 90 896 90 896 109 877 c 256,197,198
 128 858 128 858 128 832 c 0,199,200
 128 805 128 805 109 786 c 0,201,202
 90 768 90 768 64 768 c 1,203,-1
 64 768 l 1,187,188
192 768 m 1,204,205
 165 768 165 768 146 786 c 1,206,207
 128 805 128 805 128 832 c 0,208,209
 128 858 128 858 146 877 c 0,210,211
 165 896 165 896 192 896 c 0,212,213
 218 896 218 896 237 877 c 256,214,215
 256 858 256 858 256 832 c 0,216,217
 256 805 256 805 237 786 c 0,218,219
 218 768 218 768 192 768 c 1,220,-1
 192 768 l 1,204,205
320 768 m 1,221,222
 293 768 293 768 274 786 c 1,223,224
 256 805 256 805 256 832 c 0,225,226
 256 858 256 858 274 877 c 0,227,228
 293 896 293 896 320 896 c 0,229,230
 346 896 346 896 365 877 c 256,231,232
 384 858 384 858 384 832 c 0,233,234
 384 805 384 805 365 786 c 0,235,236
 346 768 346 768 320 768 c 1,237,-1
 320 768 l 1,221,222
448 768 m 1,238,239
 421 768 421 768 402 786 c 1,240,241
 384 805 384 805 384 832 c 0,242,243
 384 858 384 858 402 877 c 0,244,245
 421 896 421 896 448 896 c 0,246,247
 474 896 474 896 493 877 c 256,248,249
 512 858 512 858 512 832 c 0,250,251
 512 805 512 805 493 786 c 0,252,253
 474 768 474 768 448 768 c 1,254,-1
 448 768 l 1,238,239
EndSplineSet
Validated: 5
EndChar

